<?xml version="1.0" encoding="UTF-8"?>
<svg version="1.1" viewBox="0 0 932 868" width="1280" height="1280" xmlns="http://www.w3.org/2000/svg">
<path transform="translate(0)" d="m0 0h932v868h-932z" fill="#FCFCFB"/>
<path transform="translate(450,16)" d="m0 0h16l13 4 8 6 5 5 6 9 3 8 1 5v13l-2 10 1 10 9 40 3 15 12 2v28l10 2 8 2 14-20 6 1 19 9 1 4-6 20 2 4 13 8 5-2 13-11 5-5 3-5-25-17-12-8-10-7-1-4 16-23 8-12 5-7 9 5 11 8 18 12 11 7 3 1 2-5 3-4 5 1 12 8 11 8 2 4-5 7v3l18 12 4 9 9 38v13l-6 8-5-1-11-7-16-11-24-16-2-1-2 5-9 13-8 12 1 5 5 6 3 1 16-8 7-2 8 11 6 9 1 4-9 9-5 4 69 1-6 7-17 17-7 8-9 9-7 8-4 4 1 8 2 1 25 1 2 4 3 23-5 3-19 7h-2l1 4 9 5 23 12 13 9 9 8 5 9 1 3v11l-7 30-5 19-7 39-2 12-4 7-8 4-10 1-16-2-12-5-8-6-7-8v-2l4 2 12 8 13 5 5 1h17l5-5v-8l-6-9-13-10-8-5-3-1-2 6-9 15-5 1-8-3-10-5-5 2-6 8-2 5 10 14 4 5-1 4-7 8-8 8-1 2-6-1-14-10-6-4 1 8 4 17 4 4 14 10 18 14 16 11 2 2 1 4v7l-4 10-7 10-10 10-14 9-10 4h-12l-7-4-6-13-12-29-14-29-5-5 2 10v9l-21 9h-5l-8-13-3-5v-2l-9 1-10 3-1 1-1 26-3 1-26 2-6-21-1-4-19 1-6 24-1 1-21-1-7-1-2-7-1-21-10-1-5-2-4 1-11 20-5 1-20-7-5 1-12 20-13 20-9 14-4 3-15-6-16-9-11-11-7-9v-5l8-10 12-13 9-11 8-10 4-14 4-22-5-2-6-6-5 1-16 10h-4l-11-12-6-7 1-4 9-10 5-7-3-7-6-8v-2l-10 4-11 4-5-1-4-5-1-6-9 5-16 12-4 5-1 5 3 7 2 2 4 1h15l13-4 11-6 6-5h2l-2 4-5 6-11 7-10 4-4 1h-21l-7-3-4-8-8-46-6-19-12-29-1-4v-11l6-12 10-11 15-11 26-13 1-3-2-4-15-5-2-1 1-12 3-16h27l3-12v-6l-9-10-12-12-7-8-8-9-6-5v-2h46l17-1-1-5-12-12 2-5 13-18 2-1 16 8 5 3 4-2 5-6v-5l-12-16-5-4-6-4-2-4h-8l-5-4-4-4v1h-9l-20 12-10 7-22 14-5 1-6-5-1-5 7-8 14-10 18-14 13-10v-12l-5-10 1-5 7-8 10-8 16-8 5-1 5 4 14 19 11 15 5 8 1 10 3 6 2 9 10 14 4 2 7-6 5-2-2-10-5-14 1-4 8-5 13-7 5 1 10 14 3 4 5-1 13-5 1-1-1-27 11-2 3-8 9-43 1-10-4-14v-15l3-10 6-10 4-5 10-7z" fill="#110E10"/>
<path transform="translate(430,335)" d="m0 0h65l20 1 28 3 32 6 35 9 26 8 27 10 25 11 21 11 18 11 10 8 3 5v10l-5 25-6 25-4 24-1 9h-2v-2l-4-2-14-10-24-13-25-12-28-11-27-9-28-7-29-6-32-5-37-3h-38l-32 3-29 5-31 7-36 12-26 11-25 12-19 11-12 8-10 9-5 3-4-21-6-24-11-29-2-7v-9l6-12 8-8 16-11 21-11 25-10 36-12 21-6 34-8 31-5 27-3z" fill="#FCFCFB"/>
<path transform="translate(27,251)" d="m0 0 3 1 1 12 4 4 8 3 2 2 1 7-1 5v9l6 4 1 2v7l-1 8 5 5 6 4 1 3-5 11v10l6 10-1 10-1 7v11l2 9 3 4-5 8-2 15h2l1-9 5-6 5-4 2-5 1-11 9-7 3-12 9-5 4-5 4-7 10-5h3v16l2 4-1 9-3 10v19l-7 10v16l-3 7-7 8-1 3v11l-9 4-2 10 5 12v6l-9 8-1 2v9l6 11 3 5-1 8v9l6 9 11 9 3 8 3 1-2-9-5-7-8-7-1-2v-20l-4-6-6-8v-9l4-3 7-3v-10l-5-12v-5l4-3 8-3 5-12 14-6 1 4 1 9 5 10-1 5v12l4 8-1 7-6 13v6l5 6 1 3-2 7-3 9 1 13-1 3v18l-1 2h-2l-1-4-2-22-2-8v-9l4-1v-2l-4 1-2-4-2-10v-13l2-3v-3l-2-1-1-3v-16l1-7-1 3-4 2 2 8v20l-2 6-5-1 1 2 5 3 4 20v6h-4l3 3 2 1 3 10 2 21 3 13 1 7-3-1v-2h-2l-6-18-5-5-14-1-8-10-5-3-4 1-5 3h-6l-8-6-8-1-4 3h-4l-5-5-5-4-4-12-7-6-6-4-3-5v-15l-4-8 2-22 4 2 8 9 2 1 12 1 4 5 6 12 3 2 13 2 6 5 4 9 6 18 6 10 7 6 6 2-1-4-4-2-7-7-4-6-7-28-4-6-8-4-12-1-4-4 1-5 1-4-4-10-7-8-13-8-10-6-8-7-4-10 3-7v-7l-5-10-2-2v-6l5-5 1-8-2-5v-7l6-9v-10l1-5 4 2 6 8 9 4 3 4 4 13 4 4 9 4 1 7v15l3 6 7 3 3 1 1 2v10l-1 6 2 9 3 7-1 19 3 8 3 5h4l-4-6-1-5v-16l1-10-5-8 1-6 2-8-1-8-2-2-12-4-1-1v-24l-2-6-2-1-12-1-3-15-3-6-7-4-1-9-6-10-6-7-5-5-5-8-1-6 4-4 6-5 1-3-5-15-1-7 1-3 7-4 1-4v-8l5-5 3-12z" fill="#110E10"/>
<path transform="translate(811,443)" d="m0 0 3 1 5 9 2 1 12 1 1 1v18l2 4 8 5 1 1-1 9-2 4v9l3 9 2 1-4 9-8 1-4 5-2 6-2 21-3 9-5 6v2l4-1 6-9 3-9 3-20 2-4 19-1 3-1 4-5 1-5 6-5 9 4 8-1 6-8 4-5 19-1 1 4-4 6-1 10-4 5h-2l-2 4-3 12-3 4h-6l-6-7-7 1-10 5-10-1-5 3-6 10-5 5-9 2-4 4-4 10-6 5-5 3h-2v3l13-5 4-4 4-11 12-3 4-5 6-11 6-1h7l10-3 5-1-1 11 5 14-5 5-7 5-3 15-11 12-3 2-9 2-5 5-2 3-6-1-5-3-5 1-6 7-3 7-4 6-2 4 5-1 12-18 5 2 4 2h7l4-2 4-6 2-1 10 1 5 1h7l-2 4-7 6-2 5-2 8-6 4-13 5-2 7v5l-5 5-21 4-5 2-2 4-7 9-4 3-4-1-5-2-11 7-5-1-1-3 9-2 6-4h2l2-5 7-5 9-3 14-16v-6l-3-2-10-1-9-5h-6l-9 3-5-4v-2l-10 2-10 8-4-1-4-9v-7l3-9-1-10 4-4v-16l1-2 9-3 2-3-1-7-2-7 9-9 3-9 4 1 3 6 9 6 1 1v8l-1 2v7l6 8 1 6-5 10v12l-2 7-5 5-7 5-1 2 8-2 8-6 4-5 1-8-1-8 4-9 1-5v-8l-7-6-1-3 4-16 2-3v-9l-7-14-7-10-1-6 8-7 1-2-1-10-6-13 1-4 10-6v-11l-2-4 1-5 7-6 1-2v-8z" fill="#110E10"/>
<path transform="translate(318,709)" d="m0 0 4 1 9 2 7-1 6-1 7 3 7 6 5 2 5-2h8l5 4 9 12 6 5 7 2-1 11 2 3 14 4v-2l-5-2-4-4v-8l-2-5v-8l2-9 11 3h6l6 10v2h7l9-1 4 8 4 9 1 6-4 6-2 14 2 7 2 1 1-4 1-16 3-4 10-2 3-13 4-6 8 2 7-1 4-4 5-8 2-3h7l7 2 12-5 3 1-4 7-2 2 1 6 1 5-5 5-9 7-1 6 2 11-5 2-16 4-3 15-4 3h-7l-15-4-9-2h-8l-2 3-4 1h-7l-2-1 1-3 6-2v-3l-7 1v2l-12 7-9 4-5 5-7 9-7-1-7-4h-9l-10 5-8 7-4 2-6-1-9-4h-5l-8 8-5 4-5-1-6-5h-9l-7 2h-5v-4l14-8 3-12 15-4 4-1 2-13 1-1 30-1 5-3 2-4 2-9 1-1 9 1 13 8 4 2 10-6 5-5 6 1 9 6 10 8 6 4 4 1-3-5-12-9-11-7-9-3h-7l-4 5-3 2-5-1-13-7h-10l-3 2-9-1-4-2v-8l1-4-5-5-9-4-3-4-1-4-8-6-2-9-4-5z" fill="#100E0F"/>
<path transform="translate(149,140)" d="m0 0h9l-2 12-4 6-3 5 1 5v7l-9 6-3 3-2 10-11 1-5 3-4 9-3 5-13 5-3 22-7 6-7 5-3 10-1 1-12 1-3 3-2 5h-2v-12l5-3 1-3-7 1-1-1v-16l3-8 4-3 1-3h-4l1-10 7-18 1-6-7 16-4 1-2-2 2 5 1 5-4 15-2 5-3 1-2-3 1 3 3 2 1 23 3 16 2 3-1 12 4-6 5-16 1-1 13-1 3-5 2-9 3-2 6-2 7-9 13-2 1 3-2 7v7l-4 13 2 9 1 5-9 7-7 5h-2l-2 4 1 8 2 8-5 5-11 9-4 5-3 7-1 25 3 1 1-2 3-21 4-9 12-11h2l2-4 3-4-1-9-2-3 1-5 1-1h7l6 1 7-4 2-5 7-1 9 1-3 9-1 10-4 10-4 13-8 9-9 4-9 5h-2l1-6 6-11 8-3 1-1-4-1 1-6 9-12v-3l-6 7-5 5-9 17-5 11v12l-3 4-8 1-3 3-2 12-3 3-6 2-2 5-3-1v-14l3-15-1-5-6-11 3-9h2l1 4h2l-1-10-1-6-5-2-8-5 1-17-7-7-1-13-3-7-11-6 1-4 3-4v-14l-4-15 1-6 5-9 3-4 4-20 2-2h9l5-6 5-5 8-1 5-3 3 1-3 6v17l-3 9 6 10-3 7-5 8v6l5 5 6 5-3-9-2-4 1-7 5-9 1-5-4-6-1-1v-6l4-8 7-1 4-9 3-10 2-2 12-1 4-9 3-9 1-1 13-1 7-5z" fill="#110E10"/>
<path transform="translate(224,276)" d="m0 0h286l3 8 6 19v3l-221 1 9 10 14 15 8 9-1 3-26 7-7 1-9-9-7-8-12-12-7-8-10-10-7-8-19-19z" fill="#FDFDFC"/>
<path transform="translate(808,320)" d="m0 0 7 4 10 3 3 4 3 11 2 3 11 3 2 6 1 10 4 6 10 4-1 10-1 5 7 17 3 3-2 7-2 14-3 3-12 6-1 2v11l3 11v9l-2 2h5v-14l-1-7v-9l6-4 9-3 1-3 1-16 2-4 14-7 3-5 2-11 4-4 5-3 10-12 4 2 6 10 5 7-1 7-6 11 1 7 4 8-1 4-4 5-13 8-8 6v8l5 10-1 6-5 4-8 4-7 6-5 5-13 7-8 7-6 9-2-4-1-3v-8l4-9-2-8-2-4-6-2-2-4-1-16-3-4v-7l-3-7-7-8-6-5-2-6 3-9-1-6-7-7-2-3 1-6 3-4 1-5-4-8-6-7-2-4 1-6 3-4v-9l-3-5 1-5 2-9z" fill="#100E0F"/>
<path transform="translate(27,251)" d="m0 0 3 1 1 12 4 4 8 3 2 2 1 7-1 5v9l6 4 1 2v7l-1 8 5 5 6 4 1 3-5 11v10l6 10-1 10-1 7v11l2 9 3 4-5 8-2 15h2l1-9 5-6 5-4 2-5 1-11 9-7 3-12 9-5 4-5 4-7 10-5h3v16l2 4-1 9-3 10v19l-7 10v16l-3 7-7 8-1 3v11l-9 4-2 10 5 12v6l-9 8-5-1-4-6-1-5v-16l1-10-5-8 1-6 2-8-1-8-2-2-12-4-1-1v-24l-2-6-2-1-12-1-3-15-3-6-7-4-1-9-6-10-6-7-5-5-5-8-1-6 4-4 6-5 1-3-5-15-1-7 1-3 7-4 1-4v-8l5-5 3-12z" fill="#110E10"/>
<path transform="translate(255,688)" d="m0 0 4 1 6 4 6 1 1-3h6l8 8 3 2h9l6 3 3 3 3 7 7 4 2 3v6l4 5 8 7 4 6 10 3 1 3v13l9 3 6 1-1 7-2 3-28 1-6 2-3 7-4 7-12 3-4 4-4 6-7-1-10-5h-11l-9 4-7-1-5-4v-2l-4-2-7-1-12 1-5-5-3-6-5-4-10-3-2-2v-4l2-1 14-1 5-2 3-13 5-2 12 4 8-1 4-3h2v-2l3-2 15 1 1-3 5 1 10 4 2 4 2 13 4 4 3 1 16 1h13v-2l-7-3-24-3-2-2v-6l1-2v-6l-5-5-13-4-6-4v-13l-3-4v-2l-5-2-9-6-1-1 1-7 1-9-2-4z" fill="#110E10"/>
<path transform="translate(493,86)" d="m0 0 2 1 8 35 16 68 17 72 6 25-1 5-10 16-4 3-5-15-11-36-6-10-7-6-11-6-3-6-6-26-9-34-10-38-7-27v-4l18-2 10-4 9-7z" fill="#FDFDFC"/>
<path transform="translate(863,172)" d="m0 0h5l4 6 7 5 1 7-2 4 1 7 2 3 8 3 2 4-2 14v6l6 5 2 4-1 8-2 6v15l3 12-6 4-4 14-7 5-6 2-1 22-10 4h-2v9l4 17-1 8-3 1-7-3-1-1-1-12-3-6-4-3v-12l-11-21-7-5 3-5 4-5 1-8-5-5-8-4-1-5 4-8-1-5-5-6-6-5-1-3 2-6v-10l-1-5 6 1 3 3 5 1 3-2 5 1 4 5 4 11 3 2h10l5 5 1 18 3 4 8 3 2 3v7l-2 13h2l1-6 3-8v-10l-5-5-6-4-1-14-2-5-5-5-11-2-3-4-2-6 6-7 3-6-1-8-1-6 7-9-2-7v-6z" fill="#100E0F"/>
<path transform="translate(760,690)" d="m0 0 4 2 5 5 5 3h7l9-5 6 1 8 7 11 3 1 3-1 2-9 4-5 4-6 7-3 1h-11l-7 3-3 8-13-1-10 2-5 5-3 1-13 1-10 6-5-1-7-6-8 1-5 3-5-1-4-3h-6v2l10 7h8l2-2h7l6 5 8 1 4-1 12 6 7 2-1 3-8 4-5 6-2 1-18 2-3 7-1 3-3 1-14-6h-8l-5 2-2 4-6 3-6-1h-13l-4-12-5-2-8-2 2-2 8-2h7l5 4 9 11 3 2-10-15-1-4 3-1h21l4 1 4 5 9 6-2-3-6-7 2-2 30-1-1-2h-16l-5-1 1-7 2-4h-3l-2 6-2 4-7 1h-11l-2-1 2-9h-4l-2 8-5 2-19 3-14 5-2 4-5-1-3-6 1-4 10-5 9-1 20-1 6-4 2-6v-12l4-3 11-4 4-2 5-5 2 2 5-1 8-7 8-13 5-6 6-1 10 5 8-1 7-4 5-5z" fill="#110E10"/>
<path transform="translate(425,89)" d="m0 0 4 2 10 7 5 3 4 11 10 38v7l-8 31-11 42-3 8-9 7h-2l-9 18-2 6-26 1v-7l13-60 12-58 11-53z" fill="#FDFDFC"/>
<path transform="translate(416,481)" d="m0 0 7 6 8 9-1 4-11 18-14 22-15 24-12 19-11 17-10 16-22 34-9 14-1 1-8-1-16-8-13-12-4-6 1-5 13-15 10-12 1-2h2v11l10 19 3 4 5-15 16-56 4-8 8-8 8-10 7-8 11-14 10-11 9-11 9-10z" fill="#FDFDFC"/>
<path transform="translate(600,109)" d="m0 0 4 1 10 7 12 8 16 11 24 16 28 19 4 8 8 35v11l-1 2-4-1-44-29-34-23-39-26-7-5 7-11 8-11z" fill="#FDFDFC"/>
<path transform="translate(468,439)" d="m0 0h16l10 1 5 4 13 17 28 36 13 17 11 14 14 18 7 10 6 16 14 49 4 17v2h2l2-5 10-16v-11l-4-18 1-3 9 6 28 21v2l-16 7-9 6-11 11-9 15h-2l-12-29-9-20-8-14-14-19-13-17-14-19-13-18-12-16-14-19-10-13-10-14-10-13z" fill="#FDFDFC"/>
<path transform="translate(596,276)" d="m0 0h120l-6 7-7 7-7 8-16 16-7 8-12 12-7 8-10 10-2 3-7-1-27-8 1-4 14-14 7-8 9-9 4-6-2 1-65 1 2-5 8-11 7-11z" fill="#FDFDFC"/>
<path transform="translate(66,632)" d="m0 0 5 1 10 6 14-1 7 2h14l4 3v2l-9 2-2 7 8 10 1 9-6-3-7-8-2-5-7-1-9-6h-3l-1 3 7 1 9 7 9 8-1 3h-2v3h7l4 2 5 5 10 6 6 3-5-5-6-3v-3l9 1 5 5 5 8v2h3l-6-17-7-3-10-3-1-1-2-13-6-5v-3l5-1h11l5-4 4-1 6 4 7 6 4 2h8l7-4 5 2 7 8 4 2h6l6-3 4 1 8 16 11 4 4 5 5 9 4 5 11 6 3 8 13 8 3 6-1 4-11-13-16-8-9-6-8-10-3-6-12-12-16-4-10-4-1-5h-4l-1 3-14-1-11-4-4-4h-2v2l-3 1h-2l4 5h9l20 4 1 3h-2l-1 4 7-3h8l12 4 16 8 6 5 1 3h-7l-6 4h-6l-9-6-3-1h-8l-4 4-2 3h-7l-8-3h-7l-6 2-3 3-7-1-16-4-10-10-6-2-12-2-6-4 2-10-4-5-14-8-3-4 1-5 1-6-4-6z" fill="#110E10"/>
<path transform="translate(152,547)" d="m0 0h3l3 11 5 5 2 3v8l2 6 6 7 2 11 6 11 3 4 1 13-8 10-4-1-5-9 1-4h2l-2-3-1 2-4-1-5-11v-9l-3-1-2-10-1-12-3-6 2 17 1 8-8-1 5 4 3 3 4 9 1 8 7 8 7 10 3 2 3-1 4 8 4 6 3-1-5-10-1-4 7-6 1-5-1-9 5-6 2-5 5 1 4 6 9 5 4 14 3 5 10 2 1 17 3 3 7 3 5 6 2 8 1 5-2 2v10l2 3v5h-3l-4-9-4-10v-3l-4-2-6-7-6-10-3-7-5-5-5-8-3-11-4-4-2-4v-3h-2l3 9 2 2 3 11h-3v3l5 2 7 9 13 20 7 10 6 10 5 8-1 4-7-7-5-8-6-11-5-4-8-3-7-14-6-5-6 1-4 3-5-1-11-9-6-2-4 2-4-1-14-21-9-9-7-16-4-9-1-9h3l2-7v-13l1-3 11-2 5-7z" fill="#110E10"/>
<path transform="translate(54,561)" d="m0 0h5l8 6 5 2 6-1 3-2 5 1 4 5 4 6 2 1h11l5 3 6 18 4 3 8 3 4 9 2 6 4 5 6 5 7 10 7 7 2 1v3l-5-1-6-5v-2l-5-2-4-2-8 1-7 5h-3l-2-6-5-5-6-1h-7l-8-2h-8l-3-8-1-3-5-2-2-1-14-1-10-3-6-7-1-9-5-5-9-6-3-15-2-8 2-2 5 1 8 3 8-1z" fill="#110E10"/>
<path transform="translate(185,698)" d="m0 0 6 1 8 6 3 1h10l3-3 5 1 9 10 8 5 13 5 11 8 4 4 4 10-3 1-9-2-7 3-5 4h-8l-3-1h-10l-4 2h-17l-7 1-7-4-10-1-11 1-4-3-3-8-6-1h-15l-4-4-3-8-13-7-2-4 1-1h19l5-3 6-8 7-2 9 3 5 2h6l8-7z" fill="#110E10"/>
<path transform="translate(369,767)" d="m0 0 9 1 13 8 4 2 10-6 5-5 6 1 9 6 10 8 6 4v2l-8 1v2l-12 7-9 4-5 5-7 9-7-1-7-4h-9l-10 5-8 7-4 2-6-1-9-4h-5l-8 8-5 4-5-1-6-5h-9l-7 2h-5v-4l14-8 3-12 15-4 4-1 2-13 1-1 30-1 5-3 2-4 2-9z" fill="#110E10"/>
<path transform="translate(624,182)" d="m0 0 9 5 10 7 1 2-10 15-14 20-10 15-11 16-17 25-11 16-20 30-27-2-1-3 21-30 13-19 8-12 11-16 13-19 16-23 14-21 3-5z" fill="#FDFDFC"/>
<path transform="translate(450,24)" d="m0 0h19l12 6 8 9 4 8 1 3v18l-5 12-6 7-10 6-5 2-9 1-13-2-8-4-9-9-5-9-2-8v-8l2-10 7-11 8-7z" fill="#FDFDFC"/>
<path transform="translate(913,275)" d="m0 0h2l-1 5-1 6 3 10v6l-2 3v7l5 7-5 9-4 7 2 6 3 6v6l-6 8-6 11-5 8-9 6-4 10-3 7-9 6-4-1-2-13v-24l-3-3 2-4 2-2 1-4v-7l-3-10v-5l12-4 2-4v-7l-1-10 5-4 6-3 3-5 2-11 4-3 8-3z" fill="#100E0F"/>
<path transform="translate(627,696)" d="m0 0 6 1 9 4h8l2 1-2 4-8 5-3 9-5 4-11 3-3 4v10l-3 3-15 3-5 4-6 10-6 6-5-1-6-7-4-2-7 1-15 10-11 5-12 4-4 1 1-4v-6l13-3 8-6 5-7 3-14 3-9 3-6 7-5 9 3 5 1 8-7 5-8 5-5h3l7 6v2h5l9-10z" fill="#110E10"/>
<path transform="translate(808,320)" d="m0 0 7 4 10 3 3 4 3 11 2 3 11 3 2 6 1 10 4 6 10 4-1 10-1 5 7 17 3 3-2 7-2 14-3 3-12 6-3 6-5 6-2-2v-21l-1-3-10-3-1-2h12v-8l-2-10-5-4-10-3-5-2-2-3 2-2-4-3 1-7-4-8-6-7-2-4 1-6 3-4v-9l-3-5 1-5 2-9z" fill="#100E10"/>
<path transform="translate(737,600)" d="m0 0h4l5 14 6 7-2 7-4 7 5 15-4 5-5 4h-2l-2 5 1 5 3 7-1 6-9 6-6 5-9 4-5 5-7 10-6 8-4 3h-3l-6-15 4-6 4-4 2-6-1-7-5-6 2-4 7-6h2l1-4 1-20 5-3 7-2 4-4 1-19 5-3 6-4 4-7z" fill="#100E10"/>
<path transform="translate(415,440)" d="m0 0h9l19 19 7 8 8 8 7 8 3 3 4-2 10-10 1-2 4 2 8 11 6 9-1 3-8 7-16 16-6 7-4-2-9-10-16-16-7-8-12-12-7-8-8-8-7-8-10-9v-2l8-2z" fill="#FDFDFC"/>
<path transform="translate(123,445)" d="m0 0 2 1v8l3 7 3 9-1 3v12l4 8-1 7-6 13v6l5 6 1 3-2 7-3 9 1 13-1 3v18l-1 2h-2l-1-4-2-22-2-8v-9l4-1v-2l-4 1-2-4-2-10v-13l2-3v-3l-2-1-1-3v-16l1-7-1 3-4 2 2 8v20l-2 6-5-1 1 2 5 3 4 20v6h-4l3 3 2 1 3 10 2 21 3 13 1 7-3-1v-2h-2l-6-18-5-5v-2h4l-2-7-3-6-5-5-7-8v-20l-4-6-6-8v-9l4-3 7-3v-10l-5-12v-5l4-3 8-3 5-12z" fill="#100E0F"/>
<path transform="translate(12,478)" d="m0 0 4 2 8 9 2 1 12 1 4 5 6 12 3 2 13 2 6 5 4 9 6 18 6 10 7 6 6 2-2-5h5l5 4 3 8 3 1v-5h1v6l-4 1h-14l-8-10-5-3-4 1-5 3h-6l-8-6-8-1-4 3h-4l-5-5-5-4-4-12-7-6-6-4-3-5v-15l-4-8z" fill="#110E10"/>
<path transform="translate(504,500)" d="m0 0 4 2 7 10 11 15-2 4-18 12-13 6-13 3h-23l-18-4-15-6-9-5 2-5 15-24 3-6 4 2 15 16 14 14 4-2z" fill="#FDFDFC"/>
<path transform="translate(564,762)" d="m0 0h5l7 8 7 4h13l11-4h5l4 10 4 4 3 1h14l3 3 2 11 5 5v3l-5-1h-8l-7 3-7-1-4-3h-9l-5 3-4 5-6 1-14-8-6-3h-7l-11 6-6 1-16-11-9-5-5-2-1-3 13-2h9l9 16v-3l-3-8v-5l4-2h11l19 2 6 9 5 9 2 1-5-11-1-6h7l18 5 5 5 4 3 4 1-1-2-3-1-1-3 3-1 7 2h5l-7-3-1-4-1 2h-7l-13-4-7-2 2-4 5-6-6 4-4 4-15-1-16-2-2-1 2-6 1-4-4 5-3 5-26 3h-8l1-3 21-7 10-6z" fill="#100E10"/>
<path transform="translate(678,671)" d="m0 0 3 2v8l8 7 1 4-6 8-3 3-2 5 1 4 3 6v5l-6 5-13 7-3 4-1 14-3 3-24 1-12 6-2 3-5-1h-11l-9 2v-3l5-2 1-5 5-5 2-1 9-1 7-3 4-6v-10l6-3 9-3 3-5 2-8 9-5 3-3-1-5-7-4 1-4 6-10 9 1 5-2 3-4 1-4z" fill="#110E10"/>
<path transform="translate(149,140)" d="m0 0h9l-2 12-4 6-3 5 1 5v7l-9 6-3 3-2 10-11 1-5 3-4 9-3 5-13 5-3 22-7 6-3 1-1-9-3-6 1-7 5-9 1-5-4-6-1-1v-6l4-8 7-1 4-9 3-10 2-2 12-1 4-9 3-9 1-1 13-1 7-5z" fill="#110E10"/>
<path transform="translate(773,140)" d="m0 0 5 2 15 1 5 5 6 3 7 1 5 8 3 5 9 3 4 3 4 10 10 10h5l1 3-6 8 1 9 1 7-5 6-3 1-8-3-4 2-5-1-4-5-3-8-8-5-5-2-4-6-2-11-5-8-3-10-5-5-2-7-2-5-5-5v-2l-3-1z" fill="#100E0F"/>
<path transform="translate(453,795)" d="m0 0 7 1 16 7 12 3 4-3 4 1v2l14 2 19 7 17 8 19 11 7 4 21 2 1 3-10 2h-16l-6 4-4 5 1 2 6-4 7-2 1 4-5 3-2 1h-10l-5-5-6-9-10-9-19-11-23-11-15-6-16-5-8-1-1 7-3 5v9l3 6v5l-9 3-1 5v3l-1 4-4 3-9 4-2 3-4-1v-3l-5-2-3-3 1-4 2-3v-5l-4-6 1-3 6-3 3-9 2-4 2-1 15-2 5-5 2-6v-2z" fill="#100D0F"/>
<path transform="translate(779,554)" d="m0 0 4 1 3 6 9 6 1 1v8l-1 2v7l6 8 1 6-5 10v12l-2 7-5 5-10 7-10 2-10 8-4-1-4-9v-7l3-9-1-10 4-4v-16l1-2 9-3 2-3-1-7-2-7 9-9z" fill="#110E10"/>
<path transform="translate(372,447)" d="m0 0h1l-1 7-7 25-12 42-15 53-12 43-3 8-4-4-2-6v-10l12-56 10-48 10-47 5-3z" fill="#FDFDFC"/>
<path transform="translate(563,451)" d="m0 0 13 2 9 3 3 9 12 57 9 43 9 42v10l-3 7-3 1-5-15-12-42-11-38-7-26-14-50z" fill="#FDFDFC"/>
<path transform="translate(318,709)" d="m0 0 4 1 9 2 7-1 6-1 7 3 7 6 5 2 5-2h8l5 4 9 12 6 5 7 2-1 11 2 3 14 4 1-2 1 5-1 2-9-2h-7l-4 5-3 2-5-1-13-7h-10l-3 2-9-1-4-2v-8l1-4-5-5-9-4-3-4-1-4-8-6-2-9-4-5z" fill="#110E10"/>
<path transform="translate(27,251)" d="m0 0 3 1 1 12 4 4 8 3 2 2 1 7-1 5v9l6 4 1 2v7l-1 8 3 5h-4l-3 3h-2l-4-9v3l-5 4v8l4 14 3 1 4-5 2 1-3 6-2 3 2 9 3 9 2 2 2 17-3-3-7-21-7-18-3-3h-8l-1-3-5-1-1-2-3-1 2-1v-2l-5-2v-9h-2l-1 2-2-2v-2l6-5 1-3-5-15-1-7 1-3 7-4 1-4v-8l5-5 3-12z" fill="#110E10"/>
<path transform="translate(172,54)" d="m0 0h2l-1 8 4 2 2 3-1 4-8 12v5l5 6-5 6-6 5-1 5 1 2v10l-9 6-4 8-9 2-5 4-5 1h-11l4-7 5-9v-2l-4-4 1-6 3-5v-10l-2-3h4l5-4 4-16 3-2 9-2 5-10 6-4 5-3z" fill="#100E0F"/>
<path transform="translate(881,548)" d="m0 0h3l-1 11 5 14-5 5-7 5-3 15-11 12-3 2-9 2-5 5-2 3-6-1-5-3-5 1-4 1 2-5 4-7 5-5 6-2 13-2h7v-2l-13 1-7-1 2-5 9-9 8-5 20-5h-4-8l-1-2 2-4-6 1-5 8-10 8h-4l-3-3h-2l3 3-2 7-10 11-3 4-4-1-4-6v-3h-2l-1-4 14-7 5-13 12-3 4-5 6-11 6-1h7l10-3z" fill="#100E0F"/>
<path transform="translate(777,205)" d="m0 0 10 3 4 2 18 1 4 3-1 5-2 1-1 6 2 6-1 6-2 7 1 7h2v2l4 2 5 5-1 7-2 3v8l9 4 4 3-1 6-7 7-1 7-4-1-2-2v-18l-11-6-1-1v-14l-4-4-16-5-4-5 2-6 1-4-2-4-15-8-2-3-1-12-3-3v-3h12z" fill="#100E10"/>
<path transform="translate(17,380)" d="m0 0 2 4 4-1 4 2v2h6l2 8 2-3 4 4 9 4 1 7v15l3 6 3 3-2 2-1 3 2 6-1 5-3 4v3l-1 2 1 9 6 11 5 9 3 7v3h-2l-13-24-11-18-2-1-19-1-3-4-1-7v-3l1-5-2-5v-3h-2l-1 2-2-7v-4l-2-1 2-4 4-1 2 5 9 2-5-18-4-5-1-7z" fill="#110F11"/>
<path transform="translate(452,229)" d="m0 0h21l6 2 3 11 16 9 6 8 4 8v2h-88l7-14 4-5 9-7 5-12z" fill="#FDFDFC"/>
<path transform="translate(648)" d="m0 0h18l6 4 6 6h14l5 3 7 10 4 4 14 4 3 5 3 14v11l-7-1-6-5h-5l-5 2h-17l-2-4-4-2-6-14-8-5-2-2-3-7-7-6-7-14z" fill="#110F10"/>
<path transform="translate(40,313)" d="m0 0 3 3 2 7 4-1 1-3 8 2 5 5-5 12v10l6 10-1 10-1 7v11l2 9 3 4-5 8-2 4-2-7-4-10-2-1-12-1-3-15-3-6-7-4-1-9-6-10-6-7-5-5-5-8-1-6 3-3 2 1h2l3-1v7l-1 3 5 2-1 3 4 1 2 2 3 1 1 2h7l5 6 8 22 6 17-2-16-3-4-4-13 1-5 3-4v-3l-4 5-4-2-4-14v-8l5-5z" fill="#100D0F"/>
<path transform="translate(227,55)" d="m0 0h9l8 1-1 4-3 11-5 5-6 3-1 2v9l-1 2-9 3-5 4-3 6v5l-2 2-5-1-4-1-6 4-3 3h-9l-12 1 2-4h-2l-1-5 7-8 3-1 2-7-1-2 7-8 6-9 6-10 2-2 5 1 8 4h6l2-4 4-7z" fill="#100E0F"/>
<path transform="translate(811,443)" d="m0 0 3 1 5 9 2 1 12 1 1 1v18l2 4 8 5 1 1-1 9-2 4v9l3 9 2 1-4 9-8 1-4 5-2 6-2 21-3 9-6 7-4-1 3-14 2-23 2-8 7-5h-7l1-15 2-6 7-4 1-2-9 1-1-19-4-17 1 10-6-1 5 4 3 5v17l-2 5-2 1-4-4v-7l1-4 1-1-1-4-2-1v-4l-4-1-2 2-3-9-2-4 1-5 7-6 1-2v-8z" fill="#100E10"/>
<path transform="translate(273,126)" d="m0 0 4 2 13 17 14 19 2 7-9 8-14 9-4 3-5-1-10-14-15-20-5-8 2-1 2-4 8-7z" fill="#FDFDFC"/>
<path transform="translate(773,645)" d="m0 0 4 1 7 6h7l6-4 5 1 11 6v3l-4 5-4 7-13 4-9 12-10 5-4-1-6-4-7 1-13 11-2 1h-7l-6-4 3-3 13-7 3-5v-8l-3-9 8-7 5-3 9-3z" fill="#100E10"/>
<path transform="translate(254,9)" d="m0 0h14v7l-3 6-8 6v11l-4 5-9 6-7 1-3-1h-9l-5 4-4 6h-6l-7-3-5 2-6 8-6 11-6 8-1 2-4-1-1-3 7-9 2-3v-7l-1-4 10-4 5-5 5-16 4-5 14-1 4-4 5-9h6l2 1h6z" fill="#110E10"/>
<path transform="translate(140,645)" d="m0 0 6 3 8 7 4 2h8l7-4 5 2 7 8 4 2h6l6-3 4 1 8 16 11 4 4 5 5 9 4 5 11 6 3 8 13 8 3 6-1 4-11-13-16-8-9-6-8-10-3-6-12-12-16-4-10-4-1-5h-4l-1 3-14-1-11-4-4-4h-2v2l-3 1h-2l4 5h9v1h-6v8h-2l2 3 3-1-2-4v-3l4 1-1 4 5-1v-3l4 1v2l6 2 1-2 2 2-1 4h-2l1 4 2-2 2 5-4 1h-3l-1-2-8-1-1-4-4 1h-2l-3 1-3-7-16-5-1-1-2-13-6-5v-3l5-1h11l5-4z" fill="#110E10"/>
<path transform="translate(255,688)" d="m0 0 4 1 6 4 6 1 1-3h6l8 8 3 2h9l6 3 3 3 3 7 7 4 2 3-1 5-3 1h-1l1 6h2l-2 6 1 2 1 11 8 6 19 11v2l-7-1-16-8h-5l-2-6-10-10-9-6-5-1v-3h2l-1-4-5-5-10-11-6-2h-2l2 6-5-2-9-6-1-1 1-7 1-9-2-4z" fill="#120F11"/>
<path transform="translate(144,191)" d="m0 0 4 1 4 2h5l4-3h2v4l-4 4-1 4 1 4-1 5-2 4-8 6-3 6 3 3-1 5-6 2-4 6 2 3v5l-6 5-8 5-5 4h-3l3-10 1-3-1-2v-6l3-7-1-5-3-2-5 1h-11v-11l5-3 8-2 3-7 4-8 3-2 12-1z" fill="#100E0F"/>
<path transform="translate(126,287)" d="m0 0 14 1-3 9-1 10-4 10-4 13-8 9-9 4-9 5h-2l1-6 6-11 8-3 1-1-4-1 1-6 9-12v-3l-6 7-5 5-9 17-5 11v12l-3 4-8 1-3 3-2 3-4-1-5-1 1-2 3 1 1-2 3-21 4-9 12-11h2l2-4 3-4-1-9-2-3 1-5 1-1h7l6 1 7-4 2-5z" fill="#120F11"/>
<path transform="translate(755,55)" d="m0 0 5 2 8 4 5 6 3 7 1 1 9 1 5 5 3 10 9 6-2 4 2 13-6 6-1 6 7 10 4 8v2l-4-1-10-8h-10l-1-10-6-8-8-8 2-5v-6l-3-6-7-6v-10l-4-10-1-1z" fill="#110E10"/>
<path transform="translate(270,713)" d="m0 0 7 3 12 13v2l3 1v4h-2v3l7 1 10 8 9 9v5l5-1 19 9 4 1-3-3-21-12-4-4-1-12v-4l1-2-3-1 1-3v-3h-3l1-2 7 2 4 5 8 7 4 6 10 3 1 3v13l9 3 6 1-1 7-2 3-18-1-3-1h-3l-12-5-24-3-2-2v-6l1-2v-6l-5-5-13-4-6-4v-13l-5-8v-4z" fill="#100E0F"/>
<path transform="translate(910,504)" d="m0 0h6l1 4-4 6-1 10-4 5h-2l-2 4-3 12-3 4h-6l-6-7-7 1-10 5-10-1-5 3-6 10-5 5-8 1 1-5 3-6 1-14 3 1 1 4 17-12 3-5-1-7 5-6 3-1 8 4 8-1 6-8 4-5z" fill="#100E0F"/>
<path transform="translate(658,49)" d="m0 0h5l3 2 9 1 6 3 6 2 4 9 4 5 3 10 10 4 6 11 6 2 9 1 3 5-4 1-13-1-6-1-7-1-5-5-3-2-17-2-3-2v-9l-2-4-2-1-19-1-3-2-1-12-7-7 1-4h13z" fill="#110E10"/>
<path transform="translate(413,312)" d="m0 0h107l4 4-7 12-1 1-65-1-28 1h-15l1-10 2-6z" fill="#FDFDFC"/>
<path transform="translate(727,108)" d="m0 0 5 1-1 6 3 9 17 2 10 2 6 4 1 4h-2v7l-7-1-5-3-11-4-11-8-12-1 14 7 1 2-1 3 11 2 14 6 11 1 4 4-1 2h-12l-9-1h-8l-2-1h-12l-3 1h-7l-3-4-1-9-2-5-12-1-4-4-3-6v-2l-6-2-1-4 1-1 9-1 9-4h17z" fill="#110F10"/>
<path transform="translate(697,752)" d="m0 0h7l6 5 8 1 4-1 12 6 7 2-1 3-8 4-5 6-2 1-18 2-3 7-1 3-3 1-14-6h-8l-5 2-2 4-6 3-6-1h-13l-4-12-5-2-8-2 2-2 8-2h7l5 4 9 11 3 2-10-15-1-4 3-1h21l4 1 4 5 9 6-2-3-6-7 2-2 30-1-1-2h-16l-5-1 1-7 1-5z" fill="#110E10"/>
<path transform="translate(691,60)" d="m0 0 7 2 12 1 1-3 5 1 6 5h6l6-1 8 8 7 4 5 2v11l6 7 3 2 1 3v7l-5-3-11-13-11-11-6-2-4-2-10-6 4 5 6 3 2 5 10 4 13 13-2 4 12 4 6 8 9 8 5 9v2l-7-1-7-10-6-3-10-2-13-2-3-3 1-6v-9l-2-4-5-3-13-2-2-6-1-5-10-5-8-10z" fill="#120F11"/>
<path transform="translate(122,87)" d="m0 0h2l1 22-5 9-1 6 5 5-1 4-5 10 2 3-1 7-4 8-10 1-6 3h-2v-2h2l2-6 1-4-2-3 4-8 3-3 3-1-4-2 1-9 7-18-1-1-5 11-3 7-7 21-3 1h-3l1 4h2l1 5-3 7-5 1-1-3-4 1-4 3-2-1 2-6 1-19 5-5 8-7 2-15 3-3 7-2 5-9 8-6 2-5z" fill="#120F11"/>
<path transform="translate(434,340)" d="m0 0h54l47 4 36 6 31 7 28 8 28 11 23 10 23 13 6 4-2 1-30-15-19-8-29-11-23-7-38-9-23-4-34-4-13-1h-68l-36 3-28 4-25 5-28 7-26 8-33 13-20 9-19 10-8 5-2-1 10-7 15-9 28-13 26-10 27-9 36-9 35-6 37-4z" fill="#121011"/>
<path transform="translate(812,92)" d="m0 0 4 2 2 5 4 5 2 5 1 10 5 2 5 5v11l2 7 9 4 2 7 2 16 3 8-2 2v8l-7-6-5-6-5-12-3-2-3-9-5-13-2-7-4-12v7l7 22 5 7 1 4-5-1-5-5-5-7-6-4-2-9-5-10 1-5 5-6-2-11z" fill="#110F11"/>
<path transform="translate(813,224)" d="m0 0 6 1 3 3 5 1 3-2 5 1 4 5 4 11 3 2h10l5 5 1 18 3 4 8 3 2 3v5h-7l-5 5-5 4-3-3-4-11-1-9 4-6 1-4h-2l-2 4-4 2-5-8-5-9-6-8-2-1-2 8 5 2 7 8 6 12-1 2-8-1v-3-3h-2l-1 8 1 4-2 5-10-5-1-5 4-8-1-5-5-6-6-5-1-3 2-6v-10z" fill="#110E10"/>
<path transform="translate(81,566)" d="m0 0 5 1 4 5 4 6 2 1h11l5 3 6 18 4 3 8 3 4 9 2 6 4 5 6 5 7 10 7 7 2 1v3l-5-1-6-5v-2l-15-6-3-9-8-10-9-6-8-7-2-13-1 11-5-1-12-7-2-4-2-6-2-1 1 2v6l-6-1-11-6-2-3-1-9h6l1-4 8-2z" fill="#110E10"/>
<path transform="translate(455,37)" d="m0 0h8l9 4 7 8 1 3v15l-4 6-8 7-7 2-10-1-8-5-4-5-3-7v-8l3-9 8-7z" fill="#110E10"/>
<path transform="translate(123,445)" d="m0 0 2 1v8l3 7 3 9-1 3v12l4 8-1 7-6 13v6l5 6 1 3-2 7-3 9 1 13-1 3v18l-1 2h-2l-1-4-2-22-2-8v-9l4-1v-2l-4 1-2-4-2-10v-13l2-3v-3l-2-1-1-3v-16l1-4h2v-9l5 2 1-4-6 1-7 3 1 5-5-1-2-8-1-2 6-14z" fill="#100E10"/>
<path transform="translate(310,192)" d="m0 0 5 5 13 18 15 20 14 19 10 13v3l-22-1-4-6-13-18-14-19-8-11-9-13 5-4z" fill="#FDFDFC"/>
<path transform="translate(215,114)" d="m0 0 5 1 8 4-2 4-5 3-3 5-6 5-5 2-2 2-1 7-9 3-11 9h-4l-3-3-5-1-6 3-6 5h-3l2-4 5-5 6-4 9-8 7-3 5-1 2-4 15-7 5-2-12 2-4 1-4 4-9 4h-5v-3l-2 1-1 5-7 8-6 5h-2l2-8 1-9-7-1 3-5 9-6 5-1h19v-2h2l2-4 14 1z" fill="#110E10"/>
<path transform="translate(926,449)" d="m0 0 4 2-1 5-3 6-1 6v7l-3 5-6 5-3 7-3 8-3 1-12 1-6 5-4 6-5 1-7-4h-7l-5 6-6 9-2 1h-6l2-5 4-7h2l2-5 4-5 9-5 11-4 9-10 13-7 5-6 2-6-3-7v-3l13-3z" fill="#100D0F"/>
<path transform="translate(82,170)" d="m0 0 3 1-3 6v17l-3 9 6 10-3 7-5 8v6l10 10v3l-5 5-3 9-12 1-3 3-2 5h-2v-12l5-3 1-3-7 1-1-1v-16l3-8 4-3 1-3h-4l1-10 7-18 2-15 3-5z" fill="#110E10"/>
<path transform="translate(572,312)" d="m0 0h56l-3 5-12 13-5 6-7 7-12-2-31-6-1-2 10-15z" fill="#FDFDFC"/>
<path transform="translate(660,620)" d="m0 0 6 1 2 2v10l-5 9-9 10-9 8-12 7-7 2h-7l-3-2v-9l5-10 10-12 12-9 10-5z" fill="#FDFDFC"/>
<path transform="translate(231,408)" d="m0 0 4 2 10 8 26 20 6 4h6v2l-13 7-5 3h-2v-8l-4-2-4-1-6 12h-9l-7-1v10l9 1-1 2-16 8 2-9 3-48z" fill="#100E0F"/>
<path transform="translate(12,483)" d="m0 0 2 4v2l4 1 3 3v5l5 2 1 5 4 2 2 3h5l4 10 19 19 3 1v-5l3-1 1 9 12 12-2 1-16-11-9-2v4h-2l-1 2-7-2-1-4-4-1-1 6h-2l-1 2-4-12-7-6-6-4-3-5v-15l-4-8z" fill="#120F11"/>
<path transform="translate(425,356)" d="m0 0h19l11 9 23 23 2 1-1-5-1-24-4-2-1-2h19v2l-6 3v51l-6-5-7-8-2-4-3-1-7-8-12-11-5-4-4-4v28l1 9 5 5h-21l4-2h2v-46l-7-2-3-2z" fill="#100D0F"/>
<path transform="translate(364,366)" d="m0 0 4 2 11 14 14 17 8 9 5 2-1 2-21 5 2-6-4-7h-3l-8 10-7-1-10-4-1 9 8 4v1l-15 2-3 1 2-5 13-38 5-16z" fill="#100E10"/>
<path transform="translate(426,803)" d="m0 0h17l-1 3-16 2-5 5-4 7-8 3-14 10-8 7-8 11-4-2-4-1 3 7-1 9-2 4-5-1-13-13-4-7v-3l11-5 7-3 14-14 3-4 4 2 3 2h11l4-2 2-4 5-8 8-4z" fill="#110E10"/>
<path transform="translate(253,754)" d="m0 0h5l5 1 9 4v4h-2l2 9 16 4-3-8 1-3 6 7 1 4 4 2 24 1v3l-14 3-3 4h-2l-2-5-14-4h-6l-1 3-8 7-7 6 2-5 6-5 3-5-1-3-8-1h-11l-10 4-5 3h-2l-2-2-4-1-3 2-1-2h-4l1 2-5-1-4-3 3-7 10-3h2v-2h2v-5l5-3v5l2 2 1-5 4 2 1-3 1 2 3 1v-2l-4-3z" fill="#1C1B1C"/>
<path transform="translate(452,801)" d="m0 0 2 1-1 6-3 5v9l3 6v5l-9 3-1 5v3l-1 4-4 3-9 4-2 3-4-1v-3l-5-2-3-3 1-4 2-3v-5l-4-6 1-3 6-3 3-9 2-4 2-1 15-2 8-7z" fill="#110E10"/>
<path transform="translate(450,420)" d="m0 0h25l36 3 26 4 26 5 30 8 30 10 28 11 17 8 16 9-2 1-27-13-33-13-31-10-32-8-36-6-24-3-15-1h-48l-23 2-31 4-34 7-22 6-29 10-21 9-16 8-6 2 4-4 25-13 23-9 24-8 30-8 41-7 30-3z" fill="#131112"/>
<path transform="translate(313,312)" d="m0 0h58l1 1-1 12-2 9-5 2-26 5-5-4-7-8-12-13z" fill="#FDFDFC"/>
<path transform="translate(815,384)" d="m0 0 3 3 1 4 4 3 10 3 6 5 2 10v8l-1 1h-11l10 4 2 3v21l7-5 3 16 1 3v9l-5 4-6-1-2-4-1-16-3-4v-7l-3-7-7-8-6-5-2-6 3-9-1-6-7-7-2-3 1-6z" fill="#100E10"/>
<path transform="translate(327,373)" d="m0 0h2v2l-4 4-5 52-2 3-5-1-12-9-13-11-14-11-7-5-4-2 24-8 2 1-4 5 11 11 11 9 5 4 2-21 1-17-6 1 1-2z" fill="#100D0F"/>
<path transform="translate(591,373)" d="m0 0 11 3 35 9 2 1-3 10-1 2h-2l-4-9-9-4-11-3-5 13-1 5 9 1 8 3-1 10-8-8-10-3-3 11-2 11 19 2 13-3 7-3-2 5-8 8-1 2-8-1-37-10-4-3h5l3-4 11-33 1-9-4-2z" fill="#110E10"/>
<path transform="translate(434,654)" d="m0 0h8l8 4 4 5 1 5-5 8-5 1 3 3 6 5 2 4-1 6-5 6-7 3h-5l4-6 1-12-1-5-2-1h-11l-2 8v9l7 7-9-2-6-4-3-3-1-6 3-7 5-3 5-2-7-7-1-6 6-8z" fill="#121011"/>
<path transform="translate(557,581)" d="m0 0 7 1 3 5-1 1h-184l2-5 1-1z" fill="#FDFDFC"/>
<path transform="translate(665,398)" d="m0 0 6 2 35 16 5 2-1 3-26 12-22 11-1 3 17 7 6 1h13l5-2-2 4-7 7-1 2-5-1-34-16-10-5 3-3 42-21 5-2h3l-2-3-16-6-10-1-5 2h-3z" fill="#100E10"/>
<path transform="translate(400,558)" d="m0 0h149l4 4-1 3h-156z" fill="#FDFDFC"/>
<path transform="translate(545,569)" d="m0 0h9l5 2 3 5-10 1h-163l2-5 1-2z" fill="#FDFDFC"/>
<path transform="translate(774,153)" d="m0 0 2 1 1 9 3 3 5 4 1 6-1 6-6-3v-2l-4-2v-5l-2 1-1 3-9-3-13-2-1 2 3-1 14 5 7 3 9 8 5 2 3-3 3 9v2l-5-1-4-2h-15l-8-9-6-2-3 2-5-1-1-11-9-3v-2l12-5 4-6 6 1 4 1 10-4z" fill="#110E10"/>
<path transform="translate(17,392)" d="m0 0 4 2 5 17 4 11 2 3 4-2h3l-4 6 2 9 8 16 8-2-2 4 1 9 6 11 5 9 3 7v3h-2l-13-24-11-18-2-1-19-1-3-4-1-7v-3l1-5-2-5v-3h-2l-1 2-2-7v-4l-2-1 2-4 4-1 2 5 9 2-5-18-2-2z" fill="#1C1A1C"/>
<path transform="translate(155,706)" d="m0 0 2 1-1 3 2 1 3 2v3l-5 1-1 4 11-2-1-6 3 1v2l7 2h21l3 1-1-6 4 2 7 4 13 2 4-2 5 4 19 8 3 4-6-1-8-3-16-4-5 3-4 6-2-1 2-6 2-5-12-1-5-1-6 2-5 7-3-1 3-8-24 1-4 2 1 2h7l-3 3v5h6l2 5-2 2-5-3-1-2-1 6-3-4-6-1h-15l-4-4-2-8 2-1v-3l2-2 2-5 3-1 1 5 3 8 4 1-2-5 1-4h2l2-5 2-1-1-4h-2v-2z" fill="#1C1B1C"/>
<path transform="translate(530,360)" d="m0 0h13l17 4 3 3v15l-3-4-4-8-4-3-8-2h-8l-8 4-5 7-2 6v16l4 8 7 5 3 1h9l9-4 10-7h2l-1 4-8 7-10 4-5 1h-10l-9-3-6-4-7-8-3-10 1-11 5-10 9-8z" fill="#110E10"/>
<path transform="translate(648)" d="m0 0h18l6 4 3 4-3 1-1 3 1 4-1 2 7-2 1 5 3-1 5 5 8 4 3 7 10 13v2l-4-2-7-4-1 3h-5v-5h-3l-1-3h-2v3l-4 1-1-3-1 3-3-7-8-5-2-2-3-7-7-6-7-14z" fill="#120F11"/>
<path transform="translate(662,60)" d="m0 0 5 1 5 3 7 2-1-2 5 1 3 5 7 5v3l2 1v-5h1l2 7 10 4 6 11 6 2 9 1 3 5-4 1-13-1-6-1-7-1-5-5-3-2-17-2-3-2 1-11 3-6h2l-4-4-10-2-4-5z" fill="#110F10"/>
<path transform="translate(263,57)" d="m0 0h5l3 1 4-1-2 5-4 2 1 7v4l-1 1-13 2-4 4 1 9-1 3-6 2-13 1-2 4-5 9-4 1-7-3 1-5 5-4 10-5 2-2v-8l5-5 5-3 3-5 1-7 9-3z" fill="#110F10"/>
<path transform="translate(280,239)" d="m0 0 11 1 8 4 4-1 3-3 7-1 6 2 2 5-6 2-4 1v-1h-8l-3 1 26 1 3 4v3l-38 1-19-1-4-4 2-5-3-2 4-5z" fill="#1C1A1B"/>
<path transform="translate(392,786)" d="m0 0h12v7l-2 8v5l2 1-1-4 5-16 1-1h14l9 2-1 4-10 6-9 4-5 5-7 9-7-1-9-6 2-2 2-3-4 1-2-1 1-2 4 1v-2l3-2v-4l-6 1-1-4 1-4 1-1z" fill="#100D0F"/>
<path transform="translate(405,593)" d="m0 0h123l-4 3-13 4h-86l-10-2-10-3z" fill="#FDFDFC"/>
<path transform="translate(762,698)" d="m0 0 1 3-3 8 25-2 2-1 3-6 3 1-2 7 5 1v1l-11 2 4 8-6-2-6-4v-2l-23 4-4 2 8 6 5 3v2l-9-3-12-6-15 5-7 2 1 4 6 3 5 4-1 2-16-7-6 1-13 5-14 1-1-3 16-3 16-7 5-5 3-15 2-2v16l24-9 8-2 5-10z" fill="#FDFDFC"/>
<path transform="translate(164,722)" d="m0 0h24l-1 6-1 2-6-1-2 2h6l3 2v2l-5 1v2l4 2 4 6 4 1 3-2 11 3 4 1 1-2 7-1 10 1v1l-5 1-3 3-7 1h-12l-7 1-7-4-10-1-11 1-4-3 1-10 2 1 1 2h4l-3-4-4-1-1-5 2-2h-5l-2-3z" fill="#100E0F"/>
<path transform="translate(468,808)" d="m0 0 9 3 8 4 3 4 1 3h2l2-3 5 2 8 9h2l2-4 14 8 3 4-6 6-1 7-4-1-6-4h-6l-10-10-3-1-5-1-2-10-5-5-9-6-2-2z" fill="#110E10"/>
<path transform="translate(173,160)" d="m0 0h3l2 6 7-1 4-1 7 4-2 4-6 8-5 5-9 10-5 2-1-1-1-8-3-2v-2h-3l-2 4h-7l-7-2 5-5 5 1h15l5-3 8-4 1-2-9 4-4-1v-6l-2-1-2 9-5 2h-6l-1-3 3-4-1-5 10-4z" fill="#110E10"/>
<path transform="translate(396,565)" d="m0 0h117v1h33l9 1 3 3h-165z" fill="#1C1B1C"/>
<path transform="translate(566,769)" d="m0 0 1 2-5 10 26 3h7l8-7h2l-2 4-5 6 14 3 6 2 7 1 1-5 1 4 1 3 9 3v1h-8l-8-2-1 3 4 1v2l-6-1-5-6-15-5-12-2 4 11 3 6-1 2-5-6-8-14-19-2h-11l-3 1 1 9 3 6-1 3-6-9-4-8h-9l-13 1 3-4 18-3 20-2 5-8z" fill="#FCFCFB"/>
<path transform="translate(484,655)" d="m0 0h10l6 3 4 5 1 7-3 9-7 9-8 6-1 2 19-3 6-6v14l-1 1-36 3h-2l1-4 7-5 7-8 4-6 1-3v-12l-3-7-4-2-6 1-5 2 4-4z" fill="#110F10"/>
<path transform="translate(905,393)" d="m0 0h2l-1 5h4l-2 4-5 8-8 20 9-2h6l-1 2-12 4-6 4-15 25-3 6h11v2l-17 6-6 10-6 13h-3v-6l9-17 6-10 1-5-5-10h3l4 5 4-1 6-9 2-4v-7l-4-9-1-3 4 2 5 8h2l2-5 6-12 6-17z" fill="#FDFDFC"/>
<path transform="translate(814,334)" d="m0 0 4 4 6 15 5 13v2l4-1 4-10 2 1v5l-5 8 1 8 4 8 3 1 8-8h2v2l-6 5-4 7 4 24 11-7 2 1-13 13-1 3-2 21-2 2-1-2v-21l-1-3-10-3-1-2h12v-8l-2-10-5-4-9-4v-1h11l-5-15-4-10-3-4-9-2-1-2h9l-2-9-6-15z" fill="#FDFDFC"/>
<path transform="translate(736,614)" d="m0 0 1 3-2 10 8-4-1 4-6 5-5 13-2 6 7-2h6v2l-13 5-4 6-8 17h13l5-1-4 4-14 4-7 4-10 13-5 7-5 2 4-8 9-13 10-16 2-4v-7l-7-10v-2l4 2 6 7 4-4 6-15v-10l-3-3v-5l3 4v2l4-4 3-10z" fill="#FDFDFC"/>
<path transform="translate(227,754)" d="m0 0 9 2 5 2 9 2v4l-7-1-1-1-2 5-2-1-1-6-3 2-1 5h-2v2l-9 3h-3l-1 6-1 1 4 3 2-1 5-1 2 1 2-1 6 2v1l-6 2v2h3l1-2-1 4h2v4 3l-12 1-5-5-3-6-5-4-10-3-2-2v-4l2-1 14-1 5-2 3-13z" fill="#100D0F"/>
<path transform="translate(398,648)" d="m0 0 2 2-4 16-4 23 1 6 3 3-8-1-15-2-3-2 7-2 3-8 5-27-10-2 2-2 16-2z" fill="#110E10"/>
<path transform="translate(256,488)" d="m0 0h80v6l-1 1h-87l2-4z" fill="#FDFDFC"/>
<path transform="translate(695,756)" d="m0 0h3l-3 11h21l2 3-1 1-30 1v4l4 2 4 6-6-2-9-8v-2h-28l4 7 8 12-1 2-12-13-5-5h-7l-11 2 1-3 18-6 15-2 5-1 2-8h4l-2 9h20l2-6z" fill="#FDFDFC"/>
<path transform="translate(386,780)" d="m0 0 8 1h31l7 4v2l-6-1h-14l-3 1-5 17v3l-3-1 1-10 2-10-19 2-11 4h-2l-2 5-7 12-1-3 4-11-14 5-10 6-5 5-10 3-7 2v-2l27-14 2-1v-6l5-1 8-1 10-4 11-4z" fill="#FDFDFC"/>
<path transform="translate(608,499)" d="m0 0h73v4l-4 4-23-1-4-1-4 2h-43l-2-3v-4z" fill="#FDFDFC"/>
<path transform="translate(251,172)" d="m0 0h2l5 8v2l-18 11-18 12-20 13-4-1-1-3 9-8 11-8 13-10 14-10z" fill="#FDFDFC"/>
<path transform="translate(599,488)" d="m0 0h78l8 5-1 2h-84z" fill="#FDFDFC"/>
<path transform="translate(868,566)" d="m0 0 2 1-3 5h8l6-1-2 3-20 5-9 6-7 7-3 5h20v2l-24 4-4 2-5 7-5 9-9 12-6 7h-2l1-5 11-15 3-6-1-9-3-6v-2h2l5 8 4-1 7-8 5-7 1-5-3-3 1-2 5 3v2l5-2 10-8 4-7z" fill="#FDFDFC"/>
<path transform="translate(817,460)" d="m0 0 2 1 4 17v19l9-1-1 3-7 4-3 20 2-1h6l-8 8-2 20-3 19-3 7-3 4-3-1 3-7 2-5 1-7 1-19-3-5-7-5 3-1 8 3 2-19-1-9-5-6 4 1 3 1 2-5v-17l-3-5-5-3 1-2 6 2-2-7z" fill="#FDFDFC"/>
<path transform="translate(660,694)" d="m0 0 8 4 4-1 6-1v3l-7 8-6 11v4l11-1-1 3-6 2-11 2-16 16 1 3 10 2-1 2h-11l-7-1-19 8-7 2h-6l3-3 10-4 9-4 11-6 4-6h-2l-1-4h4l2 3 8-6 7-8 6-9 1-2v-9l-2-5z" fill="#FDFDFC"/>
<path transform="translate(511,443)" d="m0 0h10l22 3 5 2v2l-8 7-7 7h-2l-2 4-3 2-6-7-9-13-1-6z" fill="#FDFDFC"/>
<path transform="translate(629,708)" d="m0 0h2l-1 3-6 3-1 2h8l-1 3h-7l-1-4-16 5-12 6 9 9-5-1-5-2h-7l-10 7-4 4-1 4 11 3 4 4-16-3-4-1-6 4-7 7-11 6v-3l5-4 8-7 4-5 2-12 2 2 1 3 4-2 13-10 11-7 2-2 16-6 15-5z" fill="#FDFDFC"/>
<path transform="translate(274,748)" d="m0 0 5 1 10 4 2 4 2 13 1 2-4-1-4-5 2 6v4l-9-1-7-3-2-9h2v-2l-2-1 1-1-8-3-8-1v-3l3-2 15 1z" fill="#110E10"/>
<path transform="translate(39,574)" d="m0 0 6 2 16 6v-4h2l3 7 14 7 3 1-1-8 3 1 2 6 2 4 16 8-1-5 1-8 2 2 2 13 9 8 9 6 8 10 1 6-5-5-1-3-4-2-6-5-4-1-4 3h-4l1-3 5-1-5-6-11-7-10-5-7 1-1 1h-6l3-3h3l-1-4-36-18z" fill="#FDFDFC"/>
<path transform="translate(838,659)" d="m0 0 1 2 4-1v5l-5 5-21 4-5 2-2 4-7 9-4 3-4-1-5-2-11 7-5-1-1-3 9-2 6-4h2l2-5 7-5 9-3 7-8 5 1 5-2 10-2z" fill="#110E10"/>
<path transform="translate(902,291)" d="m0 0h1l-1 9-3 13-2 12 10-3-2 4-7 5-2 8-2 18 7-5 3 1-12 12-11 20-6 8-3 1 2-6 7-12 5-13v-8l-3-3 1-3 5 2 3-16v-10l-7-8v-2l5 2 5 3 1-11 2-9z" fill="#FDFDFC"/>
<path transform="translate(829,240)" d="m0 0 4 2 6 8 7 14h4l3-4h2l-1 5-3 5 1 9 5 13 5-3 4-5 4-1-2 4-7 8-2 3 1 30-3-3-2-13-5-4-2-1v-2l6-1-4-18-4-9-6-3 4-4-6-12-6-7-5-2v-3z" fill="#FDFDFC"/>
<path transform="translate(199,721)" d="m0 0 17 3-1 5-2 6 3-2v4l-2 1 2 3-2 2-10-1v-2l-9 1-2-2h-3l-5 1-3-2v-2h2l1-2 2 1-2-2-7-1v-3l3-1 7 3 2-4 4-5z" fill="#120F11"/>
<path transform="translate(285,765)" d="m0 0 7 7 1 4 4 2 24 1v3l-14 3-3 4h-2l-2-5-14-4h-6l-1 3-8 7-7 6 2-5 6-5 3-5-1-3-8-1h-11l-10 4-5 3-2-1 4-6 1-5 5-1 4 1h15l1-6h3l1 6 16 4-3-8z" fill="#FDFDFC"/>
<path transform="translate(380,312)" d="m0 0h24l-1 11-2 7-9 2-17 1 4-20z" fill="#FDFDFC"/>
<path transform="translate(423,422)" d="m0 0h6l-1 3-46 6-34 7-22 6-29 10-21 9-16 8-6 2 4-4 25-13 23-9 24-8 30-8 41-7z" fill="#131012"/>
<path transform="translate(541,647)" d="m0 0 8 1 9 6 4 8 1 3v12l-4 9-4 5-8 5-5 2-4-1 8-5 4-5 1-2v-9l-3-16-5-10z" fill="#100D0F"/>
<path transform="translate(43,420)" d="m0 0 5 2 4 2 3 5 2 2-2 2-1 3 2 6-1 5-6 7-4 1-10-19-1-7 5-5h3v-2l-2-1z" fill="#100E0F"/>
<path transform="translate(665,11)" d="m0 0 2 1v2l3 1-1 3 5-1 4-1 1 5 3-1 5 5 8 4 3 7 10 13v2l-4-2-7-4-1 3h-5v-5h-3l-1-3-4-2-4-1-4-4v-2l-2-2 1-3-4-4-4-2 1-1h-1z" fill="#1C1B1C"/>
<path transform="translate(165,713)" d="m0 0 3 1v2l7 2h21l3 1-1-6 4 2 7 4 13 2 4-2 5 4 19 8 3 4-6-1-8-3-16-4-5 3-4 6-2-1 2-6 2-5-12-1-5-1-6 2-5 7-3-1 3-8-24 1-8 1 2-4 8-1z" fill="#FDFDFC"/>
<path transform="translate(258,180)" d="m0 0 3 1 3 6v3h-9l-20 12-10 7-22 14-5 1-6-5-1-5 7-8 2 1-4 5 2 2 1 3 5-1 15-10 29-19 8-5h2z" fill="#110F11"/>
<path transform="translate(144,155)" d="m0 0 1 3-7 9-2 4 3 3-8 4-6 4 1 6-10 4-9 10-6 10-4 6-3 8-5 4 1-5 4-9 3-7-1-13 3 1 1 4 8-7 1-7v-4l4 2 4-1 5-4h2l2-4 3-5-1-10h3l1 4 6-3z" fill="#FDFDFC"/>
<path transform="translate(280,476)" d="m0 0h59l-1 6-1 1h-69l3-3z" fill="#FDFDFC"/>
<path transform="translate(602,202)" d="m0 0 1 2-6 7h-68l-1-6 7-1h46l8 2 1 1h6z" fill="#FDFDFC"/>
<path transform="translate(17,392)" d="m0 0 4 2 5 17 4 11 2 3 4-2h3l-4 6 2 9 8 16 8-2-2 4 1 9 6 11 5 9 3 7v3h-2l-13-24-11-18-10-2v-2l6-1-4-10-6-14-2-3-6-2v-2l5-1-4-18-2-2z" fill="#FDFDFC"/>
<path transform="translate(281,262)" d="m0 0h53l5 6v1l-13 1h-45l-1-1v-6z" fill="#FDFDFC"/>
<path transform="translate(544,732)" d="m0 0h3v13l-4 9-4 5-12 6h-6l-1-1v-5l10-9 3-11 5-3z" fill="#110E10"/>
<path transform="translate(225,346)" d="m0 0h57l3 1 2 5-5 1h-57l-1-1v-5z" fill="#FDFDFC"/>
<path transform="translate(597,476)" d="m0 0h53l10 4v3h-62l-2-2z" fill="#FDFDFC"/>
<path transform="translate(264,701)" d="m0 0 7 6 7 8 8 7 3 3 3 1 1-3 3 10 10 10 5 3-1-9h3l2 12 5 6 21 12 3 2v2l-7-1-16-8h-5l-2-6-10-10-9-6-5-1v-3h2l-1-4-5-5-10-11-7-4-5-9z" fill="#FDFDFC"/>
<path transform="translate(863,526)" d="m0 0 2 4-5 6-13 9-3 1-2-4-2-1v14l-6 12-3 3-3-1 3-10 2-9 2-14 2-4 19-1 3-1z" fill="#110E10"/>
<path transform="translate(507,743)" d="m0 0 10 1 3 2-15 4-5 3-7 10-1 3 16 3-1 2h-19l-8 7-3 3h-2l5 6 3 2v2l-4-1-7-3-6 1-6 2 2-5 6-4-3-6 1-3 5 5h4l7-8 2-3-1-4-1-2 6 1 3-1 2-4 8-9z" fill="#FDFDFC"/>
<path transform="translate(81,566)" d="m0 0 5 1 3 3-1 3-3-2-3 1 4 1 2 2 3 2v2l-1 5h-3l1-4-3 1h-3l-1 3 1 8-7-1-10-6-2-8v-3h6l1-4 8-2z" fill="#100D0F"/>
<path transform="translate(532,216)" d="m0 0h60l-1 5-2 2h-56l-1-1z" fill="#FDFDFC"/>
<path transform="translate(443,656)" d="m0 0 6 1 5 6 1 5-5 8-5 1 3 3 6 5 2 4-1 6-5 6-7 3h-5l4-6 1-12-1-5-3-2-5-1 3-2 6-2 3-6v-6z" fill="#110E10"/>
<path transform="translate(898,513)" d="m0 0 1 4-8 10-16 5-9 5-3 4 8-1v3l-9 2v-3l-10 4-5 4-6 9-4 2 2-6 1-14 3 1 1 4 17-12 3-5v-3h3v3l9-2 12-5 8-7z" fill="#FCFCFB"/>
<path transform="translate(281,499)" d="m0 0h43l10 1-1 6-1 1h-46l-5-5z" fill="#FDFDFC"/>
<path transform="translate(25,289)" d="m0 0h1l4 16 3 11 6-1-3 4v10l4 14 3 1 4-5 2 1-3 6-2 3 2 9 3 9 2 2 2 17-3-3-7-21-7-18-4-4-4-1v-2l4-1-1-9-2-7-2-11-2-5z" fill="#FDFDFC"/>
<path transform="translate(658,261)" d="m0 0 2 1-5 6-2 1h-52l2-4 2-3z" fill="#FDFDFC"/>
<path transform="translate(337,216)" d="m0 0h55v6l-1 1h-50l-4-4z" fill="#FDFDFC"/>
<path transform="translate(511,797)" d="m0 0h8l10 4 18 14 4 2-1 3-7-1-22-10-18-6v-3z" fill="#110F10"/>
<path transform="translate(347,204)" d="m0 0h47l1 3-2 4h-56l5-5z" fill="#FDFDFC"/>
<path transform="translate(770,653)" d="m0 0 2 2v7l23-5 4-1-2 5-2 2-16 2-10 4-4 4v2l6 3 6 5-2 1-12-5-6 2-12 12-4 1 1-4h2l2-4 9-11 5-4 7-8z" fill="#FDFDFC"/>
<path transform="translate(454,438)" d="m0 0h5l7 8 2 4-5 5-7 9-4-2-9-10 1-5h2l2-4z" fill="#FDFDFC"/>
<path transform="translate(829,251)" d="m0 0 5 1 6 8 5 10-1 2-8-1v-3-3h-2l-1 8 1 4-2 5-10-5-1-5 4-8-1-8 3 2-1-5 3-1z" fill="#100E0F"/>
<path transform="translate(659,346)" d="m0 0h47l1 1v6h-54v-3l3-3z" fill="#FDFDFC"/>
<path transform="translate(54,585)" d="m0 0 9 2 16 8 1 5-7 2-2 5-7 1-3-2v-2l-4-2-3-7-2-4-2-2h2v-3z" fill="#100E10"/>
<path transform="translate(106,370)" d="m0 0h1l-1 9-8 24 3-1 4 2-9 5-6 22v6h2l-2 4-2 3v15l-2 2-1-5-1-28-3-4 1-3 3 3h2l4-16-4-5v-3l8 1 4-14v-5l4-1z" fill="#FDFDFC"/>
<path transform="translate(95,260)" d="m0 0h5l-8 16-3 7h6l-4 4-6 2-7 14-1 8 4 2v2l-5 2-4 9h-1l-1-8-1-9-4-5v-2l7 2 4-10-2-9h8l8-13 2-4 2-7z" fill="#FDFDFC"/>
<path transform="translate(863,192)" d="m0 0 4 2 2 14 3 8 4-1 3-2-1 5-4 2 2 25 7-1v3l-4 2-1 11v3h-4l-1-13-2-15-5-2-7-3v-1h7l4 1-4-18-5-2v-3h3z" fill="#FDFDFC"/>
<path transform="translate(613,251)" d="m0 0h55v4l-5 3h-15l-38-1 2-5z" fill="#FDFDFC"/>
<path transform="translate(269,251)" d="m0 0h58l2 3v3l-38 1-19-1-4-4z" fill="#FDFDFC"/>
<path transform="translate(358,840)" d="m0 0 4 1 4 2-4 5 2 5 2 1 1-2-4-1 4-1 2-2 1 3h2l2 4-1 9-2 4-5-1-13-13-4-7v-3z" fill="#110E10"/>
<path transform="translate(523,180)" d="m0 0h14l8 1h28l-1 6-1 1h-46l-2-4z" fill="#FDFDFC"/>
<path transform="translate(291,522)" d="m0 0h37l1 3-2 5h-46l4-6z" fill="#FDFDFC"/>
<path transform="translate(231,333)" d="m0 0h16l-3 2-4 2h-15v3h52l2 5 3 1-58 1v-11z" fill="#1D1C1D"/>
<path transform="translate(30,273)" d="m0 0 5 2 2 11v3l1 7 1 1v5l-6 2-2-1v6l-2-4-3-11-2 2-2-14 4-8z" fill="#1C1B1C"/>
<path transform="translate(534,648)" d="m0 0 3 1-3 4 1 8 4 11 5 4 2 1-1 3h-8l-8-3-5-6-1-2v-9l3-6 6-5z" fill="#100D0F"/>
<path transform="translate(534,228)" d="m0 0h50l-1 5-3 2h-44l-2-3z" fill="#FDFDFC"/>
<path transform="translate(732,124)" d="m0 0 10 1 16 2 8 4 2 2v3h-2v7l-7-1-5-3-11-4-12-9z" fill="#110E10"/>
<path transform="translate(23,501)" d="m0 0 4 2v2l4 2 2 3h5l4 10 19 19 3 1v-5l3-1 1 9 12 12-2 1-16-11-9-3-2-6-6-6v-2l-12-6 1-2h2v-4h-2l-11-14z" fill="#FDFDFC"/>
<path transform="translate(526,193)" d="m0 0h44l5 5-1 2h-47z" fill="#FDFDFC"/>
<path transform="translate(289,511)" d="m0 0h43l-1 7-1 1h-36l-3-1z" fill="#FDFDFC"/>
<path transform="translate(423,566)" d="m0 0h79l2 3-1 1h-82z" fill="#171516"/>
<path transform="translate(393,180)" d="m0 0h6v7l-2 1h-48l-3-7h26l5 3 9-2z" fill="#FDFDFC"/>
<path transform="translate(776,577)" d="m0 0h6l2 3 1 21h6l-1 2-7 3-5 10-4 10h6l-1 2-13 6-5 5-1-2 9-13 4-9v-5l5-6 2-8v-11z" fill="#FDFDFC"/>
<path transform="translate(411,544)" d="m0 0 10 3 11 5 1 4 2 1 1-2v2h12v1h-47l4-8z" fill="#1C1B1C"/>
<path transform="translate(378,192)" d="m0 0h17l2 1-1 6-10 1h-33l-2-2v-5z" fill="#FDFDFC"/>
<path transform="translate(83,600)" d="m0 0 7 1 13 7 9 7 2 4-6 1-2-1-1 2v-3l-5 2-3-9v-3l-4 1 2 5 2 2-4 2-1-3-3-2-3 1 1-4h-2l-1-3-6 2-1-1v-5z" fill="#110E10"/>
<path transform="translate(341,721)" d="m0 0 5 1 7 1 2-1 3 5 9 6 10 6h3l1-6 2 2 1 8 1 3h2v2l4 2 12 9-4 1-11-7-8-2-6 3-3-1 8-6-5-5-9-6-9-1h-2l1-6-5-2-9-5z" fill="#FDFDFC"/>
<path transform="translate(853,627)" d="m0 0 5 1-2 4-5 5-2 3 9-1v2l-3 2-10 1-5 4-5 7-3 2v3l4 2-3 2-11 2-3 1 2-5 7-6 3-4-1-9-1-3v-7l2-1 2 8 2 4 4-1 12-12z" fill="#FDFDFC"/>
<path transform="translate(454,44)" d="m0 0h12l1 5-11 10-8 7h-4l-1-2v-10l5-7z" fill="#FDFDFC"/>
<path transform="translate(299,534)" d="m0 0 27 1v5l-1 1h-13l-4-1-3 1h-29l-1-1v-5z" fill="#FDFDFC"/>
<path transform="translate(469,52)" d="m0 0 5 1v11l-4 7-7 4h-10l-3-2 1-4 11-9z" fill="#FDFDFC"/>
<path transform="translate(134,659)" d="m0 0h5l1 2-2 1 5 6h9v1h-6v8h-2l2 3 3-1-2-4v-3l4 1-1 4 5-1v-3l4 1v2l6 2 1-2 2 2-1 4h-2l1 4 2-2 2 5-4 1h-3l-1-2-8-1-1-4-4 1h-2l-3 1-3-7-2-2h3l-1-4-1-1v-5l-3 1v-2l-2-1v-3z" fill="#1B1A1B"/>
<path transform="translate(345,228)" d="m0 0h44l1 2-1 4-7 1h-32l-5-5z" fill="#FDFDFC"/>
<path transform="translate(230,64)" d="m0 0 3 1-11 8-9 7-2 4 1 3h-6l-8 5-5 8-9 6-6 5h-3l2-4 5-5 9-10 6-7v-5h2l1 2 4-1 11-7z" fill="#FDFDFC"/>
<path transform="translate(530,787)" d="m0 0h9l9 16 2 7-5-2-16-11-9-4-3-2v-2z" fill="#110E10"/>
<path transform="translate(798,159)" d="m0 0 5 3 5 5 9 13v2l3-2h3l1 10 4 11v3l7-1-3 6-1 11-2-3-6-16-4-2-3-2 1-2h2l-1-6-4-6-5-5-4-8-4-5-3-4z" fill="#FDFDFC"/>
<path transform="translate(162,72)" d="m0 0 1 3-5 10-4 10h6l-4 4-3 1-8 16-1 5h9l-4 3-6 3-3 3-3 7-4 2 2-6 4-10 3-14 5-8 2-5 1-7 5-4 6-12z" fill="#FDFDFC"/>
<path transform="translate(436,655)" d="m0 0 7 1 4 6-1 9-4 5-8 1-3-3-1-9 4-8z" fill="#FDFDFC"/>
<path transform="translate(685,39)" d="m0 0 3 1v3h3l1 4h4l1-2 4 1 4 3v3h4v4l-4 1h-17l-2-4-4-2-2-4v-6l2 1-1 2 3-2z" fill="#100D0F"/>
<path transform="translate(408,475)" d="m0 0 4 1-2 5-4 2h-36l1-5 1-2z" fill="#FDFDFC"/>
<path transform="translate(672,8)" d="m0 0 5 1 1 1h14l3 1 1 6-2 1 2 3-1 3-4-1v5l-4-2-7-6-1 3-1-4v-2l-7 2-2-2 2-1-1-5z" fill="#110E10"/>
<path transform="translate(470,454)" d="m0 0 6 5 4 6-1 4-9 9-4-1-6-7 1-4z" fill="#FDFDFC"/>
<path transform="translate(656,124)" d="m0 0 5 1 12 8 11 8 2 4-3 3h-6v-4l-10-7-7-5-3-1-2 6-3 1-2-1-1-4h2l2-5z" fill="#120F11"/>
<path transform="translate(651,357)" d="m0 0h48l1 2-18 6h-15l-14-4-4-3z" fill="#FDFDFC"/>
<path transform="translate(228,357)" d="m0 0h49l-3 3-10 4-5 1h-13l-13-4-5-2z" fill="#FDFDFC"/>
<path transform="translate(609,255)" d="m0 0 1 2h55l-5 5h-54z" fill="#1B191B"/>
<path transform="translate(604,511)" d="m0 0h39l-2 5-2 2h-34l-1-1z" fill="#FDFDFC"/>
<path transform="translate(543,239)" d="m0 0h31l3 2-2 4-2 1-26 1-9-1-1-1v-5z" fill="#FDFDFC"/>
<path transform="translate(513,546)" d="m0 0h27l5 6v1h-45l4-3z" fill="#FDFDFC"/>
<path transform="translate(706,338)" d="m0 0h1v9h-50l3-4h2l1-3h43z" fill="#1D1C1D"/>
<path transform="translate(314,464)" d="m0 0h26l1 3-1 4h-42l1-2z" fill="#FDFDFC"/>
<path transform="translate(421,579)" d="m0 0h56v1l80 1v1h-172l4-2h32z" fill="#1D1C1D"/>
<path transform="translate(353,239)" d="m0 0h34l1 4-1 3-12 1h-16l-5-5z" fill="#FDFDFC"/>
<path transform="translate(344,435)" d="m0 0 3 1 1 2-22 6-29 10-21 9-16 8-6 2 4-4 25-13 23-9 24-8z" fill="#131113"/>
<path transform="translate(306,178)" d="m0 0 3 1 2 5-3 5-14 9-5 1-3-4 2-5z" fill="#FDFDFC"/>
<path transform="translate(259,334)" d="m0 0h11l5 3 1 3-3 1h-46l-2-1v-3h26l2-2z" fill="#FDFDFC"/>
<path transform="translate(231,353)" d="m0 0h40l-1 2h11l10-2 1 2-8 3-8 1v-1h-26l-22-1v2l-5-2 1-2z" fill="#121011"/>
<path transform="translate(622,534)" d="m0 0h17l4 2 2 5-17 1h-18l-2-3v-4z" fill="#FDFDFC"/>
<path transform="translate(234,426)" d="m0 0 6 4 10 7-2 5-5 5h-10v-19z" fill="#FDFDFC"/>
<path transform="translate(362,383)" d="m0 0 7 6 6 7-1 4-7 4-10-1 1-8 3-11z" fill="#FDFDFC"/>
<path transform="translate(273,257)" d="m0 0h56l5 5-54 1v-4l-7-1z" fill="#1C1B1C"/>
<path transform="translate(227,754)" d="m0 0 9 2 5 2 9 2v4l-7-1-1-1-2 5-2-1-1-6-3 2-1 5h-2v2l-9 3h-6l4-2 2-3 2-11z" fill="#110F10"/>
<path transform="translate(51,582)" d="m0 0 6 2 2 2h-7l1 5 1 3 2 2 3 7 5 4 7-1 2-5 4-1-2 2 2 1 1 5 7-2v4h2l-1 3-4-2-3 1 3 3-20-4-3-1-3-3 1-1-2-1-1-7-4-4-2-7v-4z" fill="#1A191A"/>
<path transform="translate(417,732)" d="m0 0 5 2 9 11 1 3 3 1v2h5l3-2-1 7 7 17 1 5-5-5-5-8-6-2v-2l3-2-3-6-4-4-9-3 1-5-4-4z" fill="#FDFDFC"/>
<path transform="translate(368,488)" d="m0 0h34l-2 5-3 2h-31z" fill="#FDFDFC"/>
<path transform="translate(21,421)" d="m0 0 1 2 5 1 8 19 1 5-7 1-4-4-5-11v-7l3-3h-2z" fill="#100D0F"/>
<path transform="translate(253,754)" d="m0 0h5l5 1 9 4v4h-2l1 3h-3v6l-2-4-12-3h-5l1-4-4-3z" fill="#1C1B1C"/>
<path transform="translate(252,20)" d="m0 0v3l-9 8-4 4 5 2v2h-11l-6 4-13 11-3 2-3-1 3-4 2-5 9-4 9-7 2-8 3 3v2z" fill="#FDFDFC"/>
<path transform="translate(423,679)" d="m0 0h6l-2 9v9l7 7-9-2-6-4-3-3-1-6 3-7z" fill="#110E10"/>
<path transform="translate(531,476)" d="m0 0h32l2 3-1 4h-28l-4-4z" fill="#FDFDFC"/>
<path transform="translate(618,546)" d="m0 0h31l-2 4-6 5h-12l-7-3-5-5z" fill="#FDFDFC"/>
<path transform="translate(593,464)" d="m0 0h22l17 5-2 2h-35l-2-4z" fill="#FDFDFC"/>
<path transform="translate(17,380)" d="m0 0 2 4 4-1 4 2v2h6l2 8 2-3 3 4-3 2 3 4 2 7v2h-2l-3-8-2-5-2-1-1-3-5-2-3-5-1-1v4l2 6 4 1v2l2 1-2 3h-2v-4h-2l-1-1-2 2-3-7-2-1-1 3-2-5 1-6z" fill="#1B1A1B"/>
<path transform="translate(375,464)" d="m0 0h27l4 5v2h-33z" fill="#FDFDFC"/>
<path transform="translate(449,216)" d="m0 0h26l2 7-1 1h-29l1-7z" fill="#FDFDFC"/>
<path transform="translate(297,724)" d="m0 0h6l4 7 5-1 1 2h-3l2 2-1 2h-2l2 5v5l-5-2-11-11v-8z" fill="#100D0F"/>
<path transform="translate(769,75)" d="m0 0 5 5 9 13 3 11 1 4 4 2 2 13-4-2-3-6-1-3-6-2 2-2-1-8-4-8-4-9-3-5z" fill="#FDFDFC"/>
<path transform="translate(606,523)" d="m0 0h29l1 6-2 1h-26l-2-3z" fill="#FDFDFC"/>
<path transform="translate(365,499)" d="m0 0h28l-2 5-4 3h-24l1-7z" fill="#FDFDFC"/>
<path transform="translate(672,332)" d="m0 0 6 3 28 2v3l-7 1h-34v-3z" fill="#FDFDFC"/>
<path transform="translate(146,669)" d="m0 0h10l16 3 1 3-4 1v3l2 2h-2v6l-2-1-2 2-1-7h2v-4l-3 1-4-2v-2l-4-1 1 4-3 1-3-1 1-4-4-1 3 8-4 1-2-4h2z" fill="#100E10"/>
<path transform="translate(499,553)" d="m0 0h45v1l-15 1v1h18l2 2h-69v-1l19-1z" fill="#1C1B1C"/>
<path transform="translate(657,131)" d="m0 0 4 1 12 8 5 4-2 6h-3l-16-10-3-3z" fill="#FDFDFC"/>
<path transform="translate(75,317)" d="m0 0h1v7l-2 4h-2v7h3l-1 4-1 22-2 2-1-6-1-5-6-11 3-9h2l1 4h2v-10z" fill="#110E10"/>
<path transform="translate(599,443)" d="m0 0 7 1 30 11 21 9 19 9 8 5-2 1-27-13-33-13-24-8z" fill="#151315"/>
<path transform="translate(540,251)" d="m0 0h29l-2 5-3 2h-22l-2-2z" fill="#FDFDFC"/>
<path transform="translate(372,604)" d="m0 0 22 1 1 3-4 5h-14l-8-2-1-2 2-4z" fill="#FDFDFC"/>
<path transform="translate(296,711)" d="m0 0 4 2 5 4 1 6 5 2v2h3l1 6h2l-2 6 1 2v10l-2-2-1-12h-3l-1 3v-4h2v-2l-2-2 3-1-4-1-1 2-5-7h-7v6l-2-4-1-5 3-3 2 2 5-1-5-6-2-2z" fill="#1C1B1C"/>
<path transform="translate(142,726)" d="m0 0 5 4 9 1 4 1 2 3-2 2-5 1h-15l-4-4v-5l4-2 2 1z" fill="#100D0F"/>
<path transform="translate(489,617)" d="m0 0h22v8h-21l-2-3z" fill="#FDFDFC"/>
<path transform="translate(267,376)" d="m0 0 2 1-4 4-21 9-30 15-6 4-2-1 10-7 15-9 28-13z" fill="#131012"/>
<path transform="translate(430,617)" d="m0 0h22l1 3-2 5h-20l-1-1z" fill="#FDFDFC"/>
<path transform="translate(541,488)" d="m0 0h26l2 6-3 1h-20l-5-5z" fill="#FDFDFC"/>
<path transform="translate(827,314)" d="m0 0 4 1 9 14 2 11 1 2-7-2-3-7-3-8-5-6 1-4z" fill="#120F11"/>
<path transform="translate(859,542)" d="m0 0h3v3l2 1-9 3-10 15-10 2 1-5 5-3 7-10 8-5z" fill="#131012"/>
<path transform="translate(554,169)" d="m0 0h22v6l-1 1h-25l1-5z" fill="#FDFDFC"/>
<path transform="translate(431,605)" d="m0 0h23l2 1-1 5-1 1h-24l-1-1v-5z" fill="#FDFDFC"/>
<path transform="translate(769,215)" d="m0 0 9 3 7 2v-3h2l4 8 6 6 3 1 1-6 2 1 2 13-5-1-5-5-12-9-6-3-8-6z" fill="#FBFBFA"/>
<path transform="translate(292,772)" d="m0 0 4 1 4 2 16 1h13l1-2 6 2 2-1 2 1 10 1v1l-20 1-6 2-3 7-2-3-1-3 3-2-24-1-5-3z" fill="#141213"/>
<path transform="translate(518,782)" d="m0 0 6 2-10 5h-6l2 4-9 4-5 2 2-6 1-5 4-3z" fill="#110F11"/>
<path transform="translate(631,785)" d="m0 0h6l3 3 1 11-3 1h-6l2-2-7-3-1-3v-4l-3-2z" fill="#121012"/>
<path transform="translate(652)" d="m0 0h14l6 4 3 4-3 1-1 3 1 4-3 1v-2l-3-3v3l-4 1-2-6 2-1-3-5-7-3z" fill="#3C3B3C"/>
<path transform="translate(378,593)" d="m0 0h21l2 1-2 5-1 1h-23l1-5z" fill="#FDFDFC"/>
<path transform="translate(55,431)" d="m0 0 9 1 1 2v10l-1 5-8-1v-2h-2v-4h2l-3-6z" fill="#100D0F"/>
<path transform="translate(681,22)" d="m0 0 5 2 3 3 5 1 4 8 10 13v2l-4-2-7-4-4-1 1-7-5-5-8-5-1-3z" fill="#FDFDFC"/>
<path transform="translate(543,463)" d="m0 0 16 1 3 5v2h-27l2-4z" fill="#FDFDFC"/>
<path transform="translate(560,593)" d="m0 0h7l1 1v5l-8 1h-17l-3-3v-3z" fill="#FDFDFC"/>
<path transform="translate(103,464)" d="m0 0 2 1 2 3v6h3l1-4 9-3 1-2v2h3l-1 5-5-3 1 7-2 2-1-3-1 3-4 2-2 3-6-2v-2h3l-3-9h-2l-1-5z" fill="#1B1A1B"/>
<path transform="translate(615,541)" d="m0 0h32l-1 2 4 2-1 3v-2l-31 1h-3l2-3-4-2z" fill="#1E1D1E"/>
<path transform="translate(497,605)" d="m0 0h13l1 1v5l-1 1h-23l-2-2v-4z" fill="#FDFDFC"/>
<path transform="translate(529,533)" d="m0 0 6 5 1 3-8 1 10 1 2 3h-27l5-4 3-3 5-3z" fill="#1D1C1D"/>
<path transform="translate(280,239)" d="m0 0 11 1 7 4v2h-30l3-5z" fill="#FDFDFC"/>
<path transform="translate(361,511)" d="m0 0h22l-2 4-3 3-13 1h-5v-6z" fill="#FDFDFC"/>
<path transform="translate(453,204)" d="m0 0h18l2 3v4l-22 1-1-3z" fill="#FDFDFC"/>
<path transform="translate(858,191)" d="m0 0h4l3 12v5l-4-1-1 3-2-4-6 2-1-5 7-9z" fill="#131113"/>
<path transform="translate(84,570)" d="m0 0 4 2h2l4 6 5 5-1 2-7 1-3 3v6l-2-1-1-6-3-3 1 2v6l-3-1h2l-2-10 4-3 4 1 1 4 1-5-3-3-1-3-5-1z" fill="#1C1B1C"/>
<path transform="translate(261,65)" d="m0 0h3l-1 5-10 6-5 4-5 7-8 2 1-4 7-6 5-5 11-8z" fill="#FDFDFC"/>
<path transform="translate(662,60)" d="m0 0 5 1 5 3 7 2-1-2 5 1 3 5 7 5v2l-7-2-13-6-7-1-4-5z" fill="#FDFDFC"/>
<path transform="translate(868,175)" d="m0 0 3 1 9 9-1 7-2 5-2-2-1-6-4-2-6-6 1-5z" fill="#1C1B1C"/>
<path transform="translate(556,499)" d="m0 0h14l2 7-3 1h-14l-5-4v-3z" fill="#FDFDFC"/>
<path transform="translate(453,795)" d="m0 0 7 1 16 7 12 3v3l-2 1-17-6-7-2h-10l-3 2 1-8z" fill="#131012"/>
<path transform="translate(146,200)" d="m0 0 3 1-3 9-9 10-2 7-4 3h-2l1-6 2-5-3-5 1-4 3 4 6-1 4-6z" fill="#FDFDFC"/>
<path transform="translate(54,561)" d="m0 0h5l8 6 5 2-3 5-4 1-2-1 2 6-2 1v-3l-3-1v-4h-6l1-5 2-3h2l-1-2-3-1v2l-3-1z" fill="#1B1A1B"/>
<path transform="translate(658,353)" d="m0 0h33l-2 3 2 2h-40l-4 1v-2h3l1-3h6z" fill="#1B1A1B"/>
<path transform="translate(411,544)" d="m0 0 10 3 8 4 1 2-3 1h-23l2-5z" fill="#FDFDFC"/>
<path transform="translate(358,167)" d="m0 0 4 1 6 6v2h-24l2-4 8-4z" fill="#FDFDFC"/>
<path transform="translate(440,815)" d="m0 0h4l-1 11-4 1h-2l-2 7-1 5-1 2h-2v3h-2l1-7 2-4-2-4 5-4 3-9z" fill="#FDFDFC"/>
<path transform="translate(719,31)" d="m0 0 4 1 3 7 1 9-2 2v-2l-9-1-2-1v-2h3l1-5-2-1 1-6z" fill="#1C1B1C"/>
<path transform="translate(362,251)" d="m0 0h23l-1 6-7 1h-10l-5-5z" fill="#FDFDFC"/>
<path transform="translate(550,430)" d="m0 0 8 1 28 7 13 4v2l-8-1-32-8-11-2z" fill="#141213"/>
<path transform="translate(251,764)" d="m0 0 13 2 3 2v5h-15l-4-1 1-7z" fill="#110E10"/>
<path transform="translate(656,238)" d="m0 0 5 1 4 8h-24l5-4z" fill="#FDFDFC"/>
<path transform="translate(746,682)" d="m0 0 3 1-5 7h-2l1 8-2 1h-7l-6-4 3-3 13-7z" fill="#121011"/>
<path transform="translate(17,316)" d="m0 0 5 3-4 5-4 1 1 2h2v2l2 1 1 2h3v2l9 2-4 1v2l4 1-7 1-1-3-5-1-1-2-3-1 2-1v-2l-5-2 1-10z" fill="#1C1B1C"/>
<path transform="translate(804,474)" d="m0 0 2 3 2-2 4 1 2 2-1 3 2 4 2 1-1 2-2-1 1 4h-2l1 8-2 1 1 2-3-1v-2l-2-1 2-2-1-5 1-2h2l-1-5-8-4z" fill="#1C1B1C"/>
<path transform="translate(543,262)" d="m0 0h18l-2 6-1 1-13 1-2-1-1-6z" fill="#FDFDFC"/>
<path transform="translate(777,165)" d="m0 0 6 3 3 5-1 9-6-3v-2l-4-2v-5h-2l2-4z" fill="#121011"/>
<path transform="translate(547,605)" d="m0 0h22l-4 4-10 4h-5l-3-5z" fill="#FDFDFC"/>
<path transform="translate(816,120)" d="m0 0 2 2 3 11 2 3 4 13 3 6-1 4-6-8-7-22z" fill="#FDFDFC"/>
<path transform="translate(608,530)" d="m0 0h23l4 2 4 1v1l-17 1h-14l-1-3z" fill="#191719"/>
<path transform="translate(42,427)" d="m0 0 3 1v4l3 1-1 7 3-1 1 1-1-6-1-3h2l2-4 4 4-2 2-1 3 2 6-3 4-10-5 1-6-2-4z" fill="#1D1C1D"/>
<path transform="translate(396,565)" d="m0 0h23v2h-2l-1 3h-23z" fill="#1B1A1B"/>
<path transform="translate(300,449)" d="m0 0 2 1 1 2-25 10-22 11-2-1 13-8 21-10z" fill="#141213"/>
<path transform="translate(257,322)" d="m0 0 4 2 6 7 3 3-11 1h-6l3-12z" fill="#1B1A1B"/>
<path transform="translate(463,192)" d="m0 0 6 1 1 6-4 1h-12l-1-4 2-3z" fill="#FDFDFC"/>
<path transform="translate(670,22)" d="m0 0 5 5v3l2 5 3 2h4l1 6-4 1-1-3-1 3-3-7-8-5-2-2 1-4 3-1z" fill="#120F11"/>
<path transform="translate(680,72)" d="m0 0 11 4 4 3v-5h1l2 7 4 3-2 2-3-2-2-4-1 2-5-1-3-2 1 4-2 1v-3l-5-2-3-2 1-3h2z" fill="#1A191A"/>
<path transform="translate(685,30)" d="m0 0 4 1 3 3v2l3 1-2 7h4l-1 4h-5v-5h-3l-1-5h-2v-2h-2v-4h2z" fill="#100D0F"/>
<path transform="translate(51,582)" d="m0 0 6 2 2 2h-7l1 5 1 3 2 2 3 7 5 4h5l-1 3h-9l-3-3 1-1-2-1-1-7-4-4-2-7v-4z" fill="#1D1C1D"/>
<path transform="translate(195,732)" d="m0 0h7v5l2 1v2l-9 1-2-2h-3l-5 1-3-2v-2h2l1-2v2l4-1 2 1v-3z" fill="#1C1B1C"/>
<path transform="translate(279,530)" d="m0 0h48v1h-12v2l11 1v1h-19l-6-2v-1h-22z" fill="#1B191A"/>
<path transform="translate(54,446)" d="m0 0h2v2h2l1-2v2l4 1 1 1v7h-4v2h-3v-4l2-1h-2l-4 1-2 7h-1v-6l2-3-1-2z" fill="#1B1A1B"/>
<path transform="translate(91,172)" d="m0 0h5v8l-4 6-3 2-2-3v-8z" fill="#120F11"/>
<path transform="translate(24,384)" d="m0 0 3 1v2h6l2 8 2-3 3 4-3 2 3 4 2 7v2h-2l-3-8-2-5-2-1-1-3-5-2-3-5z" fill="#1D1C1D"/>
<path transform="translate(358,523)" d="m0 0h15l-2 5-4 2h-11l1-6z" fill="#FDFDFC"/>
<path transform="translate(310,239)" d="m0 0 8 1 3 4v2h-20l5-6z" fill="#FDFDFC"/>
<path transform="translate(380,452)" d="m0 0h8l7 5v2h-18l1-5z" fill="#FDFDFC"/>
<path transform="translate(247,353)" d="m0 0h24l-1 2h11l10-2 1 2-8 3-8 1v-1l-15-2h-16z" fill="#1D1C1D"/>
<path transform="translate(247,779)" d="m0 0 4 1 2-1 2 2-1 2h-3v2l2 1-1 2 5 1-2 4h-8v-7h-2l1-4-2-1z" fill="#1C1B1C"/>
<path transform="translate(57,401)" d="m0 0 3 4v17h2l1-2 1 3-2 3-5-1-1-1v-17z" fill="#131113"/>
<path transform="translate(44,309)" d="m0 0 6 2 3 7 1 2h-4l-3 3h-2l-5-10z" fill="#1B1A1B"/>
<path transform="translate(560,511)" d="m0 0h14l1 7h-12l-3-4z" fill="#FDFDFC"/>
<path transform="translate(182,741)" d="m0 0h9l1 3h10 4l9 1 1 2h-3l-1 3-6-1-9-3-5 2-5-5-5-1z" fill="#1C1B1C"/>
<path transform="translate(126,680)" d="m0 0 9 1 5 5 2 6-1 1h-5v-3l-4-4-6-3z" fill="#141113"/>
<path transform="translate(617,749)" d="m0 0 2 1 1 2-12 5-5 2 3 2-7 1 1-5 5-5 2-1 9-1z" fill="#141214"/>
<path transform="translate(695,12)" d="m0 0 5 5v4h-2l1 2v7l-3-2-2 1-3-2-2-6 6 2v-4l-4-1 3-4 1 1z" fill="#1C1B1C"/>
<path transform="translate(834,265)" d="m0 0h2l2 5 4 3-3 4 1 4-5 1-2-2v-6l-1-2v-4l2-1z" fill="#1B1A1B"/>
<path transform="translate(814,187)" d="m0 0 1 2h2l1-2 2 5-1 4-2-1 1 4-3 1-4-2-2-5 1-4z" fill="#191819"/>
<path transform="translate(330,774)" d="m0 0 6 2 2-1 2 1 10 1v1l-20 1-6 2-3 7-2-3-1-3 3-2-4-2v-1l12-1z" fill="#1A1819"/>
<path transform="translate(385,794)" d="m0 0 5 1 1 4-4 2v2l-6-1h-3l-1-4 5-3z" fill="#1C1B1C"/>
<path transform="translate(150,181)" d="m0 0 18 2-3 1-1 2v-2h-3l-2 4h-7l-7-2z" fill="#151314"/>
<path transform="translate(665,11)" d="m0 0 2 1v2l3 1-1 3 5-1 4-1 1 5-3 4-4-1-2-2-4-2 1-1h-1z" fill="#191718"/>
<path transform="translate(623,238)" d="m0 0 4 2 2 2v3h2v2h-14l2-4z" fill="#FDFDFC"/>
<path transform="translate(706,120)" d="m0 0 3 2 2-2 5 2 2 1 5 1-3 2 2 2h-10l-7-3z" fill="#1F1E1F"/>
<path transform="translate(120,465)" d="m0 0 1 2h3l-1 5-5-3 1 7-2 2-1-3-1 3-3-1 1-1-3-2 1-4 9-3z" fill="#222122"/>
<path transform="translate(868,178)" d="m0 0 7 2 5 5-1 4-5-1-5-6-2-1z" fill="#100D0F"/>
<path transform="translate(237,759)" d="m0 0 1 3 1 9-3 1h-8l3-5h2v-5z" fill="#181718"/>
<path transform="translate(222,736)" d="m0 0 6 1v3l2 1-2 3 2 3h-13v-4l6-2 2 1-1-4z" fill="#1C1B1C"/>
<path transform="translate(458,180)" d="m0 0h7l2 4v3l-3 1h-7l-1-4z" fill="#FDFDFC"/>
<path transform="translate(649,461)" d="m0 0 6 2 21 10 8 5-2 1-27-13-7-3z" fill="#1C1B1C"/>
<path transform="translate(30,275)" d="m0 0 4 1 1 5-3 6-4-2-2-4 1-5z" fill="#0F0C0E"/>
<path transform="translate(529,533)" d="m0 0 6 5 1 3-15 1 6-7z" fill="#FDFDFC"/>
<path transform="translate(570,850)" d="m0 0 3 1-1 4-6 3h-10v-3l3 1 6-4z" fill="#141214"/>
<path transform="translate(230,418)" d="m0 0h1l2 17v12l-3-2-1-4z" fill="#1C1B1C"/>
<path transform="translate(20,320)" d="m0 0h2l2 5-1 7-4 1-2-6-3 1v-3l4-1z" fill="#0F0C0E"/>
<path transform="translate(373,262)" d="m0 0h9v6l-1 1h-8l-1-6z" fill="#FDFDFC"/>
<path transform="translate(134,659)" d="m0 0h5l1 2-2 1 5 6h9v1h-6v5h-3l-3-3v-5l-3 1v-2l-2-1v-3z" fill="#1C1B1C"/>
<path transform="translate(363,844)" d="m0 0h5l1 3h6l-4 1-1 4h-3l-1 3-5-5z" fill="#1B1A1B"/>
<path transform="translate(37,530)" d="m0 0h5l6 6-1 2-5-2v7l-3-1-1-4-2-5z" fill="#1D1C1D"/>
<path transform="translate(231,333)" d="m0 0h16l-3 2-4 2h-15l-1 3v-4z" fill="#191819"/>
<path transform="translate(825,247)" d="m0 0 7 3-3 4-2 1 1 3h-3l-4-4 1-4z" fill="#1A191A"/>
<path transform="translate(828,405)" d="m0 0 1 4-2 5 5-1v5l-3 1 3 1-3 2h-3v-5l-2-4 1-4z" fill="#1C1B1C"/>
<path transform="translate(827,314)" d="m0 0 4 1 3 6-2 5-7-7 1-4z" fill="#151315"/>
<path transform="translate(655,59)" d="m0 0h5l1 6h3l1 2-2 3-8-1 1-5 1-1-3-3z" fill="#1C1B1C"/>
<path transform="translate(706,27)" d="m0 0 12 3-2 1-2 4-3 2-5-5z" fill="#1C1B1C"/>
<path transform="translate(518,782)" d="m0 0 6 2-10 5h-5l-1-4 3-2z" fill="#131012"/>
<path transform="translate(211,733)" d="m0 0 3 2 2-2v4l-2 1 2 3-2 2-10-1 1-5 4 2v-4h2z" fill="#1D1C1D"/>
<path transform="translate(250,716)" d="m0 0 10 5 5 5 2 4-1 4-11-13-6-3z" fill="#161415"/>
<path transform="translate(75,317)" d="m0 0h1v7l-2 4h-2v7h3l-2 5-4-1-3-5v-2h2l1 4h2v-10z" fill="#1D1C1D"/>
<path transform="translate(831,483)" d="m0 0 4 1 2 5-1 3 2 1-3 3-1-1-2 3v-2l-3-1 2-2-1-4 1-3z" fill="#1C1B1C"/>
<path transform="translate(788,686)" d="m0 0 3 1-4 4-8 5-5-1-1-3 9-2z" fill="#151314"/>
<path transform="translate(421,579)" d="m0 0h32l-1 3h-12v-1l-19-1z" fill="#1C1B1C"/>
<path transform="translate(355,534)" d="m0 0 8 1-3 5-3 3h-4l1-8z" fill="#FDFDFC"/>
<path transform="translate(554,451)" d="m0 0 3 2 1 6-10 1-1-2 5-5z" fill="#FDFDFC"/>
<path transform="translate(16,490)" d="m0 0h2l3 3v5l5 2v3h-1l-1 2-6-5-2-5z" fill="#1C1B1C"/>
<path transform="translate(238,759)" d="m0 0h10l3 2-1 3-7-1-1-1-2 5-2-1-1-4z" fill="#110E10"/>
<path transform="translate(808,483)" d="m0 0 4 1v5h-2v6l1 2-4 2-1-4-1-5h2z" fill="#0F0C0E"/>
<path transform="translate(258,750)" d="m0 0h6l2 4 2 1-5 1-8-1v-3z" fill="#131112"/>
<path transform="translate(606,520)" d="m0 0h14v1l14 1v1h-28z" fill="#1A191A"/>
<path transform="translate(688,391)" d="m0 0 6 2 16 10-2 1-22-11z" fill="#181618"/>
<path transform="translate(821,385)" d="m0 0 3 3v4l3-1 3 2-4 1 3 2-6-1-5-2-2-3 3-3h2z" fill="#1C1B1C"/>
<path transform="translate(691,353)" d="m0 0 3 1-1 3h-21v-1l-5-1v-1z" fill="#0F0C0E"/>
<path transform="translate(403,147)" d="m0 0h3l-1 9-2 6-2-2v-12z" fill="#FDFDFC"/>
<path transform="translate(406,553)" d="m0 0h21l4 1v2h-21l-5-1z" fill="#141213"/>
<path transform="translate(574,522)" d="m0 0h2l2 4v4l-7-1-2-5z" fill="#FDFDFC"/>
<path transform="translate(227,394)" d="m0 0 2 1 1 2-16 8-6 4-2-1 10-7z" fill="#161416"/>
<path transform="translate(695,74)" d="m0 0h1l2 7 4 3-2 2-3-2-2-4-1 2-5-1-2-4 4-1 4 3z" fill="#1C1B1C"/>
<path transform="translate(95,608)" d="m0 0h2l3 8-1 6h-2l-4-4 3-2-3-5v-2z" fill="#1C1B1C"/>
<path transform="translate(685,78)" d="m0 0 4 2 4 1 2-1 5 5v2l-7-1v-2l-4 1-3-3z" fill="#0F0C0E"/>
<path transform="translate(243,76)" d="m0 0 2 1-5 6-4 3-1 5-2-2 1-7z" fill="#151314"/>
<path transform="translate(441,438)" d="m0 0h3l-3 6h-2v2l-4-2-3-4 2-1z" fill="#FDFDFC"/>
<path transform="translate(282,352)" d="m0 0h5l-1 2-5 2h-11l-4-2z" fill="#100D0F"/>
<path transform="translate(267,246)" d="m0 0h14l-1 4-9 1-1-3z" fill="#1A1819"/>
<path transform="translate(790,239)" d="m0 0 2 1 1 6 5 1 5-1v3l-6 2-6-2-1-2z" fill="#1C1B1C"/>
<path transform="translate(361,807)" d="m0 0 3 1v3h-2v5l-5-1-1-2-3-1 2-4 4 2z" fill="#1C1A1C"/>
<path transform="translate(81,566)" d="m0 0 5 1 3 3-1 3-3-2-7 2v-5z" fill="#131113"/>
<path transform="translate(633,666)" d="m0 0 2 1 1 2-8 3h-7v-3z" fill="#151315"/>
<path transform="translate(840,300)" d="m0 0 8 1v2l3 2h-3v2l2 1h-5l1-4-1 1-3 1-3-1z" fill="#1C1B1C"/>
<path transform="translate(56,602)" d="m0 0 5 2 3 3h5l-1 3h-9l-3-3 1-1-2-1z" fill="#1C1B1C"/>
<path transform="translate(313,541)" d="m0 0h12l-1 7-3 2-2-7-6-1z" fill="#454445"/>
<path transform="translate(300,449)" d="m0 0 2 1 1 2-17 6v-3z" fill="#151214"/>
<path transform="translate(791,199)" d="m0 0 5 1 3 6-7-1-2-1z" fill="#151314"/>
<path transform="translate(473,803)" d="m0 0 11 2 5 1-2 4-15-5z" fill="#181617"/>
<path transform="translate(305,519)" d="m0 0h11l-1 3h-22v-1h12z" fill="#0F0C0E"/>
<path transform="translate(228,354)" d="m0 0 7 1h8l-1 2h-14v2l-5-2 1-2z" fill="#1C1B1C"/>
<path transform="translate(257,322)" d="m0 0 4 2 3 3v2l-7 1-1-1v-6z" fill="#FDFDFC"/>
<path transform="translate(35,499)" d="m0 0h3l2 8-2 4h-3l2-5h-2l-2-5h2z" fill="#1C1B1C"/>
<path transform="translate(844,428)" d="m0 0 2 1-1 3 2 1h-2v3h2l-1 9-3 3v-9z" fill="#1C1B1C"/>
<path transform="translate(182,741)" d="m0 0h9l1 3h5l-3 4-5-2-2-3-5-1z" fill="#1B1A1B"/>
<path transform="translate(168,714)" d="m0 0 8 3 9-1 11 1v1l-10 1h-11l-7-3z" fill="#1D1C1D"/>
<path transform="translate(518,554)" d="m0 0h21l1 3h-16v-1l-6-1z" fill="#0F0C0E"/>
<path transform="translate(300,247)" d="m0 0 1 2 1-2h10l3 3h-15zm13 0h3l-1 2z" fill="#0F0C0E"/>
<path transform="translate(515,146)" d="m0 0 4 1v13l-2-1-2-9z" fill="#FDFDFC"/>
<path transform="translate(665,67)" d="m0 0 9 1 5 4-6 2-1-2-4-1-3-1z" fill="#1A191A"/>
<path transform="translate(721,32)" d="m0 0 3 1 2 6v7l-2-4-4-4z" fill="#121011"/>
<path transform="translate(412,785)" d="m0 0h14l6 2 1-2 3 2v2h-3l-1 2v-3l-20-2z" fill="#1C1B1C"/>
<path transform="translate(149,703)" d="m0 0 2 1-3 4 2 5-6 1-2-2z" fill="#1C1B1C"/>
<path transform="translate(292,545)" d="m0 0 2 1-4 5-4 1-2-5 1-1z" fill="#FDFDFC"/>
<path transform="translate(521,539)" d="m0 0 2 1-1 1 3 1v2h-2v2h-10l5-4z" fill="#1A191A"/>
<path transform="translate(801,522)" d="m0 0 2 2 5 1-2 3 1 2-4 2-3-2v-6z" fill="#1C1B1C"/>
<path transform="translate(805,486)" d="m0 0h2l-1 8 2 3v3l-6-2 2-3-2-5h2z" fill="#1C1B1C"/>
<path transform="translate(330,774)" d="m0 0 6 2 2-1 2 1 10 1v1h-20v-3z" fill="#1D1C1D"/>
<path transform="translate(126,680)" d="m0 0 9 1 1 2h-3l-1 3-6-3z" fill="#161415"/>
<path transform="translate(508,554)" d="m0 0h9v1l6 1v1l-14 1-3-2h2z" fill="#121012"/>
<path transform="translate(291,531)" d="m0 0h13l-1 3h-13z" fill="#0F0C0E"/>
<path transform="translate(805,500)" d="m0 0 2 4 4 1-2 6h-3l-2-6z" fill="#1C1B1C"/>
<path transform="translate(688,40)" d="m0 0h5v4h4l-1 4h-5v-5h-3z" fill="#1C1B1C"/>
<path transform="translate(677,36)" d="m0 0 7 1 1 6-4 1-1-3-1 3-2-5z" fill="#141214"/>
<path transform="translate(432,803)" d="m0 0h11l-1 3-9 1z" fill="#151315"/>
<path transform="translate(233,783)" d="m0 0 7 1-1 4-4 2-1-2h-3l1-4z" fill="#1B191A"/>
<path transform="translate(797,707)" d="m0 0 8 2-3 2-17 1 3-2 5-1z" fill="#1D1C1D"/>
<path transform="translate(234,418)" d="m0 0 4 1 5 3 3 3-1 3-6-5-4-2z" fill="#1D1C1D"/>
<path transform="translate(239,388)" d="m0 0 2 1-3 4-6 3-4-1 3-3z" fill="#120F11"/>
<path transform="translate(884,237)" d="m0 0h2l4 5-1 2-4 1-2 2-1-4z" fill="#1D1C1D"/>
<path transform="translate(790,153)" d="m0 0 4 1 5 5 2 6-7-6z" fill="#1D1C1D"/>
<path transform="translate(578,527)" d="m0 0h1l2 12-4-1-1-6-2-2h4z" fill="#4B4A4A"/>
<path transform="translate(94,468)" d="m0 0 6 1-2 1-1 3 2 2-5 2-1-8z" fill="#1C1B1C"/>
<path transform="translate(269,463)" d="m0 0 3 1-4 3-12 6-2-1 13-8z" fill="#181618"/>
<path transform="translate(571,435)" d="m0 0 8 1 3 1v3l-10-2-4-2z" fill="#151315"/>
<path transform="translate(52,427)" d="m0 0 5 4-2 2-2 4-3-3-1-3h2z" fill="#1C1B1C"/>
<path transform="translate(254,781)" d="m0 0 1 3h3l-1 5-5-1-1-5h3z" fill="#0F0C0E"/>
<path transform="translate(794,485)" d="m0 0 2 1 1 4 2 1h-2l-1 3h-2l-2-4 1-4z" fill="#191718"/>
<path transform="translate(658,353)" d="m0 0 2 2v2l-9 1-4 1v-2h3l1-3h6z" fill="#1D1C1D"/>
<path transform="translate(545,275)" d="m0 0 7 1-2 4-3 3-2-3z" fill="#FDFDFC"/>
<path transform="translate(818,192)" d="m0 0h2l-1 4-2-1 1 4-3 1-4-2 1-3 4-2 2 1z" fill="#1D1C1D"/>
<path transform="translate(237,789)" d="m0 0 5 1 1 4-6 1v-2l-2-1z" fill="#1D1C1D"/>
<path transform="translate(866,540)" d="m0 0h5v3l-9 2 1-4z" fill="#FDFDFC"/>
<path transform="translate(815,456)" d="m0 0 4 2-1 6 1 7-4-2 1-4-2-8z" fill="#1C1B1C"/>
<path transform="translate(96,380)" d="m0 0 5 1-2 10-2-3-2-7z" fill="#1C1B1C"/>
<path transform="translate(22,320)" d="m0 0 4 1v2l3 1h-2l-2 5-1 3-2-3 1-5z" fill="#1D1C1D"/>
<path transform="translate(99,214)" d="m0 0 3 1-2 2-1 6-5 3 3-9z" fill="#161415"/>
<path transform="translate(686,30)" d="m0 0 4 2 2 4 3 1-1 3-5-3-3-5z" fill="#181617"/>
<path transform="translate(154,733)" d="m0 0h5l1 2-4-1 1 3-2 1h-15v-1l12-1 2-1z" fill="#1D1C1D"/>
<path transform="translate(740,690)" d="m0 0h2l1 8-5 1-1-5 3-1z" fill="#1A191A"/>
<path transform="translate(103,618)" d="m0 0 6 2-1 3 4 1h-5l-7-2 1-3z" fill="#1C1A1C"/>
<path transform="translate(625,530)" d="m0 0h6l4 2 4 1v1h-9l-5-1z" fill="#1C1B1C"/>
<path transform="translate(910,504)" d="m0 0h6l-3 2-1 2-2 1v-2l-13-1v-1z" fill="#1D1C1D"/>
<path transform="translate(72,342)" d="m0 0h1v19l-2 2-1-6 1-2z" fill="#1C1A1C"/>
<path transform="translate(231,353)" d="m0 0h14l-2 2-13 1z" fill="#131112"/>
<path transform="translate(705,98)" d="m0 0h5l1 4-7 1-3-3h3z" fill="#1B191B"/>
<path transform="translate(49,409)" d="m0 0h1l1 15-2 3-1-4-3-3 3-1z" fill="#1C1A1C"/>
<path transform="translate(136,94)" d="m0 0v3l-3 3-1 9h-1l-1-9-2-3h4z" fill="#1A181A"/>
<path transform="translate(687,83)" d="m0 0 6 1v2l4 1 1 3h-3l-1-2h-4v-2l-4-1z" fill="#1D1C1D"/>
<path transform="translate(84,606)" d="m0 0 1 4h2l-1 3-4-2h-3v-3z" fill="#1C1B1C"/>
<path transform="translate(783,564)" d="m0 0h2l1 7h-3l-3-4v-2z" fill="#1C1A1B"/>
<path transform="translate(372,257)" d="m0 0h5l-3 1-1 5-2 2-2-5-2-2z" fill="#242324"/>
<path transform="translate(373,725)" d="m0 0 5 3 3 3v8h-1l-2-8-7-4z" fill="#1D1C1D"/>
<path transform="translate(167,679)" d="m0 0 4 2h-2v6l-2-1-2 2-1-7 2-1z" fill="#0F0C0E"/>
<path transform="translate(534,648)" d="m0 0 3 1-4 4-4 1-4 3 2-4 5-4z" fill="#161415"/>
<path transform="translate(738,608)" d="m0 0 1 2v6l2 1-2 3h-2l-1 3v-12z" fill="#1C1A1B"/>
<path transform="translate(855,388)" d="m0 0 4 1-1 4 1 7h-2l-1-4-2-6z" fill="#1C1B1C"/>
<path transform="translate(77,363)" d="m0 0h7l-2 5-10-2 1-2 3 1z" fill="#1C1B1C"/>
<path transform="translate(423,422)" d="m0 0h6l-1 3h-11l1-2z" fill="#110E10"/>
<path transform="translate(793,97)" d="m0 0 1 2 1 11-6-1 3-2v-9z" fill="#1D1C1D"/>
<path transform="translate(167,63)" d="m0 0 3 1-4 6-2 4-2-4z" fill="#252425"/>
<path transform="translate(244,759)" d="m0 0 6 1v4l-7-1-1-3z" fill="#0F0C0E"/>
<path transform="translate(101,506)" d="m0 0 3 2-1 1 4 4-1 2h-2l-5-6h2z" fill="#1C1B1C"/>
<path transform="translate(366,378)" d="m0 0 4 2 7 8-1 2-4-4v-2l-3-1z" fill="#1D1C1D"/>
<path transform="translate(695,12)" d="m0 0 5 5-1 2-4-4zm-2 2 2 4-4 1z" fill="#1A181A"/>
<path transform="translate(671,9)" d="m0 0 4 5 1 3-5 2-2-2 2-1-1-5z" fill="#0F0C0E"/>
</svg>
