<?xml version="1.0" encoding="UTF-8"?>
<svg version="1.1" viewBox="0 0 2048 2048" width="1280" height="1280" xmlns="http://www.w3.org/2000/svg">
<path transform="translate(0)" d="m0 0h2048v2048h-2048z" fill="#E4EBF1"/>
<path transform="translate(1007,290)" d="m0 0h17l19 2 17 4 18 6 16 8 16 10 14 11 13 13 13 17 9 15 10 25 4 14 3 18v34l-3 19-6 20-8 18-6 11-10 14-9 10-7 8-14 12-14 9-15 8-21 8-17 4-18 2h-28l-19-3-18-5-16-7-17-9-16-12-10-9-7-7-9-11-10-15-8-16-6-15-5-19-2-16v-32l3-19 6-21 9-20 9-14 10-13 11-12 11-10 14-10 16-9 14-6 19-6 16-3z" fill="#E5ECF2"/>
<path transform="translate(1007,290)" d="m0 0h17l19 2 17 4 18 6 16 8 16 10 14 11 13 13 13 17 9 15 10 25 4 14 3 18v34l-3 19-6 20-8 18-6 11-10 14-9 10-7 8-14 12-14 9-15 8-21 8-17 4-18 2h-28l-19-3-18-5-16-7-17-9-16-12-10-9-7-7-9-11-10-15-8-16-6-15-5-19-2-16v-32l3-19 6-21 9-20 9-14 10-13 11-12 11-10 14-10 16-9 14-6 19-6 16-3zm-2 42-19 3-17 6-17 9-13 10-15 15-9 13-6 10-7 19-3 13-1 9v23l2 16 6 18 9 17 7 10 10 12 8 7 11 8 10 6 16 7 19 5 26 1 21-2 18-6 16-8 13-9 12-10 7-8 7-10 8-14 6-14 4-18 1-8v-23l-3-18-7-20-6-10-3-6-6-8-9-10-7-7-12-9-8-5-15-7-14-4-17-3z" fill="#E5ECF2"/>
<path transform="translate(1012,1172)" d="m0 0h7l6 3 5 6 1 2 1 22 3 7 3 5 2 2v8l5-1 5-4 5-1-1-6 9-11 1-2 5 2 13 9 5-2 1 3 6 1 2 7 7 7 1 4v9h2v6l-4 4-5-2-11-8-4-1-6 9h12l5 6-1 5-2 4 8-3h13l-1 5-11 10-4 8 7-2 3 4 1 8-6 2 2 4 13 8 3 4 1 6-4 16-3 19-3 5-7 1-10-1-3-4-4-3-4-1 4 8v5l-6 5-7-1 1 4 16 11 2 7-2 6-9 8-4 1v-3l8-7 3-4v-2l-10 5-3 4-3 8-4-1-4-8-3-8-2-4-4 1-4 2-5-1-1-4h-8v8l-1 1h-8l-5-3-3-4-6 8-11-1v-8l-7-1-2 6-7-1-4-1-8 14-5 6-6-1-6-3-8-9 2-5 8-9 4-7 2-8h-13l-3-1-2-7-4 2-8 2-6-1-4-4-3-9-3-15-3-6-1-5v-7l6-7 12-8v-3l-5-2 1-5 2-5 5 1 4-2-1-5-12-12v-3h15l5 1v-2l-3-2 1-9 4-3h4v2l7-1-4-6-9-6-6 1-6 4-9 5h-5l-1-5 7-6 10-8 1-3-3-3 2-4 8-7 5-2 5 3 8 12 5 14 2 1 1-2v-8l4-5 7-1 3 3v2l5-1 3-9 4-4 1-7v-21l3-7 7-6z" fill="#060607"/>
<path transform="translate(1082,1167)" d="m0 0h7l3 2 7 2v2l4 2 7 5 1 5-1 3h2l4 4 4 2v-7l5 1 4 5 3 2v2l4 2v2l7-1 3 8 3 4 2 6 3 3 2 9 3-2h3l6 14 1 7 2 3-1 8v6l5-1 2 4 1 11v3l-1 1v11l-3 5 5 2 2 3v5l-2 4v8l-6 3v2h8v9l-5 7 1 9-4 6-2 5-4 1-4-3 4 6-1 6-5 9-3 2v2l5 1-1 5-13 13-6 3-5 3h-2v4l5 2v4l-7 4-2 3-1-2-4 1-2 4-7-3-1 4-9 2 2 2 6 3-3 4-8 1-5 5-6-2-5 3h-9v4l-9 1-4-2v2l-7 1-3-1-1-2-3-1-1 3-4 1 2 4 12 5v4l-8 4-5-1-8-8-2-1v5l-1 1-7-1-7-5v-2l-4-2-5-6-3-1 1 12-5 5-3 2h-5l-2-4 1-8-5 3-7 8-4 6-7-6 1-5 11-7 3-1h-7l-6 3h-6l-4 3-5-1-4-1-4 2 2-7 5-5-7 4-6-2-8-1-9-2-8-5 1-4 5-3 1-3h-2l-3 1-9-2-10-3-6-3-5-5-2-3 8-3-6-2-7-3-8-7-5-7v-6l5-1-1-3-10-4-6-8-2-7 3-3-4-8-4-6-1-4v-10l6 1 6 2h2l-4-5-8-5-4-4-1-8v-13l2-9 5-2 1-3-4-2-3-4v-7l3-2-2-4 1-5 4-10 5-3 1-6h-2l5-15 5-2 3-4h2l2-12 7-11 7-6 4-1 3 2 1-6 8-7h5 4l5-8 9-6 11-4 3 1-1 6-4 8-3 5-1 3 4-4 8-1-1 5-5 5-4 5-6 4-2 7-7 6-2 3h-2v2h-3l3 4-2 5-6 5-4-1-1 7-9 17-5 4-3 5-1 2 5-3 6-1 1 4-5 15-2 2-2 23-5 16 5-2 4 1 3 14-1 10-1 15 5-3 4-1 3 3 6 15 1 4 6-3 4 4 7 9 5 9 4 5v3l8 1 10 4 4 4 3-2 8 1 12 4 4 4 4 2-1-5 1-1h5l6 4 6 2v5l-3 3h-2v3l8-6 9-6 9-5 10 5 2-4 4-2 7-2 6-5h3l2 2h2l1-4 10 1 1-4 6-3 2-2h4l2 3 2-5 2-8 5-2 1-8 6-5h4l3 4 1-6 4-10 3-5 3 1 3 4 1-6v-3l-3-2-1-5 3-5-2-5 2-5h2v-10l2-1h8l2 1-1-4h-2l-4-5v-7l-2-2v-10l-3-3 1-9-1-5 8-1-1-4-3-3-2-6-2-1-2-6-6-3-1-5-5-4-1-9h9l2-3h-7l-10-6v-4l2-5-5 1-6-3-9-8-1-4 2-1-1-5-6-2-2-3-8-3-2-4 1-5h11l2 1-10-13-1-1z" fill="#060608"/>
<path transform="translate(1015,1531)" d="m0 0h40l3 3 13 31 14 33 3 10 2 1 2-6 14-34 11-26 5-12h41v110l-1 1h-26v-78l-5 10-11 27-13 31-4 9-2 1h-24l-3-4-16-38-12-28-4-8v78h-27z" fill="#030304"/>
<path transform="translate(1313,1531)" d="m0 0h79l15 1 12 6 7 8 4 9v18l-4 10-10 9-12 5 12 17 14 19 5 7-1 2h-32l-8-11-19-29-3-4-30-1v45h-30v-104z" fill="#030304"/>
<path transform="translate(533,1082)" d="m0 0h978l1 3-1 6h-979v-8z" fill="#030304"/>
<path transform="translate(1007,290)" d="m0 0h17l19 2 17 4 18 6 16 8 16 10 14 11 13 13 13 17 9 15 10 25 4 14 3 18v34l-3 19-6 20-8 18-6 11-10 14-9 10-7 8-14 12-14 9-15 8-21 8-17 4-18 2h-28l-19-3-18-5-16-7-17-9-16-12-10-9-7-7-9-11-10-15-8-16-6-15-5-19-2-16v-32l3-19 6-21 9-20 9-14 10-13 11-12 11-10 14-10 16-9 14-6 19-6 16-3zm0 9-17 2-20 5-16 6-15 8-12 8-13 11-6 5-9 11-10 13-10 18-7 17-5 21-2 15v24l3 20 6 19 7 17 10 17 13 16 15 15 17 12 16 9 18 7 13 4 20 3h28l19-3 21-7 16-7 16-10 9-7 13-12 9-10 12-17 9-17 7-19 4-14 2-19v-21l-3-20-5-18-7-17-10-17-9-12-9-11-16-14-15-10-15-8-19-7-17-4-17-2z" fill="#030304"/>
<path transform="translate(818,1532)" d="m0 0h32l3 5 8 16 12 25 17 35 11 24 2 5h-32l-3-5-7-17v-2l-53 1-5 10-5 12-1 1h-31l1-6 8-15 11-23 14-29 15-32z" fill="#030304"/>
<path transform="translate(641,1531)" d="m0 0h20v42h64v-41l1-1h28v111h-28l-1-1v-46h-64v47h-28l-1-1v-109z" fill="#030304"/>
<path transform="translate(1492,1527)" d="m0 0h16l14 2 16 6 11 8 6 7 3 2v2l-28 7-10-8-12-4h-19l-11 4-4 6 1 4 5 5 17 4 26 4 15 4 8 5 7 8 2 4 1 13-1 9-4 8-5 6-10 6-8 3-17 3h-25l-19-4-13-7-8-7-7-10v-3l8-3 12-3h6l5 6 5 4 13 4h23l10-3 5-4 1-2-1-9-6-3-17-3-25-4-12-3-10-6-7-8-3-7v-14l4-10 5-6 9-6 13-5z" fill="#030304"/>
<path transform="translate(1188,1531)" d="m0 0h103v21l-74 1v22h28l37 1v20l-65 1-1 24h78v20l-1 1h-105l-1-6v-104z" fill="#030304"/>
<path transform="translate(1e3 332)" d="m0 0h23l21 4 12 4 16 8 12 8 13 12 11 12 5 8 6 11 7 19 3 13 1 11v20l-3 18-5 16-9 17-9 13-8 9-11 9-14 10-17 8-16 5-21 2-26-1-22-6-16-8-10-6-9-7-8-7-9-11-7-10-9-17-6-18-2-16v-23l2-14 5-17 5-11 7-12 9-12 15-15 13-9 17-9 15-5zm3 10-23 4-19 8-15 10-10 9-9 9-10 15-8 17-5 19-1 7v22l3 15 6 18 8 14 9 12 14 14 13 9 19 9 19 5h35l19-5 21-10 13-10 13-13 10-14 7-14 5-16 3-14 1-14-3-20-5-16-8-17-10-14-6-7h-2l-1-3h-2l-1-3-15-10-15-8-15-5-19-3z" fill="#030304"/>
<path transform="translate(540,1528)" d="m0 0h33l20 6 9 5 10 9 5 6v5l-14 4-9 3h-5l-6-7-10-6-14-3-15 2-12 6-8 9-3 8-2 14 3 12 7 10 10 7 8 3 7 1h10l11-3 7-4 11-12h29l-1 7-6 11-10 10-11 7-14 5-11 2h-27l-14-3-12-5-12-9-7-9-6-12-3-13v-15l4-16 5-9 9-10 11-8 12-5z" fill="#030304"/>
<path transform="translate(1015,349)" d="m0 0 14 1 2 1 1 6-4 3-10 3 1 11 2 5h9l22-3v-2l-9-7-1-3 5-5 5-2 8 1 3 5v13l11 1 6 5-1 10-4 14 1 4 8 6-1 5-7-1-3-1 2 7v12l-3 12v3l5 5 3 4 1 3v11l-5 14-7 13-8 3-6 2h-5l2-5 5-4 4-2 2-30-2-13-1-2v-8l1-11-1-7-5-2-4 20-1 2v11h2l4 8v10l-2 10-7 14-5 4-5 1h-8l-2-3 5-6 7-3 3-10v-7l-4-14-2-10 1-8 3-25-5 2-1 16-4 10-2 2-5 1-6-3-5-7-4-20 1-7 2-11 2-10-3-10-3-8-15-2-8-5-5-7 1-5 1-1h5l5 6 6 3h7l5-4z" fill="#030304"/>
<path transform="translate(932,458)" d="m0 0h6l5 3 2 4v13l-3 10 1 10 3 6 2 2 4 1-2-7-2-5 1-10 7-8 8-1 3 2-1 4-9 3-1 8 5-1 4-3 4 2-1 6-5 9-2 9 4-2 4-8 4-4 1 3v9l-1 7h3l4-12 2-7 5-1 2 1-1 9v11l6 2-1-10 3-8 1-1h5l1 5-1 8 3 8h2l-1-16 2-3 5 1 3 9 3 8 1-4-1-10 3-3 5 2 3 12 2 3 3 1-2-5v-8l1-2h5l1 1 2 9 6 2-3-9 3-3 4 2 5 6h2l2-7 5 1 5 3 9-3 7-6 1-2h2l2-5 6-12v-7l-3-6 1-5 4-2 7 1 2 4 1 7-2 14-6 14-7 10-9 10-14 10-12 6-10 3-19 3h-20l-21-3-12-3-13-5-9-5-12-9-8-10-5-10-1-7v-8l3-9 2-9-5-1-3-3v-5z" fill="#030304"/>
<path transform="translate(1119,876)" d="m0 0h46l9 2 9 6 4 5 2 5v9l-5 10-3 2h-3l4 4 8 5 4 6 1 4v7l-3 9-6 7-12 6-15 2h-38l-2-1 1-5 12-1v-75l-12-1z" fill="#030304"/>
<path transform="translate(1e3 1289)" d="m0 0h28l1 1 19 2 9 3 10 1 9 4 17 6 16 8 2 2v7l-5 21-5 1-2-5-15-7-18-7-13-4-9-4-8-9-1-4 4-6 5-1 6 4 1-6h-15l-4 2-2 5 1 7 5 5 8 4v2l-13-3-4-1h-16l-31 3-13 4-3-1 2-24h-7l2 4v8h-4l-6-6h-8l1 3 10 8 7 5 1 3-6 3v2l-17 7-9 7-5 3-2-12-5-16 5-5 13-7v-3h6l8-4 8-1 2-2 16-3 21-3 2 2 4 1v-2h-3z" fill="#E4EBF1"/>
<path transform="translate(959,389)" d="m0 0h18l9 2 11 8 6 8 4 11 1 5-1 9-4 13-7 10-8 7-11 4-13 1-14-4-8-6-8-9-4-8-2-9v-12l3-10 6-8 8-7 9-4z" fill="#060607"/>
<path transform="translate(916,1531)" d="m0 0h28l1 88 55 1v22h-84z" fill="#030304"/>
<path transform="translate(1307,876)" d="m0 0h49l10 3 8 6 4 7 1 10-4 11-8 6-5 2 1 5 10 17 7 11 1 3 6 2 3 3v2l-2 1h-20l-13-27-7-12-13-1 1 23 1 10 11 1v6h-40l-1-5 1-1 13-1v-49l-1-26-12-1-1-1z" fill="#030304"/>
<path transform="translate(940,724)" d="m0 0h43l11 2 10 6 5 7 1 3v12l-4 8-6 5-7 3 7 14 9 15 4 6 8 4 1 4-2 1h-10l-11-1-5-12-10-19-4-6v-2l-12-1v34l11 1 1 5-13 1h-26l-1-1v-6h13v-76h-13z" fill="#030304"/>
<path transform="translate(889,875)" d="m0 0h19l19 1v6h-12v75l2 1h9l1 1v6l-35 1-3-1v-6l11-1v-34h-41v34l11 1v6h-38v-6l13-1-1-75-12-1-1-1v-5h40l-1 6-10 1-1 32h41l-1-33h-7l-3-1-1-5z" fill="#030304"/>
<path transform="translate(688,881)" d="m0 0h7l8 3 6 5 4 6 3 9 1 6v22l-3 12-6 8-6 5-6 2h-12l-10-6-6-9-4-13v-18l4-16 6-9 5-4z" fill="#E5ECF2"/>
<path transform="translate(1395,730)" d="m0 0 13 1 6 4 7 8 3 8 2 9v18l-3 12-4 8-8 7-7 3h-10l-10-5-6-7-4-10-1-4v-25l4-13 7-9 7-4z" fill="#E5ECF2"/>
<path transform="translate(614,724)" d="m0 0h26l6 7 8 12 16 23 12 17 4 5-1-56-11-2v-6h34v7l-12 1-1 83-7-1-5-6-12-17-14-20-13-18-6-8v57l2 5 11 1v5h-37l1-5 13-1-1-75-12-1z" fill="#030304"/>
<path transform="translate(1017,876)" d="m0 0h26l5 5 15 22 14 20 10 15v2h2v-31l-1-26-11-1-1-6h35l1 2-1 4-11 1-1 21-1 62-4 1-4-2-14-20-13-18-13-19-7-10-3-3 1 54v8l1 1 11 1v6h-36v-6l14-1-1-75-12-1-1-1z" fill="#030304"/>
<path transform="translate(1392,723)" d="m0 0h15l11 3 9 6 6 7 6 12 1 4v26l-4 12-6 9-8 7-9 4-4 1h-21l-11-4-8-6-7-11-4-13v-19l3-13 6-10 5-5 8-6zm3 7-8 3-6 5-5 9-3 10v25l4 12 6 8 6 4 5 2h10l10-5 7-8 4-11 1-6v-18l-4-15-4-6-8-7-8-2z" fill="#030304"/>
<path transform="translate(681,875)" d="m0 0h21l11 4 10 9 6 10 3 10v21l-3 12-5 9-9 9-9 5-10 2h-13l-13-4-8-6-6-7-5-10-2-11v-12l2-11 4-10 7-10 9-6 7-3zm7 6-9 3-7 6-5 9-3 14v18l4 13 6 9 10 6h12l9-4 8-9 3-8 1-6v-22l-3-12-3-6-5-6-7-4-4-1z" fill="#030304"/>
<path transform="translate(1470,873)" d="m0 0 3 1v22l-1 8-4-2-8-13-6-5-6-2h-9l-9 3-7 6-5 10-3 14v8l3 14 6 12 8 6 9 3h13l4-2 1-2v-19l-1-5-11-1-1-5 7-1h12l19 1-1 5-6 1-3-1v22l-1 7-5 4-13 4h-17l-12-3-10-5-5-4-6-9-5-12-1-6v-11l2-12 6-12 8-9 14-7 4-1h24l9 1z" fill="#030304"/>
<path transform="translate(623,873)" d="m0 0 2 1v29h-3l-9-14-9-6-3-1h-10l-9 4-7 6-5 10-2 7v19l4 13 6 9 9 6 6 2h14l4-2v-26h-11l-1-1v-6h35l2 1-1 5-8 1-1 26-3 5-8 3-9 2h-17l-14-4-10-7-6-7-5-11-2-9v-16l4-13 5-9 7-7 8-5 11-3h22l8 1z" fill="#030304"/>
<path transform="translate(916,723)" d="m0 0h7v29l-4-2-8-15-3-2h-22l-1 8-1 23 22-1 3-7 5-1v26l-4 1-2-2-2-7-22-1 1 28 1 6h11l16-2 4-4 6-15h4l-1 27-1 1-32 1h-27l-9-1-1-4 1-1 13-2v-75h-12v-7h56z" fill="#030304"/>
<path transform="translate(998,873)" d="m0 0h3v30l-4-2-8-16-4-1h-21l-1 5v26h20l5-8 4-2v29l-6-2-1-9h-17l-5 1v30l1 3h21l8-2 6-12 2-6h5l-2 25-3 3h-66v-6l14-1-1-75-13-1v-6l60-1z" fill="#030304"/>
<path transform="translate(514,724)" d="m0 0h38l-1 7h-8l-2 23v31l2 11 4 7 4 3 4 1h13l8-4h2l2-4 3-9v-59h-11l-1-7h35v7l-11 1-1 3-1 53-3 12-8 9-8 4-3 1h-21l-11-4-6-5-5-10-1-4-1-13-1-47-10-1-1-1z" fill="#030304"/>
<path transform="translate(1236,875)" d="m0 0 8 1v6h-9v11l-1 15v28l2 12 4 6 4 3 3 1h15l6-3 5-6 2-4 1-10v-53l-12-1-1-5h36v6l-13 1-1 62-5 10-9 8-9 3h-17l-12-4-8-7-4-8-1-5-1-16-1-43-10-1-1-1v-5z" fill="#030304"/>
<path transform="translate(1516,722)" d="m0 0h3v28l-5 1-5-12-3-6-26-1v32h22l1-6 3-4 4 1v28l-4 1-2-1-3-10-20-1v34l1 1h12l1 5-2 2h-26l-14-1v-5l13-2v-75h-11l-2-2v-4l2-1 57-1z" fill="#030304"/>
<path transform="translate(1082,722)" d="m0 0 5 1-1 29-4-2-5-10-6-7-9-3-7 2-5 6v10l3 5 7 5 14 7 9 7 5 7 1 3v12l-4 9-7 7-10 4-12 1-11-2-5-2-1 3h-5v-28l4-1 4 9 5 8 8 5h9l7-4 4-7v-8l-5-7-10-6-12-6-7-6-5-9v-13l5-10 8-6 5-2h18l6 2z" fill="#030304"/>
<path transform="translate(763,724)" d="m0 0h35l1 2-1 5h-10l7 20 12 30 3 9 4-8 16-46 1-5h-9v-7h28l1 3-1 3-6 2-8 19-15 39-9 22-2 3-4-1-4-8-17-42-12-29-4-4h-5z" fill="#030304"/>
<path transform="translate(1223,722)" d="m0 0h4l1 2v26l-5 1-6-15-2-3h-16v74l13 1v5l-1 1h-29l-12-1-1-3 1-2 11-1 3-1v-74l-17 1-8 16-3 4h-2v-30h67z" fill="#030304"/>
<path transform="translate(748,873)" d="m0 0 5 1 1 1h60l6-2 1 1v30l-3-1-8-15-2-4-17-1 1 75 13 1v6h-42l-1-5 1-1 14-1-1-75-16 1-7 14-2 5-3-1z" fill="#030304"/>
<path transform="translate(1299,724)" d="m0 0h11l12 1-1 6h-8l-2 5-12 19-10 17v35l13 1-1 5-2 1h-25l-13-1-1-5 13-1 1-17v-14l-7-12-20-30-4-3-6-1-1-5h35v5l-9 1 8 14 12 19 3-3 12-23 3-7-8-1v-5z" fill="#030304"/>
<path transform="translate(717,724)" d="m0 0h40v7h-13l1 76h12v7h-38l-2-1v-5l4-1h8l1-76h-13z" fill="#030304"/>
<path transform="translate(1326,1690)" d="m0 0h9l8 3 7 8 3 9v8l-3 8-5 5-8 4-3 1h-10l-9-6-4-6-2-7v-8l4-10 5-6z" fill="#030304"/>
<path transform="translate(979,1690)" d="m0 0 11 1 7 4 4 5 2 5v17l-4 6-6 5-7 3h-11l-6-4-7-8-2-7v-8l4-10 4-5 6-3z" fill="#030304"/>
<path transform="translate(1416,1690)" d="m0 0 11 1 6 3 6 7 2 5v14l-4 8-6 5-8 3h-10l-8-5-6-9-1-4v-9l3-9 6-7z" fill="#030304"/>
<path transform="translate(1103,724)" d="m0 0h40l1 2-1 5h-12v74l1 2 11 1v5l-3 1h-15l-22-1-1-4 1-1 12-1 1-4v-72h-11l-2-1z" fill="#030304"/>
<path transform="translate(1342,1552)" d="m0 0h52l5 4 2 6v7l-6 7-2 1h-50l-1-1z" fill="#E5ECF2"/>
<path transform="translate(732,1691)" d="m0 0 25 1 8 4 3 5 1 9-3 5-3 2 1 6 6 12h-12l-5-6-4-8-5-1v15h-12l-1-1v-42z" fill="#030304"/>
<path transform="translate(566,1691)" d="m0 0 11 1 6 9 5 9 1 1 1-19 2-1h9l1 1v43h-12l-6-10-7-11-1 21h-10z" fill="#030304"/>
<path transform="translate(1261,1691)" d="m0 0h11l6 9 7 12v2h2l-1-10v-12l1-1h10v44h-12l-4-8-7-12-1-1-1 20-1 1h-10l-1-38z" fill="#030304"/>
<path transform="translate(1469,1690)" d="m0 0 12 1 8 6 1 5-5 3-5-1-2-2h-9l-5 5-1 8 2 7 6 3 6-1 3-3v-1l-8-1-1-7 3-3 17 1v24l-3 2-5-1-2-2-5 3h-11l-7-4-6-8-1-3v-15l5-10 5-4z" fill="#030304"/>
<path transform="translate(1208,1691)" d="m0 0h13v15h13v-15h12v29l-1 15h-10l-1-17-13-1v18h-13z" fill="#030304"/>
<path transform="translate(790,1691)" d="m0 0h16l8 4 3 3-2 4-4 3-5-1-4-2h-7l1 4 15 4 5 3 2 5-1 7-4 6-8 5h-12l-10-4-4-4 1-4 5-3 4 1 2 2 7 1 5-2-1-3-15-4-6-5-1-8 3-7 5-4z" fill="#030304"/>
<path transform="translate(1117,1691)" d="m0 0h32v10l-1 1h-19l1 5 18 1v9l-19 1 1 7 21 1 1 9-5 1-29-1-1-1z" fill="#030304"/>
<path transform="translate(515,1691)" d="m0 0h9l2 1 1 31 2 1h8l1-1 1-31 1-1h10l1 1v25l-2 10-3 5-8 4h-10l-8-3-5-6-1-3v-32z" fill="#030304"/>
<path transform="translate(686,1691)" d="m0 0h29l3 1v9l-21 1 1 5 19 1v8l-1 1-18 1v8h22l1 9h-35z" fill="#030304"/>
<path transform="translate(962,1296)" d="m0 0m-1 1m-6 1h6l2 5v8h-4l-6-6h-8l1 3 10 8 7 5 1 3-6 3v2l-17 7-9 7-5 3-2-12-5-16 5-5 13-7v-3h6l8-4z" fill="#E4EBF1"/>
<path transform="translate(1147,923)" d="m0 0h21l8 5 4 6v10l-4 8-6 4-12 3h-9l-1-1-2-34z" fill="#E5ECF2"/>
<path transform="translate(1176,1690)" d="m0 0h11l6 3 6 7-1 4-3 2-6-1-7-4-5 2-4 6v9l4 6 1 1h6l6-4 5-1 5 6-7 7-5 3h-13l-8-5-5-6-2-8v-7l3-10 6-7z" fill="#030304"/>
<path transform="translate(642,1691)" d="m0 0 7 1 5 15 2 10 4-10 4-14 1-1 11-1 1 3-11 33-4 8h-10l-3-4-7-21-6-17v-1z" fill="#030304"/>
<path transform="translate(1015,1691)" d="m0 0h33v10l-1 1h-21l1 6 20 1v9l-20 1-1 16h-11z" fill="#030304"/>
<path transform="translate(937,1266)" d="m0 0 95 1 4 2-1 5-52 1h-26l4 6 6 6v3l-10 1-14-15-7-8z" fill="#E5ECF2"/>
<path transform="translate(968,730)" d="m0 0 18 2 6 5 3 6v10l-3 7-5 4-8 3-11 1-1-1v-35z" fill="#E5ECF2"/>
<path transform="translate(1336,882)" d="m0 0h12l10 4 4 5 1 2v13l-4 6-7 5-12 2h-5l-1-8 1-7z" fill="#E5ECF2"/>
<path transform="translate(890,1691)" d="m0 0h12l6 9 1 4h3l2-5 5-7 2-1h11l-1 5-10 14-3 4-1 17-1 4h-9l-1-1-1-16-4-8-11-16z" fill="#030304"/>
<path transform="translate(1148,882)" d="m0 0h10l10 4 4 4 1 4v11l-3 6-6 4-6 1h-9l-3-1v-11z" fill="#E5ECF2"/>
<path transform="translate(1025,1202)" d="m0 0 3 2 7 29 3 13 2 10 3 10v6l-5-2-5-11-9-14-2-5-3-13-2-6-1-9-3-5z" fill="#E5ECF2"/>
<path transform="translate(1496,1692)" d="m0 0h14l6 11 3-1 7-10h13l-2 4-12 17-1 2-1 20h-10l-1-1v-15l-5-10-11-15z" fill="#030304"/>
<path transform="translate(1075,1691)" d="m0 0h34v10l-10 1-1 33h-12v-33l-11-1z" fill="#030304"/>
<path transform="translate(851,1691)" d="m0 0h33l1 9-1 1h-10v34h-12l-1-33-10-1z" fill="#030304"/>
<path transform="translate(1364,1691)" d="m0 0h10l2 1v33l14-1 1 1 1 10h-29v-43z" fill="#030304"/>
<path transform="translate(1e3 1202)" d="m0 0 4 2 4 3 2 9v10l-3 13-2 9-12 16-5 1 1-8 4-21 2-8 3-14z" fill="#E5ECF2"/>
<path transform="translate(832,1561)" d="m0 0 5 5 10 23 2 4v4h-32l2-5 10-22z" fill="#E5ECF2"/>
<path transform="translate(1020,1291)" d="m0 0 7 1-1 10v13l-4-1-3-5-9-7-2-1 2 9 1 4-9 2h-18l-8 4-3-1 4-14 4-10 4 2 8 11 5 4v2h5l1-18 2-3 5 1 10 8 1-7v-1l-3-1z" fill="#030304"/>
<path transform="translate(999,1341)" d="m0 0h4l1 4-10 15-12 19-8 13-7 9-6-1-6-6 2-6 2-2 4 1 4 6 2 1 3-14 5-13 18-22z" fill="#E5ECF2"/>
<path transform="translate(1064,1209)" d="m0 0 6 1 17 12 11 8 2 7v5h4l-1 4-8-3-10-7-21-14-5-4 2-4z" fill="#E5ECF2"/>
<path transform="translate(1021,1322)" d="m0 0 5 2 7 7 9 12 8 10 8 11 3 7 2 1-1-16-3-3-3-16-2-4 1-6 2-2 5 14 2 15 3 5v10l-4 7-1 3h-2l-6-9-9-12-11-15-12-17z" fill="#E5ECF2"/>
<path transform="translate(617,1691)" d="m0 0h10l1 1v43h-11l-1-12v-30z" fill="#030304"/>
<path transform="translate(1100,1263)" d="m0 0 2 1-2 6-14 15-4 5-3 2-8-1v-3l7-9 2-3-20-1 2-6 2-2 34-1z" fill="#E5ECF2"/>
<path transform="translate(831,1691)" d="m0 0h11v44h-11z" fill="#030304"/>
<path transform="translate(1024,304)" d="m0 0h7l6 3 2 4v9l-3 5-6 3-10-2-4-5v-11l5-5z" fill="#030304"/>
<path transform="translate(1100,334)" d="m0 0 6 1 6 4 2 4-1 9-6 6-5 1-6-3-6-7 1-8 7-6z" fill="#030304"/>
<path transform="translate(1014,1177)" d="m0 0 7 1 4 4 1 2v9l-5 6-4 2h-6l-6-5-2-5 1-7 4-5z" fill="#E5ECF2"/>
<path transform="translate(996,305)" d="m0 0h8l3 4 2 7v9l-8 3h-7l-5-4-2-5v-7l4-5z" fill="#030304"/>
<path transform="translate(1148,433)" d="m0 0h8l6 5 1 8-2 5-2 2-7 2-9-1-3-4v-10l4-5z" fill="#030304"/>
<path transform="translate(1415,1701)" d="m0 0h8l4 4 3 7v7l-5 6-8 1-6-5-2-5v-6l5-8z" fill="#E5ECF2"/>
<path transform="translate(978,1701)" d="m0 0h7l5 5 2 5v8l-5 6-2 1h-6l-5-4-2-5v-9l4-6z" fill="#E5ECF2"/>
<path transform="translate(1072,316)" d="m0 0 7 1 1 5-2 3 4 1 3-4 6 2-1 7-5 10-1 3-6-1-2-2 1-6 1-3-5 2-2 4-6-1-2-2 1-4 5-8z" fill="#030304"/>
<path transform="translate(1330,1700)" d="m0 0 7 3 3 5v13l-6 5h-7l-5-5-1-4v-9l4-6z" fill="#E5ECF2"/>
<path transform="translate(1151,404)" d="m0 0h5l3 13-1 5-3 2h-10l-1 5h-5l-2-5 4-7-3 1-4-4-1-4 9-3z" fill="#0C0C0D"/>
<path transform="translate(911,517)" d="m0 0h2l1 5-3 10 6-3h4l2 5-16 12-4-2-1-6 1-6-4 3-4-1-2-3v-3l12-7z" fill="#030304"/>
<path transform="translate(891,425)" d="m0 0h3l-1 8-1 2-3 1-1 3 4-1 1 5-1 3-19-1-3-1 1-12 3-6h7l5 1z" fill="#060607"/>
<path transform="translate(1136,485)" d="m0 0 6 1 5 3 10 2-1 5-3 4h-8v2l7 3-1 5-4 2-14-6-3-1v-5l2-2 8-2 1-2-6-1-1-3z" fill="#030304"/>
<path transform="translate(1123,352)" d="m0 0 5 3 3 5v9l-6 7-7 1-8-7-2-2 1-5 9-6z" fill="#060607"/>
<path transform="translate(1e3 573)" d="m0 0 6 2 4 3v5l-2 1 2 10-2 3-10 1-7-4-1-5 4-4-2-4 1-4 4-3z" fill="#080809"/>
<path transform="translate(1073,1234)" d="m0 0 4 1 1 4-16 24-12 17-4 4-7 1 6-10 11-16 8-12 8-11z" fill="#E5ECF2"/>
<path transform="translate(1026,574)" d="m0 0h6l6 4 1 3v10l-4 5-6 3h-6v-2h5l-8-10-1-6 5-6z" fill="#0D0D0E"/>
<path transform="translate(1141,375)" d="m0 0 3 3 1 6-10 4h-2l1 5 6-2 7-5 4 6-2 4-10 4h-8l-4-4-2-3v-7l5-5 8-5z" fill="#030304"/>
<path transform="translate(918,341)" d="m0 0h5l9 6 8 3-1 4-5 4-5-2-4-3 3 8-1 5-2 2h-3l-6-14-3-4 1-5z" fill="#030304"/>
<path transform="translate(887,453)" d="m0 0h5l1 4v13l-16 2h-5l-1-2-1-13 3-2h7l-1 3h-2l1 4 6-8z" fill="#0E0E10"/>
<path transform="translate(1141,462)" d="m0 0 20 2 1 1v9h-3l-4 1 6 2v4l-8-1-4-4-4 1-2 3h-5l1-12z" fill="#070708"/>
<path transform="translate(993,1323)" d="m0 0h6l10 8 9 9 3 1 2-4 4 2 1 4-7 8-5-1-12-12-7-8-4-5z" fill="#E5ECF2"/>
<path transform="translate(926,544)" d="m0 0 9 1 3 4 1 8-8 11-4-1-3-3 1-4 6-6h2l-1-4-5 1-6 9-4-2-3-3v-3l9-7z" fill="#030304"/>
<path transform="translate(873,481)" d="m0 0h14l9 1 2 4-1 5-10 8-7 4-3-5v-4l10-5v-2l-11 1-3-4z" fill="#030304"/>
<path transform="translate(1064,1299)" d="m0 0 11 2 1 3 4 1v4h-3l-1-3-7-1-1 3 6 4-1 2-7 2-1 3 13-2-2 5-2 3-9-2-6-3-4-1 2-4 6-15z" fill="#030304"/>
<path transform="translate(981,1295)" d="m0 0 4 2 8 11 5 4v2l3 1-12 1-8 1-5 3-3-1 4-14z" fill="#080809"/>
<path transform="translate(935,1312)" d="m0 0 5 2 11 9 5 5-5 2-6-1-5-1v4h-2l-2 4-4 2v-17z" fill="#0E0F10"/>
<path transform="translate(1088,1308)" d="m0 0 8 2 9 4v3l-8 5-8 4 3 1h8l1 4-3 2h-7l-4-3-9-3 4-5 8-4 5-2-9-3v-4z" fill="#040405"/>
<path transform="translate(944,323)" d="m0 0h3l1 7v2l6 2v8l-6 5-4 2-5-9-3-4v-6z" fill="#060607"/>
<path transform="translate(904,357)" d="m0 0 5 1-1 5-1 3 10 6 1 5-3 4-4-2-3-2v-2l-5-2h-3l-3 3-4-1 1-5 7-10z" fill="#030304"/>
<path transform="translate(1030,1347)" d="m0 0 4 2 2 3-1 4-6 4-11 2-16-3 1-6 2-4 5 1 8 7 5-3z" fill="#E5ECF2"/>
<path transform="translate(1126,511)" d="m0 0 5 1v6l-3 3h3l2-4 7 1 1 5-3 9-3 3-3-1v-7l-9 1-2-7 2-8z" fill="#030304"/>
<path transform="translate(1045,307)" d="m0 0 11 2 8 3-1 5-1 1h-5l-3 13-3 1-5-2-1-3 4-12-4-2-1-5z" fill="#030304"/>
<path transform="translate(1015,1249)" d="m0 0 5 1 9 10 1 4h-27l2-5 6-8z" fill="#E5ECF2"/>
<path transform="translate(1098,544)" d="m0 0h5l2 4-2 3-3 1 10 2 1 5-3 5-4 4h-5l-1-5 3-3-9-2-2-4 4-4 1-4z" fill="#030304"/>
<path transform="translate(881,399)" d="m0 0 5 1 1 3-4 3v2l6-5 7 1 3 5-2 8-3 4-4-3 1-5 3-4-6 5-6 2-3-3-2-3 1-6z" fill="#030304"/>
<path transform="translate(1e3 1398)" d="m0 0 3 1h4l1 4v7l2 3-6 6-5-1-5-3 1-6 2-9z" fill="#030304"/>
<path transform="translate(1048,571)" d="m0 0h6l4 13 3 3-1 4-8 4h-2l-1-12-4-5v-5z" fill="#030304"/>
<path transform="translate(980,571)" d="m0 0h5l1 1-1 11-1 7v4l-6-1-6-3 1-4 4-5-2-5 1-4z" fill="#030304"/>
<path transform="translate(1033,389)" d="m0 0 6 2 1 1 1 13-3 3h-5l-4-10-4-4 1-4z" fill="#E5ECF2"/>
<path transform="translate(1043,1396)" d="m0 0 7 1 4 7-2 6-4 4-4-1-6-7v-6z" fill="#101112"/>
<path transform="translate(947,1214)" d="m0 0 4 1 7 10-1 5-3 3-5-1-8-10v-3l4-1z" fill="#E5ECF2"/>
<path transform="translate(1023,1397)" d="m0 0 4 1 5 5 2 9-1 5-3 1h-11l5-10 2-9-5 3-4 4v-4z" fill="#141516"/>
<path transform="translate(901,502)" d="m0 0 4 2 2 4v3l-13 5-5 3-3-1-2-4 1-4 12-5z" fill="#030304"/>
<path transform="translate(999,1277)" d="m0 0h36l1 4-1 1h-36z" fill="#E5ECF2"/>
<path transform="translate(1110,531)" d="m0 0 5 1 8 8 5 3-2 5-2 2-4-1-8-8-4-2-1-4 1-3z" fill="#030304"/>
<path transform="translate(887,381)" d="m0 0 5 1 16 8-2 6-5 1-7-5-9-3 1-6z" fill="#030304"/>
<path transform="translate(1056,389)" d="m0 0h6l4 2-2 10-3 3-7 1-1-1-2-9 1-5z" fill="#E5ECF2"/>
<path transform="translate(979,1328)" d="m0 0h4l-2 9-3 11-2 11-3 5-2-1 1-14 2-4 2-15z" fill="#E5ECF2"/>
<path transform="translate(1014,1182)" d="m0 0h6l2 3v6l-5 5-7-1-2-2v-6l4-4z" fill="#030304"/>
<path transform="translate(1069,1277)" d="m0 0 3 1-2 5-4 4h-8l-6-1 1-4 4-4z" fill="#E5ECF2"/>
<path transform="translate(1073,564)" d="m0 0 5 1 6 2 1 3-5 8-5-1-4-2 1-10z" fill="#030304"/>
<path transform="translate(1020,409)" d="m0 0h3l2 13v12h-4l-2-5-1-6v-12z" fill="#E5ECF2"/>
<path transform="translate(968,316)" d="m0 0 5 1 3 2v8l-3 3-4-1-6-3 1-5z" fill="#030304"/>
<path transform="translate(988,1396)" d="m0 0h6l1 4-3 16-7-2-1-4 4-5-2-7z" fill="#030304"/>
<path transform="translate(962,1296)" d="m0 0m-1 1m-6 1h6l2 5v8h-4l-6-6-8-1 4-4z" fill="#E5ECF2"/>
<path transform="translate(983,1277)" d="m0 0h2l-1 4-3 5-2 1h-6l-7-6v-3h16z" fill="#E5ECF2"/>
<path transform="translate(745,1701)" d="m0 0h8l4 1 1 5-2 3-3 1h-8l-2-7z" fill="#E5ECF2"/>
<path transform="translate(955,564)" d="m0 0 4 1 3 8-2 3-7 1-3-3-1-6z" fill="#030304"/>
<path transform="translate(959,1235)" d="m0 0h2l10 13 10 14v2h-4l-12-16-6-10z" fill="#E5ECF2"/>
<path transform="translate(982,423)" d="m0 0h4v9l-3 5-4-1-3-4-1-5z" fill="#E5ECF2"/>
<path transform="translate(954,413)" d="m0 0h3l3 7-1 4-4 2h-5l-1-4 4-8z" fill="#E5ECF2"/>
<path transform="translate(936,1345)" d="m0 0 4 2 5 5v2l-14 1-1-4 5-5z" fill="#E5ECF2"/>
<path transform="translate(1096,1346)" d="m0 0 5 1 5 5-2 4-11-1v-4z" fill="#E5ECF2"/>
<path transform="translate(1058,1224)" d="m0 0 5 2 6 4-2 5-3 2h-5l-1-5z" fill="#E5ECF2"/>
<path transform="translate(968,408)" d="m0 0 9 2 2 4-3 3-6 1-4-5-1-4z" fill="#E5ECF2"/>
<path transform="translate(1071,1379)" d="m0 0 6 1 5 4-1 3-4 2-3 3h-2l1-5h2l1-5h-5l-7 8-2-1 2-4z" fill="#E5ECF2"/>
<path transform="translate(1025,310)" d="m0 0h5l2 2v6l-3 4-5-2-1-1 1-8z" fill="#E5ECF2"/>
<path transform="translate(984,1315)" d="m0 0h18l1 2-10 2-19 2 5-4z" fill="#E5ECF2"/>
<path transform="translate(963,432)" d="m0 0 3 1 2 5-1 5-5-1-6-3 1-3z" fill="#E5ECF2"/>
<path transform="translate(1150,440)" d="m0 0 5 1 2 2-1 5h-4l-7-3 2-4z" fill="#E5ECF2"/>
<path transform="translate(1089,1327)" d="m0 0h11l1 4-3 2h-7l-4-4z" fill="#030304"/>
<path transform="translate(997,311)" d="m0 0 4 1 2 4-3 5-5-1-1-3z" fill="#E5ECF2"/>
<path transform="translate(955,1341)" d="m0 0 18 2v2l-14 1-6-2v-2z" fill="#E5ECF2"/>
<path transform="translate(996,419)" d="m0 0 3 1v10h-4l-1-2v-7z" fill="#E5ECF2"/>
<path transform="translate(936,423)" d="m0 0 4 1 3 4-2 4h-4l-1-2z" fill="#E5ECF2"/>
<path transform="translate(1081,1342)" d="m0 0 12 1-4 2h-21v-2z" fill="#E5ECF2"/>
<path transform="translate(1102,342)" d="m0 0 4 2v5l-5 1-2-2 1-5z" fill="#E5ECF2"/>
<path transform="translate(945,442)" d="m0 0 4 2 4 5-4 1-5-3z" fill="#E5ECF2"/>
<path transform="translate(992,440)" d="m0 0 2 1-2 4-5 5-3-3z" fill="#E5ECF2"/>
<path transform="translate(968,1365)" d="m0 0h2l1 16-2-1-2-8z" fill="#E5ECF2"/>
<path transform="translate(989,1277)" d="m0 0 5 1v6l-7 1 2-5z" fill="#E5ECF2"/>
<path transform="translate(945,404)" d="m0 0h4l-1 5-4 3h-3l1-4z" fill="#E5ECF2"/>
<path transform="translate(944,1345)" d="m0 0 5 1 2 2-1 5-5-3-2-4z" fill="#E5ECF2"/>
<path transform="translate(945,1291)" d="m0 0 7 2v1l-13 1-3-1v-2z" fill="#E5ECF2"/>
<path transform="translate(965,397)" d="m0 0h7v2l-9 3h-2v-3z" fill="#E5ECF2"/>
<path transform="translate(1044,1243)" d="m0 0h15l-1 3-13-1z" fill="#E5ECF2"/>
<path transform="translate(1051,1309)" d="m0 0h3l-1 4-1 1h-5v-4z" fill="#030304"/>
<path transform="translate(1088,1291)" d="m0 0 7 1 3 3-2 1-11-2z" fill="#E5ECF2"/>
<path transform="translate(1e3 1409)" d="m0 0 4 1-1 5-4 1-1-3z" fill="#E5ECF2"/>
<path transform="translate(985,1241)" d="m0 0h3l-2 4-4-1-1 1h-7l2-2z" fill="#E5ECF2"/>
</svg>
