<?xml version="1.0" encoding="UTF-8"?>
<svg version="1.1" viewBox="0 0 880 880" width="1280" height="1280" xmlns="http://www.w3.org/2000/svg">
<path transform="translate(0)" d="m0 0h880v880h-880z" fill="#0B58A0"/>
<path transform="translate(0)" d="m0 0h880v880h-880zm416 65-30 3-24 4-32 8-29 10-23 10-22 11-25 15-17 12-14 11-11 9-12 11-8 7-7 8-11 11-20 25-11 16-11 18-10 18-13 27-11 30-7 24-6 27-4 30-2 29v24l3 34 4 26 9 36 10 29 11 25 11 21 12 20 11 16 12 16 9 11 12 13 25 25 22 18 15 11 15 10 19 11 21 11 32 13 24 8 29 7 24 4 25 3 19 1h22l25-2 24-3 34-7 27-8 17-6 21-9 16-8 17-9 19-12 17-12 13-10 15-13 16-15 16-17 13-15 13-18 8-12 9-15 8-14 11-22 9-22 10-31 7-30 4-25 2-17 1-18v-27l-2-27-4-29-6-27-7-24-10-27-7-16-8-16-14-24-12-18-9-12-11-14-11-12-16-17-3-1v-2l-8-7-10-9-13-10-18-13-19-12-19-11-28-13-24-9-26-8-26-6-25-4-24-2z" fill="#FDFDFD"/>
<path transform="translate(416,65)" d="m0 0h48l32 3 36 7 27 8 25 9 18 8 16 8 20 11 21 14 15 11 14 11 12 11 4 3v2l4 2 8 8 7 8 8 8 11 14 10 13 12 18 9 15 10 18 9 19 11 28 6 19 7 28 4 23 3 26 1 17v27l-2 27-4 28-6 27-7 24-6 17-10 24-13 26-8 13-10 16-14 19-11 13-9 10-14 15-17 16-11 9-18 14-12 8-16 10-16 9-15 8-21 9-19 7-26 8-32 7-20 3-18 2-17 1h-22l-19-1-39-5-32-7-26-8-30-12-19-9-20-11-20-13-14-10-14-11-10-9-8-7-27-27-9-11-11-14-12-17-12-19-14-26-10-22-9-25-7-24-6-26-4-30-2-25v-24l2-29 4-30 8-35 11-33 10-24 12-24 13-22 8-12 12-16 18-22 31-31 11-9 15-12 17-12 25-15 23-12 20-9 25-9 24-7 28-6 30-4zm5 114-31 4-22 5-27 9-19 8-10 5-16 10-12 8-12 9-11 9-12 11-12 13-9 11-9 12-7 10-8 13-8 16-8 17-11 36-5 27-3 32v18l3 24 5 26 7 24 7 20 5 9-13 8-19 10-23 13-18 10-12 7-7 3 1 5 11 20 18 27 16 21 10 11 7 8 18 18 8 7 13 11 19 14 19 12 17 10 24 12 27 11 26 8 25 6 22 4 26 3h57l26-3 24-4 28-7 24-8 27-11 26-13 23-14 16-11 15-12 11-9 8-8 8-7 11-11 7-8 12-14 12-16 11-16 13-22 5-9v-3l-15-8-21-12-29-16-21-12-5-3h-2l4-6 10-23 6-19 5-25 3-26v-42l-4-28-4-19-6-20-11-25-10-21-15-22-11-15-11-12-15-15-11-9-17-13-17-11-23-12-26-11-21-6-20-4-23-3-9-1z" fill="#432579"/>
<path transform="translate(195,566)" d="m0 0 4 1 8 16 10 16 14 19 9 10 7 8 10 10 8 7 14 11 21 14 22 12 20 9 21 7 19 5 23 4 25 2h21l31-3 27-6 20-6 25-10 23-12 11-7 17-12 14-12 12-11 8-8 9-11 11-14 10-15 10-17 3-6 6 2 13 8 24 13 46 26 4 2-1 5-15 26-13 19-14 18-12 14-14 15-8 8-8 7-11 10-24 18-22 14-18 10-27 13-35 13-26 7-25 5-23 3-11 1h-57l-26-3-22-4-25-6-20-6-26-10-29-14-16-9-19-12-19-14-10-8-12-11-8-7-18-18-9-11-7-8-14-19-13-20-12-21-2-3v-4l14-7 18-10 23-13 24-13z" fill="#FDFDFD"/>
<path transform="translate(350,296)" d="m0 0h5l-2 3-12 6-17 11-11 9-10 9-9 10-11 15-9 16-7 15-6 18-3 15-1 9v35l4 21 7 21 9 19 10 15 10 13 8 9 8 7 10 8 15 10 14 8v2l-9-1-35-13-18-8-21-12-14-10-10-8-21-21-10-14-9-16-7-19-3-16v-25l3-18 5-15 10-19 12-16 11-12 13-12 17-12 13-8 21-11 24-10 21-7z" fill="#FDFDFD"/>
<path transform="translate(527,296)" d="m0 0 7 1 24 8 26 11 19 10 17 11 12 9 15 14 11 12 10 15 9 17 5 15 3 14v29l-3 16-6 17-9 17-8 11-9 10-6 7-8 7-11 9-16 11-19 11-25 11-19 7-14 4h-4l1-4 16-8 17-12 10-9 6-5 7-8 10-13 9-15 7-14 7-19 4-19 2-24-1-21-5-25-7-19-11-21-8-12-9-11-9-10-14-12-11-8-21-12z" fill="#FDFDFD"/>
<path transform="translate(97,617)" d="m0 0h5v3l4 1 11 20 18 27 16 21 10 11 7 8 17 17 8 7 13 11 19 14 19 12 17 10 24 12 27 11 26 8 25 6 22 4 26 3h57l26-3 24-4 28-7 24-8 27-11 26-13 23-14 16-11 15-12 11-9 8-8 8-7 10-10 7-8 12-14 12-16 11-16 13-22 4-7 2-1 1-3 4 1 1 5-7 13-11 18-8 12-14 19-9 10-7 8-15 16-17 16-11 9-18 14-12 8-16 10-16 9-15 8-21 9-19 7-26 8-32 7-20 3-18 2-17 1h-22l-19-1-39-5-32-7-26-8-30-12-19-9-20-11-20-13-14-10-14-11-10-9-8-7-27-27-9-11-11-14-12-17-12-19-11-20z" fill="#0E0D48"/>
<path transform="translate(499,300)" d="m0 0 9 2 16 7 19 12 16 13 13 12 9 11 7 10 9 16 8 20 5 22 1 9v30l-4 22-7 21-12 23-13 17-19 19-12 9-17 11-19 9-8 2 4-4 16-9 16-11 12-11 6-5 13-17 10-17 6-12 5-14 5-20 2-17v-24l-2-15-5-21-6-16-8-16-10-16-12-14-9-9-10-8-20-12-14-8z" fill="#FDFDFD"/>
<path transform="translate(468,298)" d="m0 0 5 2 9 7 12 12 9 13 9 16 8 19 7 24 5 30 1 22v13l-2 30-5 24-4 15-7 19-8 16-8 12-13 16-10 9-7 4-2-1 7-8 9-10 8-13 9-21 6-18 6-26 3-22 1-14v-40l-2-22-5-25-6-22-7-19-8-16-8-11-3-3v-2l-4-2-5-6z" fill="#FCFDFD"/>
<path transform="translate(406,298)" d="m0 0h2l-2 5-7 7-9 12-9 17-8 20-5 17-4 20-3 24-1 19v24l2 26 4 24 6 23 7 19 8 16 6 10 9 10 6 7v3l-5-2-12-11-10-11-10-15-10-19-6-16-5-17-5-27-1-8v-50l4-27 6-24 11-28 9-15 8-11 8-9h2l2-4 10-8z" fill="#FCFDFD"/>
<path transform="translate(378,300)" d="m0 0 4 1-16 8-16 10-11 9-11 10-7 8-10 14-9 15-5 11-5 13-5 21-2 17v24l3 21 6 21 9 21 11 18 11 13 5 5v2l4 2 10 9 10 7 16 9 11 6v3l-13-5-19-9-14-10-16-13-13-13-12-16-10-17-7-16-5-17-3-18v-31l3-19 8-24 10-19 8-12 8-10 12-13 11-9 14-10 15-9 17-7z" fill="#FCFDFD"/>
<path transform="translate(439,289)" d="m0 0 3 1 1 36 1 107v76l-1 70-1 28-2 1-2-1-1-4-1-20v-281l1-11z" fill="#F1FCFC"/>
<path transform="translate(776,619)" d="m0 0 4 1 1 5-7 13-11 18-8 12-14 19-9 10-7 8-15 16-17 16-11 9-18 14-12 8-16 10-16 9-15 8-14 6h-5l-1-6 18-8 20-10 23-14 16-11 15-12 11-9 8-8 8-7 10-10 7-8 12-14 12-16 11-16 13-22 4-7 2-1z" fill="#0E0B45"/>
<path transform="translate(536,725)" d="m0 0h7l7 3 3 4 1 7-2 4-5 5 9 1 5 3 3 7v6l-7 8-8 4-15 5-5 1 2-3-1-9-10-31-2-4-5-2 1-2 9-2z" fill="#0E1162"/>
<path transform="translate(97,617)" d="m0 0h5v3l4 1 11 20 18 27 16 21 10 11 7 8 17 17 8 7 13 11 19 14 19 12 17 10 4 2-1 5v3l-14-7-24-15-16-12-13-10-10-9-8-7-27-27-9-11-11-14-12-17-12-19-11-20z" fill="#0E0B46"/>
<path transform="translate(117,308)" d="m0 0 2 1 1 9 11 3 31 10 4-1 3-5h2l-1 5-8 21h-1v-10l-12-3-25-8 16 12 13 10 6 4v3l-43 2 2 2 29 9 5-1 4-3-2 10-3 7h-2l-2-7-35-12-5-2-5 1-2 3h-3l1-5 4-9 5-2 11-1 23-1-8-7-13-10-8-7 1-6 3-11z" fill="#FCFDFD"/>
<path transform="translate(724,244)" d="m0 0 5 5 7 10 6 10 1 3v7l-4 7-4 2h-7l-10-6 1 9-4 7-10 8 1 4 3 3-1 3-4-1-5-7v-9l7-8 5-4 3-5-2-9-20 12v5l1 4-4-4-10-15v-2l4 1v2l7-3 20-12 14-9 1-4z" fill="#FCFDFD"/>
<path transform="translate(110,413)" d="m0 0h11l12 2 8 5 3 5v7l-4 6-6 5-15 2-14-2-8-4-5-6v-10l5-6 7-3z" fill="#42267A"/>
<path transform="translate(391,740)" d="m0 0h15l3 8 8 25v3l2-1 7-19 6-13 3-1 14 1 1 2-7 2-1 1-3 44 7 2v1h-23l1-2 4-2 2-10 2-20v-7l-5 11-9 21-2 6-3-1-7-23-5-15-2 35 3 2v2h-10l-4-2 4-2h2l1-20 1-13v-11l-6-2z" fill="#0D1364"/>
<path transform="translate(109,402)" d="m0 0h16l8 3 10 9 4 8v12l-4 9-6 7-10 5-4 1h-13l-12-6-7-8-3-10v-7l3-9 8-9zm1 11-9 2-6 4-3 4v10l6 7 11 4 12 1 13-2 8-7 2-4v-7l-3-5-8-5-12-2z" fill="#FCFDFD"/>
<path transform="translate(635,673)" d="m0 0h10l10 7 7 10 2 4v13l-6 8-3 3-5-1-11-13-9-11-7-9 1-4 8-6z" fill="#FDFDFD"/>
<path transform="translate(638,668)" d="m0 0h14l8 3 7 7 4 8 1 5v7l-4 10-7 8-10 8-8 7-2-1 2-2v-5l-13-15-13-16-4-1h-4l1-3 10-7 10-9zm-3 5-6 3-6 5 1 5 9 10 11 14 7 8 5-1 6-7 2-3v-13l-6-10-5-5-5-4-3-2z" fill="#0B1262"/>
<path transform="translate(480,98)" d="m0 0 12 2 5 3 8 15 9 20 2 6h2l3-20 2-9v-5l-5-3v-1l10 1 5 2-2 2h-3l-1 9-6 27-3 16-4-2-8-16-11-24-3-7-2 7-6 33 5 2 1 2-6-1-12-3 4-2h3l5-27 3-14v-7l-7-4z" fill="#FCFDFD"/>
<path transform="translate(186,206)" d="m0 0 16 6 33 13h6l5-2-1 4-7 6-8 10-3 1 2-5 2-4-12-5-3-1-2 4-6 6v6l5 8v2h2l1-3h3l-2 4-6 7-3 1v-8l-8-18-12-25-2-3z" fill="#FBFDFD"/>
<path transform="translate(143,477)" d="m0 0h3l-1 7 5 8 1 4v11l-4 9-6 8-9 5-9 2-11-1-8-4-5-4-5-8-1-4v-14l1-3-1-6h8l9-1v3l-8 4h-2l-3 6v8l2 5 6 5 6 1h11l12-3 8-5 4-6 1-6-2-6-5-6-10-2-5-2 1-2 15-2z" fill="#FCFDFD"/>
<path transform="translate(436,97)" d="m0 0h15l-1 3h-4l1 20v22l-4 8-7 4-3 1h-14l-8-4-4-6-2-7-1-35-6-2 1-2 21-1v2l-5 3v15l1 19 2 9 3 3 2 1h11l5-3 2-3 1-5v-11l-2-28-4-1z" fill="#FCFDFD"/>
<path transform="translate(168,618)" d="m0 0 10 2 5 4 4 10-2 9-6 7-5 2h-9l-7-4-4-5-2-9 3-8 6-6z" fill="#41267A"/>
<path transform="translate(701,618)" d="m0 0 9 1 6 4 4 7v11l-5 7-8 4h-7l-7-3-5-6-1-3v-10l5-8z" fill="#412579"/>
<path transform="translate(675,188)" d="m0 0 5 3 9 10 8 7 8 9-1 4-6 7-5 1 2-4 3-5v-5l-11-12-4 1-12 12-1 3-5 3-13 12-1 3 14 14 6-1 6-4h2l-1 4-10 9-7-6-7-7-7-8-11-10v-3h3l1 2 5-1 31-31z" fill="#FCFDFD"/>
<path transform="translate(581,705)" d="m0 0 5 3 7 7 12 9 14 12 5 2 5-1v3l-17 9-5 2 5-6-1-4-6-5-5 1-8 4h-2l1 10 1 6 2 1-9 6h-2v-3l3-2-1-11-4-35-1-7z" fill="#0C1363"/>
<path transform="translate(751,318)" d="m0 0h9l8 5 3 5 2 11 2 4-5 3-5 2h-5l2-4 5-4 1-8-3-5-3-2-6 1-4 2-2 7-2 16-4 8-4 3-6 1-9-3-6-5-4-8-1-11-2-5 10-4 7-1-1 4-5 3h-2l-2 7 1 8 5 5 5 1 6-3 3-8 3-16 2-5z" fill="#FCFDFD"/>
<path transform="translate(359,731)" d="m0 0h4l1 22 3 25 2 6 3 3v2l-9-3-15-4 1-2h7v-14l-13-3h-2l-4 5-4 8 5 1v2l-11-3-6-3 3-1 5-1 8-11 9-12 9-11z" fill="#0E1563"/>
<path transform="translate(480,739)" d="m0 0 3 1 16 30 8 13 3 2 5 1-2 2-17 3h-7l1-2 7-1-4-9-3-5-3 1-11 1-3 9v5l5 1-1 2-11 2h-5v-2l5-2 3-9 6-24 3-11 1-7z" fill="#0D1160"/>
<path transform="translate(775,426)" d="m0 0 14 1 2 1v46l-1 1-15 1v-4l9-2 3-3 1-3v-7l-33-1h-18v7l-3-2v-22l2-1 3 6 50 1-3-12-10-4z" fill="#FCFDFD"/>
<path transform="translate(787,500)" d="m0 0 1 4-5 20-2 2-1-8-12 3-11 3-1 3 4 2 11 9 5 3 2-5 2-2-1 9-2 9h-3l-3-7-7-7-11-9-5-3-15-3h-4l-3 5-2-1 4-20 2-4 2 1v7l17 4 12-2 21-6z" fill="#FCFDFD"/>
<path transform="translate(320,118)" d="m0 0 3 1 4 10v3l-5-2-4-4-6-1-6 3-2 4 1 7 3 3 12 2 13 2 6 4 3 6-1 9-6 9-8 4-10 1-2 2-4-1-5-12 1-4 6 7 6 3h7l6-3 3-6-3-7-4-3-24-4-5-4-2-4v-10l4-6 5-4 5-2 7-1z" fill="#FBFDFD"/>
<path transform="translate(260,146)" d="m0 0 5 1 5 5 3 5v2l-4-1-5-5-5-1-8 4h-2l9 14 15 22 4 5h6l-1 3-10 6-5 4h-2l2-4-1-5-8-12-13-19-3-4v-2l-7 3-3 5 3 12-4-1-6-10 2-5 11-7 12-8z" fill="#FCFDFD"/>
<path transform="translate(149,253)" d="m0 0 4 2 8 5 1 2-13-1-5 4-2 7 3 5 3 2 8-1 13-8 5-2h9l6 4 3 6 1 7-3 9-6 8-3 2-2 5-5-2-9-7-1-3 7 2h10l5-5 2-4v-6l-5-5-6-1-9 4-12 6-8 1-6-4-4-5-1-3v-7l6-9 4-5z" fill="#FCFDFD"/>
<path transform="translate(592,515)" d="m0 0 2 1-1 5-8 13-10 13-19 19-12 9-17 11-19 9-8 2 4-4 16-9 16-11 12-11 6-5 13-17 10-17 3-3-1 7-1 2 6-4 3-4h2l2-5z" fill="#EFFCFC"/>
<path transform="translate(499,300)" d="m0 0 9 2 16 7 19 12 16 13 13 12 9 11 7 10 9 16 7 17-2 1-6-6v-8l-5-2-4-8-8-14-4-4h-3l2 6h-2l-9-14-11-13-9-9-10-8-20-12-14-8z" fill="#FCFDFD"/>
<path transform="translate(608,140)" d="m0 0 5 2 19 12-1 2-7-3h-3l-8 36 6-2v-2l16-11 8-6 1-4-4-2-1-2 5 2 11 8-2 1h-6l-18 13-16 11-10 8h-2l1-8 9-43v-7l-3-3z" fill="#FCFDFD"/>
<path transform="translate(255,683)" d="m0 0h9l7 4 9 8-2 4-5 7-3-1 1-4v-8l-6-5-4-1-5 3-1 1v7l7 15 2 7-1 7-6 5-11 2-9-4-8-9-4-4 9-11 2 1-2 12 4 7 6 3 5-1 5-5-1-8-8-19 2-6 5-6z" fill="#0A0F5E"/>
<path transform="translate(292,702)" d="m0 0 10 5 9 3v1l-7 2-7 14-10 21-2 4v3l12 5 4 1v2l7-5 3-3 3-1-1 6-6 8-6-2-32-16v-2l7-2 8-16 10-19-1-5z" fill="#0B1263"/>
<path transform="translate(265,782)" d="m0 0 6 2 23 11 18 7 26 8 11 3v4l6 1 1 2-7 1-23-6-25-9-26-11-10-5-2-5h2z" fill="#0E0F60"/>
<path transform="translate(783,377)" d="m0 0 2 2 2 13v6h-2l-2-4-38 6-10 1-1 7-2-1-2-12-2-9h2l3 4 34-5 14-2 1-5z" fill="#FCFDFD"/>
<path transform="translate(534,728)" d="m0 0 5 1 5 6v11l-5 4-1 2 9-1 6 5 3 9-3 6-6 5h-5l-3-7-7-22-4-11v-5z" fill="#FCFDFD"/>
<path transform="translate(561,118)" d="m0 0 20 8-4 2-4 8-14 34v6l3 3-4-1-15-7-1-2h5l4-8 13-32 1-6-4-3z" fill="#FBFDFD"/>
<path transform="translate(230,656)" d="m0 0 5 2 10 10 2 1v2l-7-1-16 17-9 9-1 2h-2l-1 6 1 4-4-2v-2l-4-2-5-4v-2l7-4 9-10 15-16 2-3-1-4z" fill="#0B1362"/>
<path transform="translate(511,512)" d="m0 0 1 4-1 11-3 14-3 4-3 7v3l4-2 4-1-2 6-9 14-13 16-10 9-7 4-2-1 7-8 9-10 8-13 9-21 6-18z" fill="#F0FCFC"/>
<path transform="translate(638,668)" d="m0 0h14l8 3 7 7 4 8 1 5v7l-4 10-7 8h-3l2-4 3-5v-13l-6-10-2-4-4-2-8-5-8-1z" fill="#0A0F61"/>
<path transform="translate(359,731)" d="m0 0h4v34l-2-2-2 2-2-2-2-18-7 8-7 10-4 5-4 8 5 1v2l-11-3-6-3 3-1 5-1 8-11 9-12 9-11z" fill="#131453"/>
<path transform="translate(583,556)" d="m0 0 3 1-5 5-4 5-3 6-9 8 1 6-1 2-19 7-14 4h-4l1-4 16-8 17-12 10-9 6-5z" fill="#EFFCFC"/>
<path transform="translate(778,517)" d="m0 0 3 1 1 11-1 8h-3l-2 4-5-2-13-11-2-1 1-4z" fill="#3D297B"/>
<path transform="translate(198,480)" d="m0 0 2 1 6 16 9 16 8 11 9 10 16 16 18 13 17 10 7 4-1 2-4-1v-2l-6-2-10-6-6-3-8-7-8-5-4-3v-2l-4-2v-2l-4-2-4-4v-2l-4-2v-2l-4-2-8-10-6-9-7-13-2-9-2-5z" fill="#09367A"/>
<path transform="translate(476,755)" d="m0 0 1 4 1 3 2-7 5 5 4 9v5l-2 1-11 1-3 9v5l5 1-1 2-11 2h-5v-2l5-2 3-9 6-24z" fill="#211C6C"/>
<path transform="translate(605,490)" d="m0 0h2l-1 6-4 14-7 14-3 4-3 6-7 10-4 5-5 5-9 10-9 6-5 1 4-5 8-7 14-14 12-17 11-21z" fill="#063C7F"/>
<path transform="translate(315,322)" d="m0 0h5l-6 7-8 8h-2l-2 4-8 9-4 7-4 5h-2l-1 5-3 3-3 6h-2l-1 6-2 2-1 5-3 4-2 3v-6l11-23 10-15 9-11 12-13z" fill="#063B7D"/>
<path transform="translate(564,340)" d="m0 0 4 2 11 12 9 13 9 16 7 17-2 1-6-6v-8l-5-2-4-8-8-14-4-4-4-2-5-14z" fill="#EFFCFC"/>
<path transform="translate(432,751)" d="m0 0h1v10l-3 27-3 5-4 1-4-3-2-1 1-6 8-19z" fill="#EFFCFC"/>
<path transform="translate(272,658)" d="m0 0h3v2l5 2 7 5v2l4 1 8 6 11 6 16 8 9 4 7 3 6 2 10 3 5 2 10 2 5 2 25 5 18 2v1h-16l-23-4-29-8-25-10-25-13-21-14-9-7z" fill="#063F82"/>
<path transform="translate(592,540)" d="m0 0h3l-1 4-11 13-9 10-11 9-12 9-5 3-3-1 3-3h2l2-4 9-7 12-11 14-16z" fill="#063B7D"/>
<path transform="translate(626,114)" d="m0 0 5 1 18 11 17 12 16 12 14 12 8 7v2l4 2 8 8 7 8 8 8 11 14 1 4-5-5-7-9-27-27-7-8-11-10-9-6v-2l-4-2-12-8-9-7-12-8-11-6z" fill="#11124E"/>
<path transform="translate(261,477)" d="m0 0 2 2 2 11 3 8 5 14 6 13 8 13 1 3 3 1 2 5 6 7 3 6-4-2-7-8-12-17-10-19-7-19-2-7v-10z" fill="#063A7C"/>
<path transform="translate(730,260)" d="m0 0 4 1 3 7-1 6-4 4-4 2h-6l-7-6 1-5 11-7z" fill="#3D2678"/>
<path transform="translate(589,318)" d="m0 0 9 3 10 6 7 3 10 8 11 8 9 9 2 1v2h2l7 8 9 11 4 7 4 6 2 5v3h-2l-9-16-9-12-11-12-14-13-19-13-22-13z" fill="#092C73"/>
<path transform="translate(569,340)" d="m0 0 7 6 11 12 3 6 2 5h2l8 18 5 13v7h-2l-6-17-8-16-6-10-9-12-8-9z" fill="#063B7D"/>
<path transform="translate(527,296)" d="m0 0 7 1 24 8 12 5 1 2-9-1h-3l-1 4 2 1-2 1-18-11-12-7z" fill="#F0FCFC"/>
<path transform="translate(545,565)" d="m0 0 3 1-1 5-4 5-18 11-20 9-5 1 4-4 16-9 16-11z" fill="#F0FCFC"/>
<path transform="translate(344,433)" d="m0 0h1l2 44 2 12 1 2 3 19 10 32 8 16-1 2-9-17-6-16-5-17-5-27-1-8z" fill="#EFFCFC"/>
<path transform="translate(406,298)" d="m0 0h2l-2 5-7 7-9 12-4 7h-7-3l6-9 8-9h2l2-4 10-8z" fill="#FBFDFD"/>
<path transform="translate(543,746)" d="m0 0h4v2l9 1 5 3 3 7v6h-3l-6 2-2-9-4-5-7-1h-4l2-4z" fill="#0B0F61"/>
<path transform="translate(359,731)" d="m0 0h4v34l-2-2-2 2-2-2-2-18v-3l3-6-2-1z" fill="#091465"/>
<path transform="translate(399,751)" d="m0 0 2 1-2 36 3 2v2h-10l-4-2 4-2h2l1-20 1-13h2z" fill="#1E2673"/>
<path transform="translate(350,296)" d="m0 0h5l-2 3-12 6-10 6-3-3-9 1-10 4-2-2 17-7 21-7z" fill="#F0FCFC"/>
<path transform="translate(541,726)" d="m0 0h6l5 4 2 5-1 6-5 5h-4l-1-11-5-7z" fill="#0C1263"/>
<path transform="translate(574,680)" d="m0 0 2 1-14 8-17 8-28 10-16 4h-8v-1l21-5 15-5 10-4 14-6 16-8z" fill="#063F82"/>
<path transform="translate(378,300)" d="m0 0 4 1-16 8-16 10-6 4-3-5 19-11 15-6z" fill="#F1FCFC"/>
<path transform="translate(200,568)" d="m0 0 1 2h2l10 19 3 5 24 32-1 2-10-11-13-18-11-18-5-9z" fill="#0B367A"/>
<path transform="translate(355,744)" d="m0 0h1v20l-10-2-3-1 2-5 6-8z" fill="#EFFCFC"/>
<path transform="translate(511,387)" d="m0 0 3 1 3 21 3 4 1 8-1 3-1 32h-1l-2-28-2-22z" fill="#EFFCFC"/>
<path transform="translate(586,720)" d="m0 0 4 2 6 5 5 5v2l-10 5-3-1z" fill="#F9FDFD"/>
<path transform="translate(196,220)" d="m0 0 5 1 13 6-2 5-5 6-3-1-8-15z" fill="#0D105E"/>
<path transform="translate(583,796)" d="m0 0 3 1v4l3 1-15 6-9-1v-2l-4-1z" fill="#10115F"/>
<path transform="translate(309,339)" d="m0 0 2 1-4 5-5 10-9 13-4 4-3-1 3-7 8-12z" fill="#053A7C"/>
<path transform="translate(480,755)" d="m0 0 5 5 4 9v4h-13l2-11z" fill="#FCFDFD"/>
<path transform="translate(499,300)" d="m0 0 9 2 16 7 11 7v4l-6-1-14-9-16-9z" fill="#EFFCFC"/>
<path transform="translate(696,164)" d="m0 0 4 2 4 3v2l4 2 8 8 7 8 8 8 11 14 1 4-5-5-7-9-27-27-7-8z" fill="#060C44"/>
<path transform="translate(234,706)" d="m0 0 2 1-2 12 4 7 6 3h5l-4 4-6-2-6-5-4-5-4-4z" fill="#19216B"/>
<path transform="translate(589,353)" d="m0 0 6 2 10 16 7 14-1 5-2-1-3-7-11-19-6-9z" fill="#063C7E"/>
<path transform="translate(605,490)" d="m0 0h2l-1 6-4 14-7 14-3 4-3 6-4 1 2-5 12-23z" fill="#073B7E"/>
<path transform="translate(518,106)" d="m0 0 10 1 5 2-2 2h-3l-1 9-3 15-2 2-2-4 2-14 1-9-5-3z" fill="#F9FDFD"/>
<path transform="translate(272,658)" d="m0 0h3v2l5 2 7 5v2l4 1 8 6 11 6 16 8 18 8-4 1-18-8-19-10-21-14-9-7z" fill="#073D80"/>
<path transform="translate(563,323)" d="m0 0 4 1 13 12 10 12-1 3-1-2-4-1-11-12-7-7v-2h-2z" fill="#063B7D"/>
<path transform="translate(601,732)" d="m0 0 1 2 2 1-12 6h-2l1 10 1 6 2 1-9 6h-2v-3l3-2-1-16 3 1 1-5 10-5h2z" fill="#262B7A"/>
<path transform="translate(661,519)" d="m0 0 3 1-5 7h-2l-2 4-6 5-2 4-2 3-3 1-4 4h-2l-1 3-4 4-8 4-2-1 14-11 7-7h2l2-4 10-10z" fill="#083F83"/>
<path transform="translate(511,512)" d="m0 0 1 4-1 11-3 14-3 4-3 7-3 1 3-10 7-25z" fill="#EFFCFC"/>
<path transform="translate(269,439)" d="m0 0h1l2 29 5 21 5 16v2h-2l-7-21-3-14-1-8z" fill="#EFFCFC"/>
<path transform="translate(265,782)" d="m0 0 6 2 11 6-3 5-6-1-8-4-2-5h2z" fill="#0B0F4B"/>
<path transform="translate(260,683)" d="m0 0 7 1 13 11-2 4-5 7-3-1 1-4v-8l-6-5-2-3z" fill="#1F2C7A"/>
<path transform="translate(670,220)" d="m0 0 5 1 1 2h7l3-2h3l-2 4-9 7-7 8-1-2 3-6 2-2-1-4-4-4z" fill="#FAFDFD"/>
<path transform="translate(313,754)" d="m0 0 1 4-4 6-3 4-6-2-8-4-1-2 9 1v2l7-5 3-3z" fill="#10104F"/>
<path transform="translate(386,582)" d="m0 0 5 1 1 2 6 2 10 11v3l-5-2-12-11z" fill="#F4FCFC"/>
<path transform="translate(198,480)" d="m0 0 2 1 6 16 9 16v3l-4-2-6-10-3-6-2-9-2-5z" fill="#0C2670"/>
<path transform="translate(609,425)" d="m0 0h1l1 9v30l-2 10-2-2-1-4 2-5v-37z" fill="#F0FCFC"/>
<path transform="translate(531,472)" d="m0 0 1 4-3 21-3 11h-2l-1-6 3-3 1-8v-11z" fill="#EFFCFC"/>
<path transform="translate(618,560)" d="m0 0h2l-1 3-11 7-8 5-5 1v2l-7 3-8 3-2-1 19-10 17-10z" fill="#162B75"/>
<path transform="translate(356,746)" d="m0 0h3l2 5 2 2v12l-2-2-2 2-2-2-1-7z" fill="#04013A"/>
<path transform="translate(470,778)" d="m0 0h4l-1 12 5 1-1 2-11 2h-5v-2l5-2 3-9z" fill="#1A2770"/>
<path transform="translate(605,480)" d="m0 0h3l-4 16-6 15-2 1v-6l3-3 1-9 2-3 2-10z" fill="#EFFCFC"/>
<path transform="translate(432,751)" d="m0 0h1v10l-1 11-2 1v-2l-5-1 3-10z" fill="#FCFDFD"/>
<path transform="translate(634,631)" d="m0 0h3l-2 4-12 12-8 7-3-1z" fill="#07367B"/>
<path transform="translate(663,595)" d="m0 0h2l-2 5-9 13-11 13h-2l2-6 6-5 9-12z" fill="#063B7E"/>
<path transform="translate(656,367)" d="m0 0 5 5 4 5 4 7 4 6 2 5v3h-2l-9-16-9-12z" fill="#0A3579"/>
<path transform="translate(559,317)" d="m0 0 5 2 10 8 5 5v2l4 2 7 9-1 3-12-14-11-10-7-6z" fill="#EFFCFC"/>
<path transform="translate(243,348)" d="m0 0h2l-2 4-8 7-11 12-4 6h-2l1-4 9-11 4-5 8-6 3-1z" fill="#063B7E"/>
<path transform="translate(360,584)" d="m0 0 15 8 6 3v3l-13-5-7-3z" fill="#EFFCFC"/>
<path transform="translate(258,558)" d="m0 0 11 7 17 10 4 2-1 2-4-1v-2l-6-2-10-6-6-3-5-5z" fill="#083B7E"/>
<path transform="translate(347,753)" d="m0 0h2v2l6 2v5h-9l-3-1 2-5z" fill="#FCFDFD"/>
<path transform="translate(341,304)" d="m0 0h3l-1 3-3 1-3 4h-4v3l-10 5 2-4 5-5z" fill="#063B7D"/>
<path transform="translate(200,568)" d="m0 0 1 2h2l10 19 3 5v2h-2l-9-15-5-9z" fill="#063E81"/>
<path transform="translate(406,298)" d="m0 0h2l-2 5-10 10-1-3-3 1 2-4 10-8z" fill="#F0FCFC"/>
<path transform="translate(667,700)" d="m0 0 3 1-1 5-4 6-4 4h-3l2-4 3-5 2-5z" fill="#14104E"/>
<path transform="translate(641,718)" d="m0 0h2v2l10-1-1 4-9 8-2-1 2-2v-5l-2-2z" fill="#13104D"/>
<path transform="translate(234,706)" d="m0 0 2 1-1 6-1 2h-2v4h-6v-3z" fill="#1F1E63"/>
<path transform="translate(678,487)" d="m0 0h2l-1 6-8 17-4 5h-2l2-5 9-17z" fill="#073B7E"/>
<path transform="translate(589,494)" d="m0 0h1l1 7-4 10-3 5-2 4h-2l1-5 6-14z" fill="#EFFCFC"/>
<path transform="translate(638,668)" d="m0 0h14l2 2-7 1v2l-12-1z" fill="#0E0842"/>
<path transform="translate(636,349)" d="m0 0 4 1 7 6v2h2l7 8v3l-3-1-7-8-8-8-2-1z" fill="#11236E"/>
<path transform="translate(626,114)" d="m0 0 5 1 18 11 10 7-3 1-16-11-11-6z" fill="#150C4A"/>
<path transform="translate(491,569)" d="m0 0 6 1v5l-6 5-3-6z" fill="#FCFDFD"/>
<path transform="translate(585,725)" d="m0 0h1l2 6 1 11-1 2-4-2v-13z" fill="#10104D"/>
<path transform="translate(545,565)" d="m0 0 3 1-1 5-7 5-4-1 2-4z" fill="#FCFDFD"/>
<path transform="translate(380,322)" d="m0 0h6l2 1-1 4-1 2h-7-3z" fill="#EFFCFC"/>
<path transform="translate(561,764)" d="m0 0 1 4-8 7h-4l2-4 5-5z" fill="#0B0945"/>
<path transform="translate(574,680)" d="m0 0 2 1-14 8-8 4-4-1 7-4z" fill="#063D7F"/>
<path transform="translate(589,750)" d="m0 0 2 1 1 6 2 1-9 6h-2v-3l3-2 1-6h2z" fill="#1B1A61"/>
<path transform="translate(342,593)" d="m0 0 5 2 5 3v2l-9-1-5-2 1-3z" fill="#F5FCFC"/>
<path transform="translate(519,527)" d="m0 0 2 1-7 18-2 2-1-5 3-2 1-5-1-4z" fill="#EFFCFC"/>
<path transform="translate(391,711)" d="m0 0 12 2 18 2v1h-16l-13-2z" fill="#063F82"/>
<path transform="translate(426,756)" d="m0 0h4l-3 9-3 7h-3l1-5z" fill="#1E2067"/>
<path transform="translate(196,220)" d="m0 0 5 1 13 6-2 4-4-4-7-1-4-2z" fill="#3B2C7F"/>
<path transform="translate(725,193)" d="m0 0 4 2 11 13 3 4-1 3-9-11-5-5-3-4z" fill="#0E0F4A"/>
<path transform="translate(369,706)" d="m0 0 5 1 16 3 1 3-13-2-9-3z" fill="#074083"/>
<path transform="translate(198,480)" d="m0 0 2 1 6 16 1 4-2 2-3-5-2-9-2-5z" fill="#083C7F"/>
<path transform="translate(255,683)" d="m0 0 8 1 4 3-9 1h-3l-1-2-4 3-2-1 4-4z" fill="#101365"/>
<path transform="translate(635,669)" d="m0 0 2 1-1 1 7 1v1l-11 2-9 6v-3l9-7z" fill="#1F2F7B"/>
<path transform="translate(581,380)" d="m0 0 4 4 5 12 1 9-2-1-6-18z" fill="#EFFCFC"/>
<path transform="translate(272,658)" d="m0 0h3v2l5 2 7 5v2l4 1 4 4-4-1-16-11z" fill="#132F78"/>
<path transform="translate(640,544)" d="m0 0v3l-4 1-1 3-4 4-8 4-2-1 14-11z" fill="#13337A"/>
<path transform="translate(434,742)" d="m0 0 3 2v2l-4 2-2 8-4 1 1-5 4-9z" fill="#0E114D"/>
<path transform="translate(273,695)" d="m0 0h5l-1 6-4 5-3-1z" fill="#090D47"/>
<path transform="translate(351,581)" d="m0 0h5l5 5v3l-6-2-3-2v-2l-2-1z" fill="#F6FDFD"/>
<path transform="translate(622,337)" d="m0 0 5 2 11 9-3 2-9-8-5-4z" fill="#073277"/>
<path transform="translate(123,329)" d="m0 0 11 3v4h3l1 4-5-2-10-8z" fill="#181657"/>
<path transform="translate(412,782)" d="m0 0h6l-1 9h-4l-1-2z" fill="#0B0C4A"/>
<path transform="translate(582,714)" d="m0 0 2 4 3 2v10l-2-1-2 3z" fill="#292A78"/>
<path transform="translate(543,746)" d="m0 0h4v2h5v1h-5v2l-9 1 2-4z" fill="#142975"/>
<path transform="translate(581,705)" d="m0 0 5 3 2 3-4 3-3-1-1-7z" fill="#0D1251"/>
<path transform="translate(468,298)" d="m0 0 5 2 7 5-3 2h-3l-6-7z" fill="#F0FCFC"/>
<path transform="translate(325,332)" d="m0 0v3l-8 6h-2l-1 3-4 2 2-4 10-9z" fill="#EFFCFC"/>
<path transform="translate(356,756)" d="m0 0h1v13l-1-3-13-3v-2l10 2 3 1z" fill="#15408A"/>
<path transform="translate(595,574)" d="m0 0 1 2-1 2-7 3-8 3-2-1z" fill="#063D7F"/>
<path transform="translate(261,405)" d="m0 0h2v8l-2 7-2-2 1-10z" fill="#074083"/>
<path transform="translate(243,348)" d="m0 0h2l-2 4-8 7-3 2-1-2 4-4 6-5h2z" fill="#053A7C"/>
<path transform="translate(237,726)" d="m0 0 7 3h5l-4 4-6-2-4-4z" fill="#203481"/>
<path transform="translate(360,584)" d="m0 0 10 5v3l-7-1-2-1z" fill="#F3FCFC"/>
<path transform="translate(363,394)" d="m0 0 1 2-2 15-2-2v-12z" fill="#EFFCFC"/>
<path transform="translate(601,732)" d="m0 0 1 2 2 1-12 6h-2l-1 2-1-3 11-6h2z" fill="#203F8B"/>
<path transform="translate(528,404)" d="m0 0 2 3 2 18-2-3-2-6z" fill="#EFFCFC"/>
<path transform="translate(658,134)" d="m0 0 5 2 11 8-2 1-5-3-6-4z" fill="#0F0B45"/>
<path transform="translate(589,318)" d="m0 0 9 3 9 6-1 2-17-10z" fill="#063F81"/>
<path transform="translate(360,486)" d="m0 0 2 3 2 16-2-1-2-7z" fill="#EFFCFC"/>
<path transform="translate(536,725)" d="m0 0h7l-4 4-8 1-3 1v-3z" fill="#10488F"/>
<path transform="translate(661,519)" d="m0 0 3 1-5 7h-2l-2 4-3-1 8-9z" fill="#093A7D"/>
<path transform="translate(230,615)" d="m0 0h2l8 11-1 2-10-11z" fill="#0A3A7D"/>
<path transform="translate(400,590)" d="m0 0 8 8v3l-5-2-2-6z" fill="#EFFCFC"/>
<path transform="translate(230,713)" d="m0 0h3l-1 6h-6v-3z" fill="#0C0643"/>
<path transform="translate(208,584)" d="m0 0 3 1 5 9v2h-2l-6-10z" fill="#063B7E"/>
<path transform="translate(626,114)" d="m0 0 5 1 12 7-3 1-11-6z" fill="#161554"/>
<path transform="translate(559,805)" d="m0 0h2v4l-7 1-5-1 4-2z" fill="#181366"/>
<path transform="translate(432,751)" d="m0 0h1v10l-3 2-1-5z" fill="#F3FCFC"/>
<path transform="translate(549,740)" d="m0 0h3v3l-4 3h-3v-5z" fill="#070A41"/>
<path transform="translate(300,803)" d="m0 0 7 2 7 3v1l-8-1-6-3z" fill="#110846"/>
<path transform="translate(393,789)" d="m0 0h7l2 1v2h-10l-1-2z" fill="#1B1658"/>
<path transform="translate(291,551)" d="m0 0 3 1 9 11h-3l-7-8z" fill="#F1FCFC"/>
<path transform="translate(591,526)" d="m0 0 1 2-3 6-4 1 2-5z" fill="#053478"/>
<path transform="translate(678,487)" d="m0 0h2l-1 6-3 6-3 2 2-6z" fill="#074184"/>
<path transform="translate(265,782)" d="m0 0 6 2-2 4-5-1-1-2h2z" fill="#0C1365"/>
<path transform="translate(423,782)" d="m0 0h4l-1 5-7-1z" fill="#FEFEFE"/>
<path transform="translate(618,560)" d="m0 0h2l-1 3-8 5-4-1z" fill="#0D377C"/>
<path transform="translate(573,368)" d="m0 0h2l5 9-1 4-3-5-3-6z" fill="#074185"/>
<path transform="translate(565,353)" d="m0 0h3l5 8 1 4h-2z" fill="#EFFCFC"/>
<path transform="translate(283,753)" d="m0 0 5 3 6 3-3 2-10-5 2-1z" fill="#373182"/>
<path transform="translate(603,660)" d="m0 0h2l-1 3-7 5-3-1z" fill="#063F82"/>
<path transform="translate(240,628)" d="m0 0 4 2v2l4 2v2h2v2l-4-2-6-6z" fill="#0B3E82"/>
<path transform="translate(669,387)" d="m0 0h2l4 8v3h-2l-4-8z" fill="#083A7D"/>
</svg>
