<?xml version="1.0" encoding="UTF-8"?>
<svg version="1.1" viewBox="0 0 856 940" width="1280" height="1280" xmlns="http://www.w3.org/2000/svg">
<path transform="translate(0)" d="m0 0h856v940h-856z" fill="#fff"/>
<path transform="translate(412,30)" d="m0 0h28l20 1 31 5 22 5 24 7 26 11 25 12 25 15 15 11 10 8 13 11 18 18 9 11 11 13 14 19 15 25 10 19 11 27 7 21 3 13v10l-4 12-6 8-10 7-11 4h-12l-10-3-9-6-6-7-4-9-9-27-8-19-11-22-14-21-9-11-12-14-10-10-8-7-14-11-15-10-17-11-19-9-29-11-25-6-20-3-16-1h-30l-26 3-21 4-27 9-21 9-14 7-27 18-12 9-10 9-8 7-8 8-9 11-13 17-12 20-12 25-7 19-5 17-6 12-5 6-14 7-4 1h-12l-10-3-10-7-6-7-4-8-1-4v-14l7-26 9-24 12-25 10-17 10-15 13-17 11-13 9-11 15-15 11-9 13-11 20-14 24-14 28-13 22-9 28-8 31-6 14-2z" fill="#010101"/>
<path transform="translate(141,396)" d="m0 0 13 2 9 4 8 7 6 10 6 16 7 21 9 20 10 19 12 17 9 11 9 10 7 8 12 11 14 12 20 14 18 10 20 9 18 7 17 5 24 4 17 2h43l29-4 22-5 25-9 24-11 19-11 19-14 13-12 8-7 11-11 9-11 6-7 11-16 9-16 11-23 7-19 7-22 4-6 5-6 7-5 10-3 10-1 11 3 10 6 7 8 4 8 2 8v8l-4 17-8 24-9 22-10 19-12 20-13 18-7 9-9 10-7 8-21 21-11 9-15 12-18 12-24 14-19 10-26 10-28 8-30 6-24 3h-52l-25-3-26-5-25-7-18-6-21-9-22-12-20-12-18-13-13-11-8-7-10-9-15-15-9-11-7-8-12-17-11-17-10-18-9-20-9-24-7-24-1-8 2-11 5-10 8-8 8-5z" fill="#010101"/>
<path transform="translate(516,213)" d="m0 0h13l13 4 10 8 7 10 4 12v12l-3 11-7 10-9 10-11 12-12 14-11 12-7 8-12 14-12 13-9 11-10 11-9 11-12 13-7 8-27 30-11 12-7 8-9 11-7 7-7 8-9 8-11 5-4 1h-14l-12-4-12-9-6-10-3-8-1-12 4-14 8-11 10-11 9-11 8-8 9-11 14-15 7-8 9-10 9-11 13-14 9-11 12-13 7-8 13-15 27-30 7-8 9-10 7-8 10-12 8-6 10-5z" fill="#010101"/>
<path transform="translate(478,799)" d="m0 0h18l13 4 11 7 8 10 6 12 3 11 2 18-1 1h-76l6 15 6 7 6 2h14l8-2 5-5 2-4h28l-3 9-6 9-9 8-11 5-11 3h-18l-13-4-10-6-9-8-6-10-5-16-1-12 2-13 4-12 8-13 9-8 12-6z" fill="#010101"/>
<path transform="translate(586,800)" d="m0 0h20l15 4 8 5 6 7 4 10 1 5 1 25v35l1 15h-25l-2-2v-8l-10 8-9 4-7 1h-10l-11-2-11-6-7-8-3-9v-15l3-7 7-8 10-6 16-4 19-3 9-4h2v-8l-3-4v-2l-7-2h-14l-8 4-6 10-23-1v-7l4-9 6-8 9-6z" fill="#010101"/>
<path transform="translate(155,799)" d="m0 0h17l13 4 10 6 7 7 7 12 4 13 2 21h-74l1 8 6 11 5 4 2 1 10 1h4l9-2 6-6 2-4h28l-2 6-6 10-5 6-9 6-10 4-9 2h-18l-12-4-11-6-9-9-7-14-3-10v-22l4-15 7-12 6-7 11-7 9-3z" fill="#010101"/>
<path transform="translate(279,799)" d="m0 0h15l11 4 8 6 4 5 4 8 2 7 1 76-1 1h-27l-1-65-3-9-5-6-5-2h-9l-9 6-4 5-3 9-1 62h-26l-1-1v-103h27l1 3-1 10 12-12 6-3z" fill="#010101"/>
<path transform="translate(371,799)" d="m0 0h18l15 4 10 6 7 9 4 11v5l-21 1-3-1-4-8v-2l-5-2-6-2h-11l-8 3-3 1-1 8 1 3 4 2 19 5 15 3 12 5 8 6 5 8 1 3v16l-5 10-8 8-10 5-11 3h-21l-13-3-10-6-9-9-4-9-1-9h24l6 10 7 5 3 1h12l10-3 4-5v-6l-5-5-8-3-12-2-13-3-11-4-8-6-6-12v-15l4-10 7-8 12-6z" fill="#010101"/>
<path transform="translate(695,799)" d="m0 0h19l16 5 8 6 7 8 5 10 2 10h-27l-5-9-6-5-3-1h-10l-9 3-6 7-4 10-1 12 2 14 5 10v2l4 2 8 3h9l8-2 5-5 3-5 1-3 3-1h24l1 3-6 15-7 9-11 8-13 4h-18l-15-4-11-6-9-9-6-10-4-13-1-17 2-14 5-12 8-11 10-8 12-5z" fill="#010101"/>
<path transform="translate(26,801)" d="m0 0 78 1 1 14-1 10-10 10-7 8-10 11-7 8-9 10-7 8-2 3 56 1-1 21h-84l-4-1v-21l9-9 9-11 9-10 7-8 11-12 8-10h-48v-22z" fill="#010101"/>
<path transform="translate(757,802)" d="m0 0h80v22l-1 1h-15l-14-1 1 56 2 5h14l2 1-1 20-19 1-15-4-8-7-3-10v-61h-20l-3-2z" fill="#010101"/>
<path transform="translate(613,854)" d="m0 0h2v16l-2 8-6 7-6 4-6 1h-13l-5-3-4-10 1-6 4-5 9-4 20-5z" fill="#fff"/>
<path transform="translate(486,820)" d="m0 0 11 2 8 6 5 10v5h-46l-1-4 6-11 9-6z" fill="#fff"/>
<path transform="translate(161,820)" d="m0 0 10 1 8 5 5 6 3 8v3h-47l1-6 6-10 8-5z" fill="#fff"/>
</svg>
